{
.appVersion = "1192";
classes = (
{
automatic = 1;

glyphs = (
{
glyphname = A;
layers = (
{
anchors = (
{
name = bottom;
position = "{284, 0}";
},
{
name = ogonek;
position = "{461, 0}";
},
{
name = top;
position = "{285, 810}";
}
);
layerId = "3FB85DAF-C7EF-4F81-BE96-1E190958879E";
paths = (
{
closed = 1;
nodes = (
"209 0 LINE",
"234 162 LINE",
"339 162 LINE",
"364 0 LINE",
"545 0 LINE",
"400 810 LINE",
"169 810 LINE",
"22 0 LINE"
);
},
{
closed = 1;
nodes = (
"286 578 LINE",
"322 276 LINE",
"250 276 LINE"
);
}
);
width = 568;
}
);
leftKerningGroup = A;
rightKerningGroup = A;
unicode = 0041;
userData = {
com.typemytype.robofont.layerData = {
b = {
anchors = (
);
components = (
);
contours = (
);
lib = {
};
name = A;
unicodes = (
);
width = 939;
};
};
};
},
{
glyphname = AE;
layers = (
{
anchors = (
{
name = bottom;
position = "{365, 0}";
},
{
name = top;
position = "{470, 810}";
}
);
layerId = "3FB85DAF-C7EF-4F81-BE96-1E190958879E";
paths = (
{
closed = 1;
nodes = (
"198 0 LINE",
"262 164 LINE",
"387 164 LINE",
"387 0 LINE",
"713 0 LINE",
"713 133 LINE",
"553 133 LINE",
"553 357 LINE",
"666 357 LINE",
"666 496 LINE",
"553 496 LINE",
"553 677 LINE",
"713 677 LINE",
"713 810 LINE",
"354 810 LINE",
"-2 0 LINE"
);
},
{
closed = 1;
nodes = (
"387 527 LINE",
"387 286 LINE",
"300 286 LINE"
);
}
);
width = 729;
}
);
leftKerningGroup = AE;
rightKerningGroup = AE;
unicode = 00C6;
},
{
glyphname = B;
layers = (
{
anchors = (
{
name = bottom;
position = "{304, 0}";
},
{
name = top;
position = "{304, 810}";
}
);
layerId = "3FB85DAF-C7EF-4F81-BE96-1E190958879E";
paths = (
{
closed = 1;
nodes = (
"318 0 LINE SMOOTH",
"477 0 OFFCURVE",
"573 67 OFFCURVE",
"573 243 CURVE SMOOTH",
"573 357 OFFCURVE",
"521 426 OFFCURVE",
"428 435 CURVE",
"500 449 OFFCURVE",
"547 498 OFFCURVE",
"547 595 CURVE SMOOTH",
"547 787 OFFCURVE",
"414 810 OFFCURVE",
"278 810 CURVE SMOOTH",
"59 810 LINE",
"59 0 LINE"
);
},
{
closed = 1;
nodes = (
"257 363 LINE",
"285 363 LINE SMOOTH",
"358 363 OFFCURVE",
"382 334 OFFCURVE",
"382 247 CURVE SMOOTH",
"382 176 OFFCURVE",
"357 138 OFFCURVE",
"284 138 CURVE SMOOTH",
"257 138 LINE"
);
},
{
closed = 1;
nodes = (
"257 679 LINE",
"290 679 LINE SMOOTH",
"342 679 OFFCURVE",
"374 639 OFFCURVE",
"374 589 CURVE SMOOTH",
"374 529 OFFCURVE",
"360 490 OFFCURVE",
"283 490 CURVE SMOOTH",
"257 490 LINE"
);
}
);
width = 607;
}
);
leftKerningGroup = H;
rightKerningGroup = B;
unicode = 0042;
userData = {
com.fontlab.hintData = {
hhints = (
{
position = 0;
width = 287;
},
{
position = 742;
width = 262;
},
{
position = 1388;
width = 270;
}
);
vhints = (
{
position = 745;
width = 360;
},
{
position = 761;
width = 398;
}
);
};
com.typemytype.robofont.layerData = {
b = {
anchors = (
);
components = (
);
contours = (
);
lib = {
};
name = B;
unicodes = (
);
width = 1251.12708;
};
};
};
},
{
glyphname = C;
layers = (
{
anchors = (
{
name = bottom;
position = "{289, 0}";
},
{
name = top;
position = "{299, 810}";
}
);
layerId = "3FB85DAF-C7EF-4F81-BE96-1E190958879E";
paths = (
{
closed = 1;
nodes = (
"487 -13 OFFCURVE",
"541 91 OFFCURVE",
"541 226 CURVE SMOOTH",
"541 298 LINE",
"346 298 LINE",
"346 206 LINE SMOOTH",
"346 171 OFFCURVE",
"345 125 OFFCURVE",
"299 125 CURVE SMOOTH",
"254 125 OFFCURVE",
"250 170 OFFCURVE",
"250 206 CURVE SMOOTH",
"250 604 LINE SMOOTH",
"250 639 OFFCURVE",
"253 685 OFFCURVE",
"299 685 CURVE SMOOTH",
"345 685 OFFCURVE",
"346 639 OFFCURVE",
"346 604 CURVE SMOOTH",
"346 516 LINE",
"541 516 LINE",
"541 588 LINE SMOOTH",
"541 723 OFFCURVE",
"487 822 OFFCURVE",
"299 822 CURVE SMOOTH",
"111 822 OFFCURVE",
"49 720 OFFCURVE",
"49 551 CURVE SMOOTH",
"49 258 LINE SMOOTH",
"49 90 OFFCURVE",
"111 -13 OFFCURVE",
"299 -13 CURVE SMOOTH"
);
}
);
width = 577;
}
);
leftKerningGroup = O;
rightKerningGroup = C;
unicode = 0043;
userData = {
com.fontlab.hintData = {
hhints = (
{
position = -26;
width = 284;
},
{
position = 1400;
width = 284;
}
);
vhints = (
{
position = 78;
width = 420;
},
{
position = 686;
width = 406;
}
);
};
com.typemytype.robofont.layerData = {
b = {
anchors = (
);
components = (
);
contours = (
);
lib = {
};
name = C;
unicodes = (
);
width = 1186;
};
};
};
},
{
glyphname = D;
layers = (
{
anchors = (
{
name = bottom;
position = "{302, 0}";
},
{
name = center;
position = "{302, 405}";
},
{
name = top;
position = "{302, 810}";
}
);
layerId = "3FB85DAF-C7EF-4F81-BE96-1E190958879E";
paths = (
{
closed = 1;
nodes = (
"272 0 LINE SMOOTH",
"493 0 OFFCURVE",
"554 74 OFFCURVE",
"554 259 CURVE SMOOTH",
"554 551 LINE SMOOTH",
"554 736 OFFCURVE",
"493 810 OFFCURVE",
"272 810 CURVE SMOOTH",
"59 810 LINE",
"59 0 LINE"
);
},
{
closed = 1;
nodes = (
"257 673 LINE",
"275 673 LINE SMOOTH",
"343 673 OFFCURVE",
"350 651 OFFCURVE",
"350 596 CURVE SMOOTH",
"350 216 LINE SMOOTH",
"350 160 OFFCURVE",
"343 137 OFFCURVE",
"275 137 CURVE SMOOTH",
"257 137 LINE"
);
}
);
width = 603;
}
);
leftKerningGroup = H;
rightKerningGroup = O;
unicode = 0044;
userData = {
com.fontlab.hintData = {
hhints = (
{
position = 0;
width = 284;
},
{
position = 1374;
width = 284;
}
);
vhints = (
{
position = 694;
width = 424;
}
);
};
com.typemytype.robofont.layerData = {
b = {
anchors = (
);
components = (
);
contours = (
);
lib = {
};
name = D;
unicodes = (
);
width = 1240;
};
};
};
},
{
glyphname = Eth;
layers = (
{
layerId = "3FB85DAF-C7EF-4F81-BE96-1E190958879E";
paths = (
{
closed = 1;
nodes = (
"262 0 LINE SMOOTH",
"483 0 OFFCURVE",
"543 74 OFFCURVE",
"543 259 CURVE SMOOTH",
"543 551 LINE SMOOTH",
"543 736 OFFCURVE",
"483 810 OFFCURVE",
"262 810 CURVE SMOOTH",
"48 810 LINE",
"48 461 LINE",
"5 461 LINE",
"5 365 LINE",
"48 365 LINE",
"48 0 LINE"
);
},
{
closed = 1;
nodes = (
"247 365 LINE",
"282 365 LINE",
"282 461 LINE",
"247 461 LINE",
"247 673 LINE",
"265 673 LINE SMOOTH",
"333 673 OFFCURVE",
"340 651 OFFCURVE",
"340 596 CURVE SMOOTH",
"340 216 LINE SMOOTH",
"340 160 OFFCURVE",
"333 137 OFFCURVE",
"265 137 CURVE SMOOTH",
"247 137 LINE"
);
}
);
width = 576;
}
);
leftKerningGroup = Eth;
rightKerningGroup = O;
unicode = 00D0;
userData = {
com.fontlab.hintData = {
hhints = (
{
position = 0;
width = 284;
},
{
position = 1374;
width = 284;
}
);
vhints = (
{
position = 694;
width = 424;
}
);
};
};
},
{
glyphname = Dcroat;
layers = (
{
layerId = "3FB85DAF-C7EF-4F81-BE96-1E190958879E";
paths = (
{
closed = 1;
nodes = (
"278 0 LINE SMOOTH",
"498 0 OFFCURVE",
"559 74 OFFCURVE",
"559 259 CURVE SMOOTH",
"559 551 LINE SMOOTH",
"559 736 OFFCURVE",
"499 810 OFFCURVE",
"277 810 CURVE SMOOTH",
"64 810 LINE",
"64 457 LINE",
"12 457 LINE",
"12 370 LINE",
"64 370 LINE",
"64 0 LINE"
);
},
{
closed = 1;
nodes = (
"256 370 LINE",
"302 370 LINE",
"302 457 LINE",
"256 457 LINE",
"256 673 LINE",
"285 673 LINE SMOOTH",
"353 673 OFFCURVE",
"360 651 OFFCURVE",
"360 596 CURVE SMOOTH",
"360 216 LINE SMOOTH",
"360 160 OFFCURVE",
"354 137 OFFCURVE",
"285 137 CURVE SMOOTH",
"256 137 LINE"
);
}
);
width = 607;
}
);
leftKerningGroup = Eth;
rightKerningGroup = O;
unicode = 0110;
userData = {
com.fontlab.hintData = {
hhints = (
{
position = 0;
width = 284;
},
{
position = 1374;
width = 284;
}
);
vhints = (
{
position = 694;
width = 424;
}
);
};
com.typemytype.robofont.layerData = {
b = {
anchors = (
);
components = (
);
contours = (
);
lib = {
};
name = Dcroat;
unicodes = (
);
width = 1251;
};
};
};
},
{
glyphname = E;
layers = (
{
anchors = (
{
name = bottom;
position = "{230, 0}";
},
{
name = ogonek;
position = "{313, 0}";
},
{
name = top;
position = "{250, 810}";
},
{
name = topleft;
position = "{20, 810}";
}
);
layerId = "3FB85DAF-C7EF-4F81-BE96-1E190958879E";
paths = (
{
closed = 1;
nodes = (
"439 0 LINE",
"439 132 LINE",
"257 132 LINE",
"257 358 LINE",
"392 358 LINE",
"392 496 LINE",
"257 496 LINE",
"257 677 LINE",
"438 677 LINE",
"438 810 LINE",
"59 810 LINE",
"59 0 LINE"
);
}
);
width = 459;
}
);
leftKerningGroup = H;
rightKerningGroup = E;
unicode = 0045;
userData = {
com.typemytype.robofont.layerData = {
b = {
anchors = (
);
components = (
);
contours = (
);
lib = {
};
name = E;
unicodes = (
);
width = 945;
};
};
};
},
{
color = 4;
glyphname = Ezh;
layers = (
{
anchors = (
{
name = bottom;
position = "{259, 0}";
},
{
name = top;
position = "{259, 810}";
}
);
layerId = "3FB85DAF-C7EF-4F81-BE96-1E190958879E";
paths = (
{
closed = 1;
nodes = (
"419 -17 OFFCURVE",
"480 91 OFFCURVE",
"480 241 CURVE SMOOTH",
"480 384 OFFCURVE",
"443 492 OFFCURVE",
"279 492 CURVE SMOOTH",
"215 492 LINE",
"260 454 LINE",
"447 694 LINE",
"447 810 LINE",
"47 810 LINE",
"47 677 LINE",
"255 677 LINE",
"108 480 LINE",
"108 384 LINE",
"196 384 LINE SMOOTH",
"285 384 OFFCURVE",
"298 346 OFFCURVE",
"298 235 CURVE SMOOTH",
"298 153 OFFCURVE",
"291 121 OFFCURVE",
"255 121 CURVE SMOOTH",
"218 121 OFFCURVE",
"206 150 OFFCURVE",
"206 248 CURVE SMOOTH",
"206 261 OFFCURVE",
"206 279 OFFCURVE",
"206 280 CURVE",
"21 280 LINE",
"21 251 LINE SMOOTH",
"21 93 OFFCURVE",
"71 -17 OFFCURVE",
"252 -17 CURVE SMOOTH"
);
}
);
width = 517;
}
);
leftKerningGroup = Ezh;
rightKerningGroup = Ezh;
unicode = 01B7;
},
{
glyphname = F;
layers = (
{
anchors = (
{
name = bottom;
position = "{224, 0}";
},
{
name = top;
position = "{224, 810}";
}
);
layerId = "3FB85DAF-C7EF-4F81-BE96-1E190958879E";
paths = (
{
closed = 1;
nodes = (
"257 0 LINE",
"257 354 LINE",
"404 354 LINE",
"404 492 LINE",
"257 492 LINE",
"257 677 LINE",
"420 677 LINE",
"420 810 LINE",
"59 810 LINE",
"59 0 LINE"
);
}
);
width = 447;
}
);
leftKerningGroup = H;
rightKerningGroup = F;
unicode = 0046;
userData = {
com.typemytype.robofont.layerData = {
b = {
anchors = (
);
components = (
);
contours = (
);
lib = {
};
name = F;
unicodes = (
);
width = 778;
};
};
};
},
{
glyphname = G;
layers = (
{
anchors = (
{
name = bottom;
position = "{298, 0}";
},
{
name = top;
position = "{298, 810}";
}
);
layerId = "3FB85DAF-C7EF-4F81-BE96-1E190958879E";
paths = (
{
closed = 1;
nodes = (
"344 -13 OFFCURVE",
"381 18 OFFCURVE",
"402 59 CURVE",
"412 0 LINE",
"544 0 LINE",
"544 426 LINE",
"301 426 LINE",
"301 313 LINE",
"366 313 LINE",
"366 207 LINE SMOOTH",
"366 171 OFFCURVE",
"353 125 OFFCURVE",
"308 125 CURVE SMOOTH",
"262 125 OFFCURVE",
"252 171 OFFCURVE",
"252 207 CURVE SMOOTH",
"252 604 LINE SMOOTH",
"252 639 OFFCURVE",
"256 685 OFFCURVE",
"302 685 CURVE SMOOTH",
"348 685 OFFCURVE",
"349 640 OFFCURVE",
"349 604 CURVE SMOOTH",
"349 527 LINE",
"544 527 LINE",
"544 585 LINE SMOOTH",
"544 720 OFFCURVE",
"487 822 OFFCURVE",
"300 822 CURVE SMOOTH",
"111 822 OFFCURVE",
"49 711 OFFCURVE",
"49 541 CURVE SMOOTH",
"49 269 LINE SMOOTH",
"49 104 OFFCURVE",
"103 -13 OFFCURVE",
"275 -13 CURVE SMOOTH"
);
}
);
width = 595;
}
);
leftKerningGroup = O;
rightKerningGroup = G;
unicode = 0047;
userData = {
com.fontlab.hintData = {
hhints = (
{
position = -26;
width = 285;
},
{
position = 1400;
width = 284;
}
);
vhints = (
{
position = 80;
width = 424;
}
);
};
com.typemytype.robofont.layerData = {
b = {
anchors = (
);
components = (
);
contours = (
);
lib = {
};
name = G;
unicodes = (
);
width = 1224;
};
};
};
},
{
color = 4;
glyphname = Gstroke;
layers = (
{
components = (
{
name = G;
}
);
layerId = "3FB85DAF-C7EF-4F81-BE96-1E190958879E";
paths = (
{
closed = 1;
nodes = (
"600 183 LINE",
"600 279 LINE",
"323 279 LINE",
"323 183 LINE"
);
}
);
width = 595;
}
);
leftKerningGroup = O;
unicode = 01E4;
},
{
glyphname = H;
layers = (
{
anchors = (
{
name = bottom;
position = "{312, 0}";
},
{
name = center;
position = "{312, 405}";
},
{
name = top;
position = "{312, 810}";
},
{
name = topleft;
position = "{20, 810}";
}
);
layerId = "3FB85DAF-C7EF-4F81-BE96-1E190958879E";
paths = (
{
closed = 1;
nodes = (
"261 0 LINE",
"261 347 LINE",
"363 347 LINE",
"363 0 LINE",
"561 0 LINE",
"561 810 LINE",
"363 810 LINE",
"363 489 LINE",
"261 489 LINE",
"261 810 LINE",
"63 810 LINE",
"63 0 LINE"
);
}
);
width = 624;
}
);
leftKerningGroup = H;
rightKerningGroup = H;
unicode = 0048;
userData = {
com.typemytype.robofont.layerData = {
b = {
anchors = (
);
components = (
);
contours = (
);
lib = {
};
name = H;
unicodes = (
);
width = 1283;
};
};
};
},
{
glyphname = Hbar;
layers = (
{
layerId = "3FB85DAF-C7EF-4F81-BE96-1E190958879E";
paths = (
{
closed = 1;
nodes = (
"229 0 LINE",
"229 347 LINE",
"320 347 LINE",
"320 0 LINE",
"519 0 LINE",
"519 614 LINE",
"555 614 LINE",
"555 669 LINE",
"519 669 LINE",
"519 810 LINE",
"320 810 LINE",
"320 669 LINE",
"229 669 LINE",
"229 810 LINE",
"31 810 LINE",
"31 669 LINE",
"-21 669 LINE",
"-21 614 LINE",
"31 614 LINE",
"31 0 LINE"
);
},
{
closed = 1;
nodes = (
"229 614 LINE",
"320 614 LINE",
"320 489 LINE",
"229 489 LINE"
);
}
);
width = 534;
}
);
leftKerningGroup = H;
rightKerningGroup = H;
unicode = 0126;
},
{
glyphname = I;
layers = (
{
anchors = (
{
name = bottom;
position = "{158, 0}";
},
{
name = ogonek;
position = "{158, 0}";
},
{
name = top;
position = "{158, 810}";
},
{
name = topleft;
position = "{20, 810}";
}
);
layerId = "3FB85DAF-C7EF-4F81-BE96-1E190958879E";
paths = (
{
closed = 1;
nodes = (
"257 0 LINE",
"257 810 LINE",
"59 810 LINE",
"59 0 LINE"
);
}
);
width = 316;
}
);
leftKerningGroup = H;
rightKerningGroup = H;
unicode = 0049;
userData = {
com.fontlab.hintData = {
vhints = (
{
position = 98;
width = 412;
}
);
};
com.typemytype.robofont.layerData = {
b = {
anchors = (
);
components = (
);
contours = (
);
lib = {
};
name = I;
unicodes = (
);
width = 652;
};
};
};
},
{
glyphname = J;
layers = (
{
anchors = (
{
name = bottom;
position = "{182, 0}";
},
{
name = top;
position = "{205, 810}";
}
);
layerId = "3FB85DAF-C7EF-4F81-BE96-1E190958879E";
paths = (
{
closed = 1;
nodes = (
"111 -21 LINE SMOOTH",
"260 -21 OFFCURVE",
"304 47 OFFCURVE",
"304 177 CURVE SMOOTH",
"304 810 LINE",
"106 810 LINE",
"106 186 LINE SMOOTH",
"106 126 OFFCURVE",
"81 116 OFFCURVE",
"15 116 CURVE",
"15 -21 LINE"
);
}
);
width = 363;
}
);
leftKerningGroup = J;
rightKerningGroup = J;
unicode = 004A;
userData = {
com.fontlab.hintData = {
hhints = (
{
position = -44;
width = 286;
}
);
};
com.typemytype.robofont.layerData = {
b = {
anchors = (
);
components = (
);
contours = (
);
lib = {
};
name = J;
unicodes = (
);
width = 748;
};
};
};
},
{
glyphname = K;
layers = (
{
anchors = (
{
name = bottom;
position = "{294, 0}";
},
{
name = top;
position = "{311, 810}";
}
);
layerId = "3FB85DAF-C7EF-4F81-BE96-1E190958879E";
paths = (
{
closed = 1;
nodes = (
"257 0 LINE",
"257 338 LINE",
"267 351 LINE",
"373 0 LINE",
"576 0 LINE",
"427 442 LINE",
"574 810 LINE",
"379 810 LINE",
"257 494 LINE",
"257 810 LINE",
"59 810 LINE",
"59 0 LINE"
);
}
);
width = 588;
}
);
leftKerningGroup = H;
rightKerningGroup = K;
unicode = 004B;
userData = {
com.typemytype.robofont.layerData = {
b = {
anchors = (
);
components = (
);
contours = (
);
lib = {
};
name = K;
unicodes = (
);
width = 913;
};
};
};
},
{
glyphname = L;
layers = (
{
anchors = (
{
name = bottom;
position = "{248, 0}";
},
{
name = center;
position = "{383, 435}";
},
{
name = top;
position = "{158, 810}";
},
{
name = topright;
position = "{307, 810}";
}
);
layerId = "3FB85DAF-C7EF-4F81-BE96-1E190958879E";
paths = (
{
closed = 1;
nodes = (
"437 0 LINE",
"437 132 LINE",
"257 132 LINE",
"257 810 LINE",
"59 810 LINE",
"59 0 LINE"
);
}
);
width = 456;
}
);
leftKerningGroup = H;
rightKerningGroup = L;
unicode = 004C;
userData = {
com.typemytype.robofont.layerData = {
b = {
anchors = (
);
components = (
);
contours = (
);
lib = {
};
name = L;
unicodes = (
);
width = 939;
};
};
};
},
{
glyphname = Lslash;
layers = (
{
layerId = "3FB85DAF-C7EF-4F81-BE96-1E190958879E";
paths = (
{
closed = 1;
nodes = (
"447 0 LINE",
"447 132 LINE",
"267 132 LINE",
"267 443 LINE",
"364 487 LINE",
"364 588 LINE",
"267 544 LINE",
"267 810 LINE",
"69 810 LINE",
"69 454 LINE",
"12 428 LINE",
"12 327 LINE",
"69 353 LINE",
"69 0 LINE"
);
}
);
width = 466;
}
);
leftKerningGroup = H;
rightKerningGroup = L;
unicode = 0141;
},
{
glyphname = M;
layers = (
{
anchors = (
{
name = bottom;
position = "{359, 0}";
},
{
name = top;
position = "{359, 810}";
}
);
layerId = "3FB85DAF-C7EF-4F81-BE96-1E190958879E";
paths = (
{
closed = 1;
nodes = (
"196 0 LINE",
"209 530 LINE",
"298 0 LINE",
"425 0 LINE",
"507 525 LINE",
"523 0 LINE",
"661 0 LINE",
"647 810 LINE",
"440 810 LINE",
"358 393 LINE",
"285 810 LINE",
"69 810 LINE",
"56 0 LINE"
);
}
);
width = 717;
}
);
leftKerningGroup = M;
rightKerningGroup = M;
unicode = 004D;
userData = {
com.fontlab.hintData = {
vhints = (
{
position = 86;
width = 290;
},
{
position = 113;
width = 291;
},
{
position = 1012;
width = 291;
},
{
position = 1044;
width = 286;
}
);
};
com.typemytype.robofont.layerData = {
b = {
anchors = (
);
components = (
);
contours = (
);
lib = {
};
name = M;
unicodes = (
);
width = 1472;
};
};
};
},
{
glyphname = N;
layers = (
{
anchors = (
{
name = bottom;
position = "{285, 0}";
},
{
name = top;
position = "{285, 810}";
}
);
layerId = "3FB85DAF-C7EF-4F81-BE96-1E190958879E";
paths = (
{
closed = 1;
nodes = (
"229 0 LINE",
"229 381 LINE",
"375 0 LINE",
"511 0 LINE",
"511 810 LINE",
"347 810 LINE",
"347 463 LINE",
"199 810 LINE",
"59 810 LINE",
"59 0 LINE"
);
}
);
width = 570;
}
);
leftKerningGroup = H;
rightKerningGroup = H;
unicode = 004E;
userData = {
com.typemytype.robofont.layerData = {
b = {
anchors = (
);
components = (
);
contours = (
);
lib = {
};
name = N;
unicodes = (
);
width = 1170;
};
};
};
},
{
glyphname = Eng;
layers = (
{
layerId = "3FB85DAF-C7EF-4F81-BE96-1E190958879E";
paths = (
{
closed = 1;
nodes = (
"323 -216 LINE SMOOTH",
"479 -216 OFFCURVE",
"516 -142 OFFCURVE",
"516 0 CURVE SMOOTH",
"516 810 LINE",
"352 810 LINE",
"352 463 LINE",
"204 810 LINE",
"63 810 LINE",
"63 0 LINE",
"233 0 LINE",
"233 381 LINE",
"362 86 LINE",
"362 -22 LINE SMOOTH",
"362 -82 OFFCURVE",
"325 -101 OFFCURVE",
"239 -101 CURVE",
"239 -216 LINE"
);
}
);
width = 579;
}
);
leftKerningGroup = H;
rightKerningGroup = J;
unicode = 014A;
userData = {
com.fontlab.hintData = {
hhints = (
{
position = -444;
width = 237;
}
);
};
com.typemytype.robofont.layerData = {
b = {
anchors = (
);
components = (
);
contours = (
);
lib = {
};
name = Eng;
unicodes = (
);
width = 1190;
};
};
};
},
{
glyphname = O;
layers = (
{
anchors = (
{
name = bottom;
position = "{300, 0}";
},
{
name = center;
position = "{300, 405}";
},
{
name = ogonek;
position = "{320, 0}";
},
{
name = top;
position = "{300, 810}";
},
{
name = topleft;
position = "{20, 810}";
},
{
name = topright;
position = "{373, 810}";
}
);
layerId = "3FB85DAF-C7EF-4F81-BE96-1E190958879E";
paths = (
{
closed = 1;
nodes = (
"487 -13 OFFCURVE",
"550 86 OFFCURVE",
"550 255 CURVE SMOOTH",
"550 554 LINE SMOOTH",
"550 724 OFFCURVE",
"487 822 OFFCURVE",
"299 822 CURVE SMOOTH",
"111 822 OFFCURVE",
"49 724 OFFCURVE",
"49 554 CURVE SMOOTH",
"49 255 LINE SMOOTH",
"49 86 OFFCURVE",
"111 -13 OFFCURVE",
"299 -13 CURVE SMOOTH"
);
},
{
closed = 1;
nodes = (
"253 125 OFFCURVE",
"252 171 OFFCURVE",
"252 205 CURVE SMOOTH",
"252 605 LINE SMOOTH",
"252 640 OFFCURVE",
"256 685 OFFCURVE",
"299 685 CURVE SMOOTH",
"344 685 OFFCURVE",
"347 640 OFFCURVE",
"347 605 CURVE SMOOTH",
"347 205 LINE SMOOTH",
"347 171 OFFCURVE",
"344 125 OFFCURVE",
"299 125 CURVE SMOOTH"
);
}
);
width = 599;
}
);
leftKerningGroup = O;
rightKerningGroup = O;
unicode = 004F;
userData = {
com.fontlab.hintData = {
};
com.typemytype.robofont.layerData = {
b = {
anchors = (
);
components = (
);
contours = (
);
lib = {
};
name = O;
unicodes = (
);
width = 1036;
};
};
hhints = {
};
position = 866;
vhints = {
};
width = 64;
};
},
{
glyphname = Oslash;
layers = (
{
anchors = (
{
name = bottom;
position = "{291, 0}";
},
{
name = top;
position = "{291, 810}";
}
);
components = (
{
name = O;
}
);
layerId = "3FB85DAF-C7EF-4F81-BE96-1E190958879E";
paths = (
{
closed = 1;
nodes = (
"499 869 LINE",
"459 885 LINE",
"69 -78 LINE",
"108 -95 LINE"
);
}
);
width = 581;
}
);
leftKerningGroup = O;
rightKerningGroup = O;
unicode = 00D8;
userData = {
com.fontlab.hintData = {
hhints = (
{
position = -26;
width = 284;
},
{
position = 1400;
width = 284;
}
);
vhints = (
{
position = 80;
width = 424;
},
{
position = 688;
width = 424;
}
);
};
com.typemytype.robofont.layerData = {
b = {
anchors = (
);
components = (
);
contours = (
);
lib = {
};
name = Oslash;
unicodes = (
);
width = 1056;
};
};
};
},
{
glyphname = OE;
layers = (
{
anchors = (
{
name = bottom;
position = "{364, 0}";
},
{
name = top;
position = "{444, 810}";
}
);
layerId = "3FB85DAF-C7EF-4F81-BE96-1E190958879E";
paths = (
{
closed = 1;
nodes = (
"702 0 LINE",
"702 132 LINE",
"542 132 LINE",
"542 349 LINE",
"656 349 LINE",
"656 487 LINE",
"542 487 LINE",
"542 673 LINE",
"702 673 LINE",
"702 806 LINE",
"297 806 LINE SMOOTH",
"108 806 OFFCURVE",
"49 674 OFFCURVE",
"49 512 CURVE SMOOTH",
"49 287 LINE SMOOTH",
"49 117 OFFCURVE",
"112 0 OFFCURVE",
"297 0 CURVE SMOOTH"
);
},
{
closed = 1;
nodes = (
"250 135 OFFCURVE",
"247 199 OFFCURVE",
"247 239 CURVE SMOOTH",
"247 560 LINE SMOOTH",
"247 599 OFFCURVE",
"250 666 OFFCURVE",
"297 666 CURVE SMOOTH",
"345 666 LINE",
"345 135 LINE",
"297 135 LINE"
);
}
);
width = 728;
}
);
leftKerningGroup = O;
rightKerningGroup = E;
unicode = 0152;
userData = {
com.fontlab.hintData = {
vhints = (
{
position = 80;
width = 412;
}
);
};
com.typemytype.robofont.layerData = {
b = {
anchors = (
);
components = (
);
contours = (
);
lib = {
};
name = OE;
unicodes = (
);
width = 1493;
};
};
};
},
{
glyphname = P;
layers = (
{
anchors = (
{
name = bottom;
position = "{299, 0}";
},
{
name = top;
position = "{299, 810}";
}
);
layerId = "3FB85DAF-C7EF-4F81-BE96-1E190958879E";
paths = (
{
closed = 1;
nodes = (
"257 0 LINE",
"257 334 LINE",
"324 334 LINE SMOOTH",
"455 334 OFFCURVE",
"569 368 OFFCURVE",
"569 572 CURVE SMOOTH",
"569 725 OFFCURVE",
"497 810 OFFCURVE",
"352 810 CURVE SMOOTH",
"59 810 LINE",
"59 0 LINE"
);
},
{
closed = 1;
nodes = (
"257 671 LINE",
"318 671 LINE SMOOTH",
"378 671 OFFCURVE",
"383 621 OFFCURVE",
"383 576 CURVE SMOOTH",
"383 510 OFFCURVE",
"377 472 OFFCURVE",
"320 472 CURVE SMOOTH",
"257 472 LINE"
);
}
);
width = 597;
}
);
leftKerningGroup = H;
rightKerningGroup = P;
unicode = 0050;
userData = {
com.fontlab.hintData = {
vhints = (
{
position = 766;
width = 386;
}
);
};
com.typemytype.robofont.layerData = {
b = {
anchors = (
);
components = (
);
contours = (
);
lib = {
};
name = P;
unicodes = (
);
width = 999;
};
};
};
},
{
glyphname = Thorn;
layers = (
{
layerId = "3FB85DAF-C7EF-4F81-BE96-1E190958879E";
paths = (
{
closed = 1;
nodes = (
"247 0 LINE",
"247 234 LINE",
"307 234 LINE SMOOTH",
"482 234 OFFCURVE",
"565 276 OFFCURVE",
"565 479 CURVE SMOOTH",
"565 646 OFFCURVE",
"481 701 OFFCURVE",
"313 701 CURVE SMOOTH",
"247 701 LINE",
"247 810 LINE",
"48 810 LINE",
"48 0 LINE"
);
},
{
closed = 1;
nodes = (
"247 562 LINE",
"302 562 LINE SMOOTH",
"364 562 OFFCURVE",
"386 531 OFFCURVE",
"386 468 CURVE SMOOTH",
"386 400 OFFCURVE",
"364 372 OFFCURVE",
"300 372 CURVE SMOOTH",
"247 372 LINE"
);
}
);
width = 579;
}
);
leftKerningGroup = H;
unicode = 00DE;
userData = {
com.fontlab.hintData = {
vhints = (
{
position = 792;
width = 372;
}
);
};
};
},
{
glyphname = Q;
layers = (
{
anchors = (
{
name = bottom;
position = "{300, 0}";
},
{
name = top;
position = "{300, 810}";
}
);
layerId = "3FB85DAF-C7EF-4F81-BE96-1E190958879E";
paths = (
{
closed = 1;
nodes = (
"530 -47 LINE",
"502 -33 OFFCURVE",
"473 -7 OFFCURVE",
"447 20 CURVE",
"522 61 OFFCURVE",
"550 143 OFFCURVE",
"550 255 CURVE SMOOTH",
"550 554 LINE SMOOTH",
"550 724 OFFCURVE",
"487 822 OFFCURVE",
"299 822 CURVE SMOOTH",
"111 822 OFFCURVE",
"49 724 OFFCURVE",
"49 554 CURVE SMOOTH",
"49 255 LINE SMOOTH",
"49 86 OFFCURVE",
"111 -13 OFFCURVE",
"299 -13 CURVE SMOOTH",
"304 -13 OFFCURVE",
"310 -13 OFFCURVE",
"315 -12 CURVE",
"358 -79 OFFCURVE",
"445 -141 OFFCURVE",
"487 -158 CURVE"
);
},
{
closed = 1;
nodes = (
"253 125 OFFCURVE",
"252 171 OFFCURVE",
"252 205 CURVE SMOOTH",
"252 605 LINE SMOOTH",
"252 640 OFFCURVE",
"253 685 OFFCURVE",
"299 685 CURVE SMOOTH",
"344 685 OFFCURVE",
"347 640 OFFCURVE",
"347 605 CURVE SMOOTH",
"347 205 LINE SMOOTH",
"347 171 OFFCURVE",
"344 125 OFFCURVE",
"299 125 CURVE SMOOTH"
);
}
);
width = 599;
}
);
leftKerningGroup = O;
rightKerningGroup = O;
unicode = 0051;
userData = {
com.fontlab.hintData = {
hhints = (
{
position = -26;
width = 284;
},
{
position = 1400;
width = 284;
}
);
vhints = (
{
position = 80;
width = 424;
},
{
position = 688;
width = 424;
}
);
};
com.typemytype.robofont.layerData = {
b = {
anchors = (
);
components = (
);
contours = (
);
lib = {
};
name = Q;
unicodes = (
);
width = 1232;
};
};
};
},
{
glyphname = R;
layers = (
{
anchors = (
{
name = bottom;
position = "{312, 0}";
},
{
name = top;
position = "{312, 810}";
}
);
layerId = "3FB85DAF-C7EF-4F81-BE96-1E190958879E";
paths = (
{
closed = 1;
nodes = (
"257 0 LINE",
"257 358 LINE",
"298 358 LINE",
"382 0 LINE",
"589 0 LINE",
"479 388 LINE",
"561 430 OFFCURVE",
"578 495 OFFCURVE",
"578 596 CURVE SMOOTH",
"578 771 OFFCURVE",
"463 810 OFFCURVE",
"300 810 CURVE SMOOTH",
"59 810 LINE",
"59 0 LINE"
);
},
{
closed = 1;
nodes = (
"257 679 LINE",
"318 679 LINE SMOOTH",
"376 679 OFFCURVE",
"395 637 OFFCURVE",
"395 575 CURVE SMOOTH",
"395 513 OFFCURVE",
"378 467 OFFCURVE",
"309 467 CURVE SMOOTH",
"257 467 LINE"
);
}
);
width = 624;
}
);
leftKerningGroup = H;
rightKerningGroup = R;
unicode = 0052;
userData = {
com.fontlab.hintData = {
vhints = (
{
position = 747;
width = 399;
}
);
};
com.typemytype.robofont.layerData = {
b = {
anchors = (
);
components = (
);
contours = (
);
lib = {
};
name = R;
unicodes = (
);
width = 1286;
};
};
};
},
{
glyphname = S;
layers = (
{
anchors = (
{
name = bottom;
position = "{263, 0}";
},
{
name = top;
position = "{263, 810}";
}
);
layerId = "3FB85DAF-C7EF-4F81-BE96-1E190958879E";
paths = (
{
closed = 1;
nodes = (
"415 -13 OFFCURVE",
"498 81 OFFCURVE",
"498 194 CURVE SMOOTH",
"498 309 OFFCURVE",
"442 380 OFFCURVE",
"370 442 CURVE SMOOTH",
"323 483 LINE SMOOTH",
"273 527 OFFCURVE",
"237 560 OFFCURVE",
"237 623 CURVE SMOOTH",
"237 642 OFFCURVE",
"247 679 OFFCURVE",
"274 679 CURVE SMOOTH",
"309 679 OFFCURVE",
"310 639 OFFCURVE",
"310 569 CURVE",
"482 586 LINE",
"481 667 OFFCURVE",
"467 822 OFFCURVE",
"281 822 CURVE SMOOTH",
"135 822 OFFCURVE",
"43 745 OFFCURVE",
"43 603 CURVE SMOOTH",
"43 500 OFFCURVE",
"97 436 OFFCURVE",
"161 382 CURVE SMOOTH",
"212 339 LINE SMOOTH",
"269 291 OFFCURVE",
"302 251 OFFCURVE",
"302 185 CURVE SMOOTH",
"302 167 OFFCURVE",
"300 137 OFFCURVE",
"269 137 CURVE SMOOTH",
"237 137 OFFCURVE",
"212 162 OFFCURVE",
"211 272 CURVE",
"43 250 LINE",
"48 58 OFFCURVE",
"124 -13 OFFCURVE",
"281 -13 CURVE SMOOTH"
);
}
);
width = 526;
}
);
leftKerningGroup = S;
rightKerningGroup = S;
unicode = 0053;
userData = {
com.fontlab.hintData = {
hhints = (
{
position = -26;
width = 310;
},
{
position = 1387;
width = 297;
}
);
vhints = (
{
position = 32;
width = 404;
},
{
position = 32;
width = 350;
},
{
position = 558;
width = 409;
},
{
position = 576;
width = 358;
}
);
};
com.typemytype.robofont.layerData = {
b = {
anchors = (
);
components = (
);
contours = (
);
lib = {
};
name = S;
unicodes = (
);
width = 1081;
};
};
};
},
{
glyphname = Germandbls;
layers = (
{
layerId = "3FB85DAF-C7EF-4F81-BE96-1E190958879E";
paths = (
{
closed = 1;
nodes = (
"338 -13 LINE SMOOTH",
"514 -13 OFFCURVE",
"612 61 OFFCURVE",
"612 237 CURVE SMOOTH",
"612 379 OFFCURVE",
"534 457 OFFCURVE",
"373 457 CURVE",
"446 397 LINE",
"572 636 LINE",
"572 763 LINE",
"506 799 OFFCURVE",
"434 822 OFFCURVE",
"338 822 CURVE SMOOTH",
"141 822 OFFCURVE",
"54 714 OFFCURVE",
"54 557 CURVE SMOOTH",
"54 0 LINE",
"253 0 LINE",
"253 562 LINE SMOOTH",
"253 642 OFFCURVE",
"286 685 OFFCURVE",
"359 685 CURVE SMOOTH",
"386 685 OFFCURVE",
"409 679 OFFCURVE",
"427 670 CURVE",
"324 472 LINE",
"324 345 LINE",
"329 345 LINE SMOOTH",
"394 345 OFFCURVE",
"421 305 OFFCURVE",
"421 233 CURVE SMOOTH",
"421 158 OFFCURVE",
"386 121 OFFCURVE",
"329 121 CURVE SMOOTH",
"315 121 LINE",
"315 -13 LINE"
);
}
);
width = 647;
}
);
unicode = 1E9E;
},
{
glyphname = Schwa;
layers = (
{
layerId = "3FB85DAF-C7EF-4F81-BE96-1E190958879E";
paths = (
{
closed = 1;
nodes = (
"443 -13 OFFCURVE",
"546 79 OFFCURVE",
"546 241 CURVE SMOOTH",
"546 565 LINE SMOOTH",
"546 728 OFFCURVE",
"443 822 OFFCURVE",
"298 822 CURVE SMOOTH",
"146 822 OFFCURVE",
"45 742 OFFCURVE",
"45 578 CURVE SMOOTH",
"45 484 LINE",
"248 484 LINE",
"248 613 LINE SMOOTH",
"248 671 OFFCURVE",
"270 685 OFFCURVE",
"295 685 CURVE SMOOTH",
"321 685 OFFCURVE",
"343 671 OFFCURVE",
"343 613 CURVE SMOOTH",
"343 421 LINE",
"45 421 LINE",
"45 231 LINE SMOOTH",
"45 69 OFFCURVE",
"143 -13 OFFCURVE",
"298 -13 CURVE SMOOTH"
);
},
{
closed = 1;
nodes = (
"269 124 OFFCURVE",
"248 140 OFFCURVE",
"248 194 CURVE SMOOTH",
"248 308 LINE",
"343 308 LINE",
"343 194 LINE SMOOTH",
"343 140 OFFCURVE",
"323 124 OFFCURVE",
"296 124 CURVE SMOOTH"
);
}
);
width = 595;
}
);
leftKerningGroup = O;
leftMetricsKey = "=O-4";
rightKerningGroup = O;
rightMetricsKey = O;
unicode = 018F;
},
{
glyphname = T;
layers = (
{
anchors = (
{
name = bottom;
position = "{227, 0}";
},
{
name = center;
position = "{227, 405}";
},
{
name = top;
position = "{227, 810}";
}
);
layerId = "3FB85DAF-C7EF-4F81-BE96-1E190958879E";
paths = (
{
closed = 1;
nodes = (
"327 0 LINE",
"327 663 LINE",
"444 663 LINE",
"444 810 LINE",
"10 810 LINE",
"10 663 LINE",
"128 663 LINE",
"128 0 LINE"
);
}
);
width = 454;
}
);
leftKerningGroup = T;
rightKerningGroup = T;
unicode = 0054;
userData = {
com.typemytype.robofont.layerData = {
b = {
anchors = (
);
components = (
);
contours = (
);
lib = {
};
name = T;
unicodes = (
);
width = 948;
};
};
};
},
{
glyphname = Tbar;
layers = (
{
components = (
{
name = T;
}
);
layerId = "3FB85DAF-C7EF-4F81-BE96-1E190958879E";
paths = (
{
closed = 1;
nodes = (
"419 363 LINE",
"419 456 LINE",
"47 456 LINE",
"47 363 LINE"
);
}
);
width = 460;
}
);
leftKerningGroup = T;
rightKerningGroup = T;
unicode = 0166;
userData = {
com.typemytype.robofont.layerData = {
b = {
anchors = (
);
components = (
);
contours = (
);
lib = {
};
name = Tbar;
unicodes = (
);
width = 948;
};
};
};
},
{
glyphname = U;
layers = (
{
anchors = (
{
name = bottom;
position = "{301, 0}";
},
{
name = ogonek;
position = "{321, 0}";
},
{
name = top;
position = "{301, 810}";
},
{
name = topright;
position = "{439, 810}";
}
);
layerId = "3FB85DAF-C7EF-4F81-BE96-1E190958879E";
paths = (
{
closed = 1;
nodes = (
"489 -13 OFFCURVE",
"547 75 OFFCURVE",
"547 245 CURVE SMOOTH",
"547 810 LINE",
"349 810 LINE",
"349 211 LINE SMOOTH",
"349 176 OFFCURVE",
"346 128 OFFCURVE",
"300 128 CURVE SMOOTH",
"254 128 OFFCURVE",
"251 176 OFFCURVE",
"251 211 CURVE SMOOTH",
"251 810 LINE",
"54 810 LINE",
"54 245 LINE SMOOTH",
"54 75 OFFCURVE",
"111 -13 OFFCURVE",
"300 -13 CURVE SMOOTH"
);
}
);
width = 601;
}
);
leftKerningGroup = U;
rightKerningGroup = U;
unicode = 0055;
userData = {
com.fontlab.hintData = {
hhints = (
{
position = -26;
width = 293;
}
);
};
com.typemytype.robofont.layerData = {
b = {
anchors = (
);
components = (
);
contours = (
);
lib = {
};
name = U;
unicodes = (
);
width = 1235;
};
};
};
},
{
glyphname = V;
layers = (
{
anchors = (
{
name = bottom;
position = "{266, 0}";
},
{
name = top;
position = "{266, 810}";
}
);
layerId = "3FB85DAF-C7EF-4F81-BE96-1E190958879E";
paths = (
{
closed = 1;
nodes = (
"373 0 LINE",
"512 810 LINE",
"333 810 LINE",
"264 274 LINE",
"188 810 LINE",
"22 810 LINE",
"158 0 LINE"
);
}
);
width = 532;
}
);
unicode = 0056;
userData = {
com.typemytype.robofont.layerData = {
b = {
anchors = (
);
components = (
);
contours = (
);
lib = {
};
name = V;
unicodes = (
);
width = 963;
};
};
};
},
{
glyphname = W;
layers = (
{
anchors = (
{
name = bottom;
position = "{344, 0}";
},
{
name = top;
position = "{344, 810}";
}
);
layerId = "3FB85DAF-C7EF-4F81-BE96-1E190958879E";
paths = (
{
closed = 1;
nodes = (
"291 0 LINE",
"342 457 LINE",
"398 0 LINE",
"576 0 LINE",
"663 810 LINE",
"497 810 LINE",
"458 375 LINE",
"407 810 LINE",
"277 810 LINE",
"230 370 LINE",
"193 810 LINE",
"25 810 LINE",
"112 0 LINE"
);
}
);
width = 688;
}
);
leftKerningGroup = W;
rightKerningGroup = W;
unicode = 0057;
userData = {
com.typemytype.robofont.layerData = {
b = {
anchors = (
);
components = (
);
contours = (
);
lib = {
};
name = W;
unicodes = (
);
width = 1427;
};
};
};
},
{
glyphname = X;
layers = (
{
anchors = (
{
name = bottom;
position = "{262, 0}";
},
{
name = top;
position = "{262, 810}";
}
);
layerId = "3FB85DAF-C7EF-4F81-BE96-1E190958879E";
paths = (
{
closed = 1;
nodes = (
"166 0 LINE",
"245 224 LINE",
"334 0 LINE",
"520 0 LINE",
"369 382 LINE",
"502 810 LINE",
"340 810 LINE",
"280 610 LINE",
"201 810 LINE",
"13 810 LINE",
"159 440 LINE",
"5 0 LINE"
);
}
);
width = 524;
}
);
unicode = 0058;
userData = {
com.typemytype.robofont.layerData = {
b = {
anchors = (
);
components = (
);
contours = (
);
lib = {
};
name = X;
unicodes = (
);
width = 1077;
};
};
};
},
{
glyphname = Y;
layers = (
{
anchors = (
{
name = bottom;
position = "{249, 0}";
},
{
name = top;
position = "{249, 810}";
},
{
name = topleft;
position = "{20, 810}";
}
);
layerId = "3FB85DAF-C7EF-4F81-BE96-1E190958879E";
paths = (
{
closed = 1;
nodes = (
"345 0 LINE",
"345 344 LINE",
"490 810 LINE",
"311 810 LINE",
"258 593 LINE",
"194 810 LINE",
"7 810 LINE",
"155 344 LINE",
"155 0 LINE"
);
}
);
width = 497;
}
);
leftKerningGroup = Y;
rightKerningGroup = Y;
unicode = 0059;
userData = {
com.typemytype.robofont.layerData = {
b = {
anchors = (
);
components = (
);
contours = (
);
lib = {
};
name = Y;
unicodes = (
);
width = 930;
};
};
};
},
{
glyphname = Z;
layers = (
{
anchors = (
{
name = bottom;
position = "{219, 0}";
},
{
name = top;
position = "{219, 810}";
}
);
layerId = "3FB85DAF-C7EF-4F81-BE96-1E190958879E";
paths = (
{
closed = 1;
nodes = (
"408 0 LINE",
"408 132 LINE",
"218 132 LINE",
"405 694 LINE",
"405 810 LINE",
"34 810 LINE",
"34 677 LINE",
"213 677 LINE",
"27 116 LINE",
"27 0 LINE"
);
}
);
width = 437;
}
);
leftKerningGroup = Z;
rightKerningGroup = Z;
unicode = 005A;
userData = {
com.typemytype.robofont.layerData = {
b = {
anchors = (
);
components = (
);
contours = (
);
lib = {
};
name = Z;
unicodes = (
);
width = 896;
};
};
};
},
{
glyphname = a;
layers = (
{
anchors = (
{
name = bottom;
position = "{246, 0}";
},
{
name = ogonek;
position = "{382, 0}";
},
{
name = top;
position = "{264, 578}";
}
);
layerId = "3FB85DAF-C7EF-4F81-BE96-1E190958879E";
paths = (
{
closed = 1;
nodes = (
"233 -11 OFFCURVE",
"269 32 OFFCURVE",
"283 81 CURVE",
"284 80 OFFCURVE",
"291 34 OFFCURVE",
"296 0 CURVE",
"455 0 LINE",
"451 25 OFFCURVE",
"445 68 OFFCURVE",
"445 146 CURVE SMOOTH",
"445 417 LINE SMOOTH",
"445 514 OFFCURVE",
"383 589 OFFCURVE",
"265 589 CURVE SMOOTH",
"125 589 OFFCURVE",
"56 523 OFFCURVE",
"49 381 CURVE",
"214 374 LINE",
"219 420 LINE",
"221 439 OFFCURVE",
"225 456 OFFCURVE",
"248 456 CURVE SMOOTH",
"269 456 OFFCURVE",
"275 438 OFFCURVE",
"275 420 CURVE SMOOTH",
"275 357 LINE",
"171 322 OFFCURVE",
"34 276 OFFCURVE",
"34 132 CURVE SMOOTH",
"34 65 OFFCURVE",
"80 -11 OFFCURVE",
"174 -11 CURVE SMOOTH"
);
},
{
closed = 1;
nodes = (
"209 105 OFFCURVE",
"193 127 OFFCURVE",
"193 164 CURVE SMOOTH",
"193 220 OFFCURVE",
"225 256 OFFCURVE",
"275 285 CURVE",
"275 128 LINE",
"264 113 OFFCURVE",
"253 105 OFFCURVE",
"236 105 CURVE SMOOTH"
);
}
);
width = 491;
}
);
leftKerningGroup = a;
rightKerningGroup = a;
unicode = 0061;
userData = {
com.fontlab.hintData = {
};
com.typemytype.robofont.layerData = {
b = {
anchors = (
);
components = (
);
contours = (
);
lib = {
};
name = a;
unicodes = (
);
width = 1011;
};
};
hhints = {
};
position = 564;
vhints = {
};
width = 64;
};
},
{
glyphname = ae;
layers = (
{
anchors = (
{
name = bottom;
position = "{345, 0}";
},
{
name = top;
position = "{345, 578}";
}
);
layerId = "3FB85DAF-C7EF-4F81-BE96-1E190958879E";
paths = (
{
closed = 1;
nodes = (
"248 -13 OFFCURVE",
"316 16 OFFCURVE",
"341 76 CURVE",
"355 14 OFFCURVE",
"428 -13 OFFCURVE",
"476 -13 CURVE SMOOTH",
"583 -13 OFFCURVE",
"643 45 OFFCURVE",
"643 149 CURVE SMOOTH",
"643 202 LINE",
"480 202 LINE",
"480 160 LINE SMOOTH",
"480 131 OFFCURVE",
"480 112 OFFCURVE",
"459 112 CURVE SMOOTH",
"438 112 OFFCURVE",
"436 132 OFFCURVE",
"436 172 CURVE SMOOTH",
"436 282 LINE",
"501 297 LINE SMOOTH",
"589 318 OFFCURVE",
"651 355 OFFCURVE",
"651 448 CURVE SMOOTH",
"651 528 OFFCURVE",
"599 589 OFFCURVE",
"488 589 CURVE SMOOTH",
"408 589 OFFCURVE",
"345 552 OFFCURVE",
"340 508 CURVE",
"357 508 LINE",
"352 552 OFFCURVE",
"305 589 OFFCURVE",
"221 589 CURVE SMOOTH",
"91 589 OFFCURVE",
"36 516 OFFCURVE",
"36 381 CURVE",
"209 374 LINE",
"209 444 OFFCURVE",
"222 456 OFFCURVE",
"241 456 CURVE SMOOTH",
"256 456 OFFCURVE",
"268 449 OFFCURVE",
"268 412 CURVE SMOOTH",
"268 329 LINE",
"213 317 LINE SMOOTH",
"121 297 OFFCURVE",
"34 251 OFFCURVE",
"34 135 CURVE SMOOTH",
"34 41 OFFCURVE",
"99 -13 OFFCURVE",
"192 -13 CURVE SMOOTH"
);
},
{
closed = 1;
nodes = (
"201 105 OFFCURVE",
"188 129 OFFCURVE",
"188 161 CURVE SMOOTH",
"188 198 OFFCURVE",
"202 223 OFFCURVE",
"241 242 CURVE SMOOTH",
"268 255 LINE",
"268 157 LINE SMOOTH",
"268 118 OFFCURVE",
"252 105 OFFCURVE",
"230 105 CURVE SMOOTH"
);
},
{
closed = 1;
nodes = (
"435 419 LINE SMOOTH",
"435 449 OFFCURVE",
"447 462 OFFCURVE",
"472 462 CURVE SMOOTH",
"493 462 OFFCURVE",
"505 444 OFFCURVE",
"505 420 CURVE SMOOTH",
"505 388 OFFCURVE",
"484 369 OFFCURVE",
"440 361 CURVE SMOOTH",
"435 360 LINE"
);
}
);
width = 687;
}
);
leftKerningGroup = a;
leftMetricsKey = a;
rightKerningGroup = e;
rightMetricsKey = e;
unicode = 00E6;
userData = {
com.fontlab.hintData = {
hhints = (
{
position = -27;
width = 245;
},
{
position = 603;
width = 161;
},
{
position = 1016;
width = 229;
}
);
vhints = (
{
position = 50;
width = 318;
},
{
position = 529;
width = 347;
},
{
position = 1014;
width = 303;
}
);
};
};
},
{
glyphname = b;
layers = (
{
anchors = (
{
name = bottom;
position = "{262, 0}";
},
{
name = top;
position = "{140, 810}";
}
);
layerId = "3FB85DAF-C7EF-4F81-BE96-1E190958879E";
paths = (
{
closed = 1;
nodes = (
"433 -11 OFFCURVE",
"481 48 OFFCURVE",
"481 151 CURVE SMOOTH",
"481 432 LINE SMOOTH",
"481 533 OFFCURVE",
"438 589 OFFCURVE",
"360 589 CURVE SMOOTH",
"321 589 OFFCURVE",
"273 574 OFFCURVE",
"229 537 CURVE",
"229 810 LINE",
"50 810 LINE",
"50 0 LINE",
"229 0 LINE",
"229 44 LINE",
"271 9 OFFCURVE",
"317 -11 OFFCURVE",
"360 -11 CURVE SMOOTH"
);
},
{
closed = 1;
nodes = (
"254 101 OFFCURVE",
"241 105 OFFCURVE",
"229 113 CURVE",
"229 470 LINE",
"241 480 OFFCURVE",
"254 487 OFFCURVE",
"269 487 CURVE SMOOTH",
"290 487 OFFCURVE",
"302 470 OFFCURVE",
"302 448 CURVE SMOOTH",
"302 140 LINE SMOOTH",
"302 118 OFFCURVE",
"289 101 OFFCURVE",
"265 101 CURVE SMOOTH"
);
}
);
width = 523;
}
);
leftKerningGroup = h;
rightKerningGroup = o;
unicode = 0062;
userData = {
com.typemytype.robofont.layerData = {
b = {
anchors = (
);
components = (
);
contours = (
);
lib = {
};
name = b;
unicodes = (
);
width = 1077;
};
};
};
},
{
glyphname = c;
layers = (
{
anchors = (
{
name = bottom;
position = "{243, 0}";
},
{
name = top;
position = "{243, 578}";
}
);
layerId = "3FB85DAF-C7EF-4F81-BE96-1E190958879E";
paths = (
{
closed = 1;
nodes = (
"368 -11 OFFCURVE",
"453 46 OFFCURVE",
"453 162 CURVE SMOOTH",
"453 241 LINE",
"278 241 LINE",
"278 156 LINE SMOOTH",
"278 118 OFFCURVE",
"264 111 OFFCURVE",
"247 111 CURVE SMOOTH",
"231 111 OFFCURVE",
"218 123 OFFCURVE",
"218 161 CURVE SMOOTH",
"218 418 LINE SMOOTH",
"218 456 OFFCURVE",
"231 468 OFFCURVE",
"247 468 CURVE SMOOTH",
"264 468 OFFCURVE",
"278 461 OFFCURVE",
"278 423 CURVE SMOOTH",
"278 348 LINE",
"453 348 LINE",
"453 417 LINE SMOOTH",
"453 533 OFFCURVE",
"369 589 OFFCURVE",
"247 589 CURVE SMOOTH",
"125 589 OFFCURVE",
"38 523 OFFCURVE",
"38 407 CURVE SMOOTH",
"38 172 LINE SMOOTH",
"38 56 OFFCURVE",
"125 -11 OFFCURVE",
"247 -11 CURVE SMOOTH"
);
}
);
width = 485;
}
);
leftKerningGroup = o;
rightKerningGroup = c;
unicode = 0063;
userData = {
com.fontlab.hintData = {
hhints = (
{
position = -22;
width = 263;
},
{
position = 945;
width = 261;
}
);
vhints = (
{
position = 72;
width = 374;
}
);
};
com.typemytype.robofont.layerData = {
b = {
anchors = (
);
components = (
);
contours = (
);
lib = {
};
name = c;
unicodes = (
);
width = 1000;
};
};
};
},
{
glyphname = d;
layers = (
{
anchors = (
{
name = bottom;
position = "{261, 0}";
},
{
name = center;
position = "{261, 289}";
},
{
name = top;
position = "{382, 810}";
},
{
name = topright;
position = "{522, 810}";
}
);
layerId = "3FB85DAF-C7EF-4F81-BE96-1E190958879E";
paths = (
{
closed = 1;
nodes = (
"212 -11 OFFCURVE",
"254 10 OFFCURVE",
"292 47 CURVE",
"292 0 LINE",
"472 0 LINE",
"472 810 LINE",
"292 810 LINE",
"292 542 LINE",
"258 571 OFFCURVE",
"217 589 OFFCURVE",
"174 589 CURVE SMOOTH",
"93 589 OFFCURVE",
"42 526 OFFCURVE",
"42 427 CURVE SMOOTH",
"42 151 LINE SMOOTH",
"42 48 OFFCURVE",
"90 -11 OFFCURVE",
"172 -11 CURVE SMOOTH"
);
},
{
closed = 1;
nodes = (
"234 99 OFFCURVE",
"222 118 OFFCURVE",
"222 140 CURVE SMOOTH",
"222 436 LINE SMOOTH",
"222 463 OFFCURVE",
"234 482 OFFCURVE",
"258 482 CURVE SMOOTH",
"268 482 OFFCURVE",
"281 479 OFFCURVE",
"292 473 CURVE",
"292 112 LINE",
"279 104 OFFCURVE",
"265 99 OFFCURVE",
"256 99 CURVE SMOOTH"
);
}
);
width = 521;
}
);
leftKerningGroup = o;
rightKerningGroup = d;
unicode = 0064;
userData = {
com.fontlab.hintData = {
hhints = (
{
position = -22;
width = 226;
},
{
position = 986;
width = 220;
}
);
};
com.typemytype.robofont.layerData = {
b = {
anchors = (
);
components = (
);
contours = (
);
lib = {
};
name = d;
unicodes = (
);
width = 1074;
};
};
};
},
{
glyphname = eth;
layers = (
{
layerId = "3FB85DAF-C7EF-4F81-BE96-1E190958879E";
paths = (
{
closed = 1;
nodes = (
"378 -16 OFFCURVE",
"485 20 OFFCURVE",
"485 209 CURVE SMOOTH",
"485 462 LINE SMOOTH",
"485 639 OFFCURVE",
"440 723 OFFCURVE",
"416 758 CURVE",
"487 804 LINE",
"464 842 LINE",
"386 791 LINE",
"346 829 OFFCURVE",
"270 851 OFFCURVE",
"161 851 CURVE",
"153 740 LINE",
"209 740 OFFCURVE",
"250 729 OFFCURVE",
"260 714 CURVE",
"184 667 LINE",
"208 630 LINE",
"285 678 LINE",
"295 666 OFFCURVE",
"306 628 OFFCURVE",
"306 576 CURVE",
"287 584 OFFCURVE",
"263 589 OFFCURVE",
"236 589 CURVE SMOOTH",
"150 589 OFFCURVE",
"54 524 OFFCURVE",
"54 406 CURVE SMOOTH",
"54 207 LINE SMOOTH",
"54 42 OFFCURVE",
"158 -16 OFFCURVE",
"269 -16 CURVE SMOOTH"
);
},
{
closed = 1;
nodes = (
"232 99 OFFCURVE",
"229 143 OFFCURVE",
"229 290 CURVE SMOOTH",
"229 441 OFFCURVE",
"236 479 OFFCURVE",
"279 479 CURVE SMOOTH",
"288 479 OFFCURVE",
"296 477 OFFCURVE",
"306 474 CURVE",
"306 369 OFFCURVE",
"306 265 OFFCURVE",
"306 160 CURVE SMOOTH",
"306 121 OFFCURVE",
"298 99 OFFCURVE",
"274 99 CURVE SMOOTH"
);
}
);
width = 534;
}
);
leftKerningGroup = o;
unicode = 00F0;
userData = {
com.fontlab.hintData = {
hhints = (
{
position = -34;
width = 238;
},
{
position = 986;
width = 220;
},
{
position = 1486;
width = 259;
}
);
vhints = (
{
position = 72;
width = 364;
},
{
position = 588;
width = 372;
}
);
};
com.typemytype.robofont.layerData = {
b = {
anchors = (
);
components = (
);
contours = (
{
points = (
{
segmentType = curve;
smooth = 1;
x = 402.50049;
y = 30;
},
{
smooth = 0;
x = 273.50049;
y = 30;
},
{
smooth = 0;
x = 175.5005;
y = 146;
},
{
segmentType = curve;
smooth = 1;
x = 175.5005;
y = 504;
},
{
smooth = 0;
x = 175.5005;
y = 902;
},
{
smooth = 0;
x = 264;
y = 1001;
},
{
segmentType = curve;
smooth = 1;
x = 442;
y = 1001;
},
{
smooth = 0;
x = 497;
y = 1001;
},
{
smooth = 0;
x = 573;
y = 985;
},
{
segmentType = curve;
smooth = 0;
x = 631;
y = 955;
},
{
smooth = 0;
x = 636;
y = 931;
},
{
smooth = 0;
x = 658.50049;
y = 778;
},
{
segmentType = curve;
smooth = 1;
x = 658.50049;
y = 633;
},
{
smooth = 0;
x = 658.50049;
y = 178;
},
{
smooth = 0;
x = 596.50049;
y = 30;
}
);
},
{
points = (
{
segmentType = curve;
smooth = 1;
x = 400.50049;
y = -24;
},
{
smooth = 0;
x = 635.50049;
y = -24;
},
{
smooth = 0;
x = 718.50049;
y = 169;
},
{
segmentType = curve;
smooth = 1;
x = 718.50049;
y = 533;
},
{
segmentType = line;
smooth = 1;
x = 718.50049;
y = 621;
},
{
smooth = 0;
x = 718.50049;
y = 965;
},
{
smooth = 0;
x = 608.78748;
y = 1316.63;
},
{
segmentType = curve;
smooth = 0;
x = 581.50049;
y = 1384;
},
{
segmentType = line;
smooth = 0;
x = 725.50049;
y = 1421;
},
{
segmentType = line;
smooth = 0;
x = 725.50049;
y = 1472;
},
{
segmentType = line;
smooth = 0;
x = 560.50049;
y = 1430;
},
{
smooth = 0;
x = 477.50049;
y = 1620;
},
{
smooth = 0;
x = 349.50049;
y = 1687;
},
{
segmentType = curve;
smooth = 0;
x = 173.5005;
y = 1702;
},
{
segmentType = line;
smooth = 0;
x = 168.5005;
y = 1655;
},
{
smooth = 0;
x = 346.50049;
y = 1632;
},
{
smooth = 0;
x = 446.50049;
y = 1558;
},
{
segmentType = curve;
smooth = 0;
x = 505.50049;
y = 1412;
},
{
segmentType = line;
smooth = 0;
x = 358.50049;
y = 1374;
},
{
segmentType = line;
smooth = 0;
x = 358.50049;
y = 1324;
},
{
segmentType = line;
smooth = 0;
x = 528.50049;
y = 1367;
},
{
smooth = 0;
x = 562.50049;
y = 1282;
},
{
smooth = 0;
x = 601;
y = 1148;
},
{
segmentType = curve;
smooth = 0;
x = 626;
y = 1001;
},
{
smooth = 0;
x = 562;
y = 1038;
},
{
smooth = 0;
x = 491;
y = 1055;
},
{
segmentType = curve;
smooth = 1;
x = 434;
y = 1055;
},
{
smooth = 0;
x = 245;
y = 1053;
},
{
smooth = 0;
x = 103.5005;
y = 941;
},
{
segmentType = curve;
smooth = 1;
x = 113.5005;
y = 536;
},
{
segmentType = line;
smooth = 1;
x = 115.5005;
y = 456;
},
{
smooth = 0;
x = 122.5005;
y = 161;
},
{
smooth = 0;
x = 208.8085;
y = -24;
}
);
}
);
lib = {
};
name = eth;
unicodes = (
);
width = 845;
};
};
};
},
{
glyphname = dcroat;
layers = (
{
layerId = "3FB85DAF-C7EF-4F81-BE96-1E190958879E";
paths = (
{
closed = 1;
nodes = (
"209 -11 OFFCURVE",
"249 10 OFFCURVE",
"286 47 CURVE",
"286 0 LINE",
"465 0 LINE",
"465 681 LINE",
"511 681 LINE",
"511 749 LINE",
"465 749 LINE",
"465 810 LINE",
"286 810 LINE",
"286 749 LINE",
"146 749 LINE",
"146 681 LINE",
"286 681 LINE",
"286 542 LINE",
"252 571 OFFCURVE",
"213 589 OFFCURVE",
"170 589 CURVE SMOOTH",
"89 589 OFFCURVE",
"38 526 OFFCURVE",
"38 427 CURVE SMOOTH",
"38 151 LINE SMOOTH",
"38 48 OFFCURVE",
"86 -11 OFFCURVE",
"169 -11 CURVE SMOOTH"
);
},
{
closed = 1;
nodes = (
"230 99 OFFCURVE",
"218 118 OFFCURVE",
"218 140 CURVE SMOOTH",
"218 436 LINE SMOOTH",
"218 463 OFFCURVE",
"230 482 OFFCURVE",
"254 482 CURVE SMOOTH",
"264 482 OFFCURVE",
"275 479 OFFCURVE",
"286 473 CURVE",
"286 112 LINE",
"273 104 OFFCURVE",
"261 99 OFFCURVE",
"252 99 CURVE SMOOTH"
);
}
);
width = 513;
}
);
leftKerningGroup = o;
rightKerningGroup = d;
unicode = 0111;
userData = {
com.fontlab.hintData = {
hhints = (
{
position = -22;
width = 226;
},
{
position = 986;
width = 220;
}
);
};
com.typemytype.robofont.layerData = {
b = {
anchors = (
);
components = (
);
contours = (
);
lib = {
};
name = dcroat;
unicodes = (
);
width = 1055;
};
};
};
},
{
glyphname = e;
layers = (
{
anchors = (
{
name = bottom;
position = "{242, 0}";
},
{
name = ogonek;
position = "{276, 10}";
},
{
name = top;
position = "{246, 578}";
}
);
layerId = "3FB85DAF-C7EF-4F81-BE96-1E190958879E";
paths = (
{
closed = 1;
nodes = (
"368 -11 OFFCURVE",
"448 46 OFFCURVE",
"448 163 CURVE SMOOTH",
"448 230 LINE",
"284 230 LINE",
"284 161 LINE SMOOTH",
"284 123 OFFCURVE",
"264 116 OFFCURVE",
"247 116 CURVE SMOOTH",
"230 116 OFFCURVE",
"215 129 OFFCURVE",
"215 167 CURVE SMOOTH",
"215 277 LINE",
"448 277 LINE",
"448 413 LINE SMOOTH",
"448 530 OFFCURVE",
"370 589 OFFCURVE",
"247 589 CURVE SMOOTH",
"125 589 OFFCURVE",
"38 522 OFFCURVE",
"38 406 CURVE SMOOTH",
"38 172 LINE SMOOTH",
"38 56 OFFCURVE",
"125 -11 OFFCURVE",
"247 -11 CURVE SMOOTH"
);
},
{
closed = 1;
nodes = (
"215 412 LINE SMOOTH",
"215 451 OFFCURVE",
"231 462 OFFCURVE",
"247 462 CURVE SMOOTH",
"264 462 OFFCURVE",
"284 456 OFFCURVE",
"284 417 CURVE SMOOTH",
"284 358 LINE",
"215 358 LINE"
);
}
);
width = 484;
}
);
leftKerningGroup = o;
rightKerningGroup = e;
unicode = 0065;
userData = {
com.fontlab.hintData = {
hhints = (
{
position = -22;
width = 263;
},
{
position = 943;
width = 263;
}
);
vhints = (
{
position = 72;
width = 368;
}
);
};
com.typemytype.robofont.layerData = {
b = {
anchors = (
);
components = (
);
contours = (
);
lib = {
};
name = e;
unicodes = (
);
width = 996;
};
};
};
},
{
glyphname = schwa;
layers = (
{
layerId = "3FB85DAF-C7EF-4F81-BE96-1E190958879E";
paths = (
{
closed = 1;
nodes = (
"359 -13 OFFCURVE",
"446 54 OFFCURVE",
"446 170 CURVE SMOOTH",
"446 406 LINE SMOOTH",
"446 522 OFFCURVE",
"359 589 OFFCURVE",
"237 589 CURVE SMOOTH",
"116 589 OFFCURVE",
"36 532 OFFCURVE",
"36 415 CURVE SMOOTH",
"36 348 LINE",
"200 348 LINE",
"200 417 LINE SMOOTH",
"200 455 OFFCURVE",
"220 462 OFFCURVE",
"237 462 CURVE SMOOTH",
"254 462 OFFCURVE",
"269 449 OFFCURVE",
"269 411 CURVE SMOOTH",
"269 299 LINE",
"36 299 LINE",
"36 163 LINE SMOOTH",
"36 46 OFFCURVE",
"114 -13 OFFCURVE",
"237 -13 CURVE SMOOTH"
);
},
{
closed = 1;
nodes = (
"220 114 OFFCURVE",
"200 120 OFFCURVE",
"200 159 CURVE SMOOTH",
"200 218 LINE",
"269 218 LINE",
"269 164 LINE SMOOTH",
"269 125 OFFCURVE",
"253 114 OFFCURVE",
"237 114 CURVE SMOOTH"
);
}
);
width = 484;
}
);
leftMetricsKey = "=|e";
rightKerningGroup = o;
rightMetricsKey = "=|e";
unicode = 0259;
},
{
color = 4;
glyphname = ezh;
layers = (
{
anchors = (
{
name = bottom;
position = "{247, 0}";
},
{
name = top;
position = "{247, 578}";
}
);
layerId = "3FB85DAF-C7EF-4F81-BE96-1E190958879E";
paths = (
{
closed = 1;
nodes = (
"409 -207 OFFCURVE",
"467 -99 OFFCURVE",
"467 51 CURVE SMOOTH",
"467 214 OFFCURVE",
"420 299 OFFCURVE",
"241 299 CURVE SMOOTH",
"195 299 LINE",
"249 260 LINE",
"421 467 LINE",
"421 578 LINE",
"56 578 LINE",
"56 448 LINE",
"281 448 LINE",
"266 481 LINE",
"128 311 LINE",
"128 209 LINE",
"181 209 LINE SMOOTH",
"271 209 OFFCURVE",
"287 171 OFFCURVE",
"287 45 CURVE SMOOTH",
"287 -49 OFFCURVE",
"280 -86 OFFCURVE",
"244 -86 CURVE SMOOTH",
"207 -86 OFFCURVE",
"195 -53 OFFCURVE",
"195 58 CURVE SMOOTH",
"195 71 OFFCURVE",
"195 89 OFFCURVE",
"195 90 CURVE",
"20 90 LINE",
"20 61 LINE SMOOTH",
"20 -97 OFFCURVE",
"70 -207 OFFCURVE",
"241 -207 CURVE SMOOTH"
);
}
);
width = 493;
}
);
leftKerningGroup = ezh;
rightKerningGroup = ezh;
unicode = 0292;
},
{
glyphname = f;
layers = (
{
anchors = (
{
name = bottom;
position = "{165, 0}";
},
{
name = top;
position = "{196, 788}";
}
);
layerId = "3FB85DAF-C7EF-4F81-BE96-1E190958879E";
paths = (
{
closed = 1;
nodes = (
"246 0 LINE",
"246 459 LINE",
"315 459 LINE",
"315 578 LINE",
"246 578 LINE",
"246 624 LINE SMOOTH",
"246 652 OFFCURVE",
"263 660 OFFCURVE",
"282 660 CURVE SMOOTH",
"294 660 OFFCURVE",
"307 657 OFFCURVE",
"315 655 CURVE",
"315 788 LINE",
"285 792 OFFCURVE",
"259 793 OFFCURVE",
"235 793 CURVE SMOOTH",
"86 793 OFFCURVE",
"67 725 OFFCURVE",
"67 625 CURVE SMOOTH",
"67 578 LINE",
"16 578 LINE",
"16 459 LINE",
"67 459 LINE",
"67 0 LINE"
);
}
);
width = 330;
}
);
leftKerningGroup = f;
rightKerningGroup = f;
unicode = 0066;
userData = {
com.fontlab.hintData = {
hhints = (
{
position = 1348;
width = 277;
}
);
vhints = (
{
position = 16;
width = 615;
}
);
};
com.typemytype.robofont.layerData = {
b = {
anchors = (
);
components = (
);
contours = (
);
lib = {
};
name = f;
unicodes = (
);
width = 679;
};
};
};
},
{
glyphname = g;
layers = (
{
anchors = (
{
name = bottom;
position = "{260, 0}";
},
{
name = top;
position = "{260, 578}";
}
);
layerId = "3FB85DAF-C7EF-4F81-BE96-1E190958879E";
paths = (
{
closed = 1;
nodes = (
"440 -206 OFFCURVE",
"510 -144 OFFCURVE",
"510 -28 CURVE SMOOTH",
"510 56 OFFCURVE",
"466 114 OFFCURVE",
"364 128 CURVE SMOOTH",
"216 148 LINE SMOOTH",
"173 154 OFFCURVE",
"159 163 OFFCURVE",
"159 179 CURVE SMOOTH",
"159 196 OFFCURVE",
"167 206 OFFCURVE",
"185 224 CURVE",
"122 257 LINE",
"75 219 OFFCURVE",
"44 176 OFFCURVE",
"44 131 CURVE SMOOTH",
"44 70 OFFCURVE",
"85 30 OFFCURVE",
"151 22 CURVE SMOOTH",
"300 3 LINE SMOOTH",
"354 -4 OFFCURVE",
"372 -11 OFFCURVE",
"372 -36 CURVE SMOOTH",
"372 -67 OFFCURVE",
"335 -73 OFFCURVE",
"274 -73 CURVE SMOOTH",
"196 -73 OFFCURVE",
"165 -60 OFFCURVE",
"165 -32 CURVE SMOOTH",
"165 -6 OFFCURVE",
"182 11 OFFCURVE",
"204 27 CURVE",
"137 38 LINE",
"70 13 OFFCURVE",
"26 -27 OFFCURVE",
"26 -86 CURVE SMOOTH",
"26 -166 OFFCURVE",
"112 -206 OFFCURVE",
"249 -206 CURVE SMOOTH"
);
},
{
closed = 1;
nodes = (
"396 190 OFFCURVE",
"471 261 OFFCURVE",
"471 389 CURVE SMOOTH",
"471 521 OFFCURVE",
"392 589 OFFCURVE",
"261 589 CURVE SMOOTH",
"120 589 OFFCURVE",
"42 518 OFFCURVE",
"42 389 CURVE SMOOTH",
"42 261 OFFCURVE",
"120 190 OFFCURVE",
"261 190 CURVE SMOOTH"
);
},
{
closed = 1;
nodes = (
"231 293 OFFCURVE",
"223 314 OFFCURVE",
"223 389 CURVE SMOOTH",
"223 464 OFFCURVE",
"231 485 OFFCURVE",
"261 485 CURVE SMOOTH",
"291 485 OFFCURVE",
"299 464 OFFCURVE",
"299 389 CURVE SMOOTH",
"299 314 OFFCURVE",
"291 293 OFFCURVE",
"261 293 CURVE SMOOTH"
);
},
{
closed = 1;
nodes = (
"465 507 OFFCURVE",
"516 532 OFFCURVE",
"535 539 CURVE",
"494 620 LINE",
"440 594 OFFCURVE",
"418 579 OFFCURVE",
"395 534 CURVE",
"432 489 LINE"
);
}
);
width = 520;
}
);
leftKerningGroup = g;
rightKerningGroup = g;
unicode = 0067;
userData = {
com.fontlab.hintData = {
hhints = (
{
position = -352;
width = 217;
},
{
position = 368;
width = 213;
},
{
position = 992;
width = 214;
}
);
vhints = (
{
position = 42;
width = 353;
},
{
position = 73;
width = 378;
},
{
position = 602;
width = 358;
}
);
};
com.typemytype.robofont.layerData = {
b = {
anchors = (
);
components = (
);
contours = (
);
lib = {
};
name = g;
unicodes = (
);
width = 873;
};
};
};
},
{
color = 4;
glyphname = gstroke;
layers = (
{
anchors = (
{
name = bottom;
position = "{260, 0}";
},
{
name = top;
position = "{260, 578}";
}
);
layerId = "3FB85DAF-C7EF-4F81-BE96-1E190958879E";
paths = (
{
closed = 1;
nodes = (
"440 -206 OFFCURVE",
"510 -144 OFFCURVE",
"510 -28 CURVE SMOOTH",
"510 76 OFFCURVE",
"464 133 OFFCURVE",
"362 145 CURVE SMOOTH",
"193 165 LINE SMOOTH",
"150 170 OFFCURVE",
"136 173 OFFCURVE",
"136 185 CURVE SMOOTH",
"136 194 OFFCURVE",
"141 201 OFFCURVE",
"150 209 CURVE",
"181 197 OFFCURVE",
"218 190 OFFCURVE",
"261 190 CURVE SMOOTH",
"396 190 OFFCURVE",
"471 261 OFFCURVE",
"471 389 CURVE SMOOTH",
"471 431 OFFCURVE",
"463 467 OFFCURVE",
"447 497 CURVE",
"479 514 OFFCURVE",
"519 533 OFFCURVE",
"535 539 CURVE",
"494 620 LINE",
"471 609 LINE SMOOTH",
"442 595 OFFCURVE",
"420 576 OFFCURVE",
"403 549 CURVE",
"368 575 OFFCURVE",
"320 589 OFFCURVE",
"261 589 CURVE SMOOTH",
"120 589 OFFCURVE",
"42 518 OFFCURVE",
"42 389 CURVE SMOOTH",
"42 327 OFFCURVE",
"60 278 OFFCURVE",
"95 245 CURVE",
"56 211 OFFCURVE",
"31 178 OFFCURVE",
"31 131 CURVE SMOOTH",
"31 95 OFFCURVE",
"63 65 OFFCURVE",
"116 49 CURVE",
"60 24 OFFCURVE",
"26 -17 OFFCURVE",
"26 -72 CURVE SMOOTH",
"26 -166 OFFCURVE",
"112 -206 OFFCURVE",
"249 -206 CURVE SMOOTH"
);
},
{
closed = 1;
nodes = (
"546 -51 LINE",
"546 0 LINE",
"-7 0 LINE",
"-7 -51 LINE"
);
},
{
closed = 1;
nodes = (
"175 -87 OFFCURVE",
"149 -63 OFFCURVE",
"149 -21 CURVE SMOOTH",
"149 3 OFFCURVE",
"167 22 OFFCURVE",
"188 37 CURVE",
"300 25 LINE SMOOTH",
"367 18 OFFCURVE",
"389 11 OFFCURVE",
"389 -25 CURVE SMOOTH",
"389 -71 OFFCURVE",
"354 -87 OFFCURVE",
"274 -87 CURVE SMOOTH"
);
},
{
closed = 1;
nodes = (
"231 293 OFFCURVE",
"223 314 OFFCURVE",
"223 389 CURVE SMOOTH",
"223 464 OFFCURVE",
"231 485 OFFCURVE",
"261 485 CURVE SMOOTH",
"291 485 OFFCURVE",
"299 464 OFFCURVE",
"299 389 CURVE SMOOTH",
"299 314 OFFCURVE",
"291 293 OFFCURVE",
"261 293 CURVE SMOOTH"
);
}
);
width = 520;
}
);
leftKerningGroup = g;
rightKerningGroup = g;
unicode = 01E5;
},
{
glyphname = h;
layers = (
{
anchors = (
{
name = bottom;
position = "{264, 0}";
},
{
name = center;
position = "{264, 289}";
},
{
name = top;
position = "{140, 810}";
}
);
layerId = "3FB85DAF-C7EF-4F81-BE96-1E190958879E";
paths = (
{
closed = 1;
nodes = (
"229 0 LINE",
"229 448 LINE",
"247 459 OFFCURVE",
"263 464 OFFCURVE",
"274 464 CURVE SMOOTH",
"296 464 OFFCURVE",
"303 452 OFFCURVE",
"303 428 CURVE SMOOTH",
"303 0 LINE",
"481 0 LINE",
"481 449 LINE SMOOTH",
"481 532 OFFCURVE",
"439 589 OFFCURVE",
"369 589 CURVE SMOOTH",
"319 589 OFFCURVE",
"273 574 OFFCURVE",
"229 529 CURVE",
"229 810 LINE",
"50 810 LINE",
"50 0 LINE"
);
}
);
width = 528;
}
);
leftKerningGroup = h;
rightKerningGroup = n;
unicode = 0068;
userData = {
com.typemytype.robofont.layerData = {
b = {
anchors = (
);
components = (
);
contours = (
);
lib = {
};
name = h;
unicodes = (
);
width = 1087;
};
};
};
},
{
glyphname = hbar;
layers = (
{
layerId = "3FB85DAF-C7EF-4F81-BE96-1E190958879E";
paths = (
{
closed = 1;
nodes = (
"230 0 LINE",
"230 448 LINE",
"248 459 OFFCURVE",
"264 464 OFFCURVE",
"275 464 CURVE SMOOTH",
"297 464 OFFCURVE",
"304 452 OFFCURVE",
"304 428 CURVE SMOOTH",
"304 0 LINE",
"482 0 LINE",
"482 449 LINE SMOOTH",
"482 532 OFFCURVE",
"440 589 OFFCURVE",
"370 589 CURVE SMOOTH",
"320 589 OFFCURVE",
"274 574 OFFCURVE",
"230 529 CURVE",
"230 666 LINE",
"346 666 LINE",
"346 745 LINE",
"230 745 LINE",
"230 810 LINE",
"51 810 LINE",
"51 745 LINE",
"9 745 LINE",
"9 666 LINE",
"51 666 LINE",
"51 0 LINE"
);
}
);
width = 529;
}
);
leftKerningGroup = h;
rightKerningGroup = n;
unicode = 0127;
userData = {
com.typemytype.robofont.layerData = {
b = {
anchors = (
);
components = (
);
contours = (
);
lib = {
};
name = hbar;
unicodes = (
);
width = 1089;
};
};
};
},
{
glyphname = i;
layers = (
{
anchors = (
{
name = bottom;
position = "{138, 0}";
},
{
name = ogonek;
position = "{139, 0}";
}
);
layerId = "3FB85DAF-C7EF-4F81-BE96-1E190958879E";
paths = (
{
closed = 1;
nodes = (
"229 0 LINE",
"229 578 LINE",
"49 578 LINE",
"49 0 LINE"
);
},
{
closed = 1;
nodes = (
"229 679 LINE",
"229 793 LINE",
"48 793 LINE",
"48 679 LINE"
);
}
);
width = 276;
}
);
leftKerningGroup = i;
rightKerningGroup = i;
unicode = 0069;
userData = {
com.typemytype.robofont.layerData = {
b = {
anchors = (
);
components = (
);
contours = (
);
lib = {
};
name = i;
unicodes = (
);
width = 570;
};
};
};
},
{
glyphname = idotless;
layers = (
{
anchors = (
{
name = bottom;
position = "{149, 0}";
},
{
name = ogonek;
position = "{156, 0}";
},
{
name = top;
position = "{149, 578}";
}
);
layerId = "3FB85DAF-C7EF-4F81-BE96-1E190958879E";
paths = (
{
closed = 1;
nodes = (
"238 0 LINE",
"238 578 LINE",
"59 578 LINE",
"59 0 LINE"
);
}
);
width = 296;
}
);
leftKerningGroup = i;
rightKerningGroup = i;
unicode = 0131;
userData = {
com.fontlab.hintData = {
vhints = (
{
position = 120;
width = 372;
}
);
};
};
},
{
glyphname = j;
layers = (
{
layerId = "3FB85DAF-C7EF-4F81-BE96-1E190958879E";
paths = (
{
closed = 1;
nodes = (
"182 -190 OFFCURVE",
"232 -122 OFFCURVE",
"232 -31 CURVE SMOOTH",
"232 578 LINE",
"53 578 LINE",
"53 -8 LINE SMOOTH",
"53 -42 OFFCURVE",
"35 -51 OFFCURVE",
"13 -51 CURVE SMOOTH",
"4 -51 OFFCURVE",
"-6 -49 OFFCURVE",
"-16 -47 CURVE",
"-16 -175 LINE",
"14 -184 OFFCURVE",
"46 -190 OFFCURVE",
"80 -190 CURVE SMOOTH"
);
},
{
closed = 1;
nodes = (
"232 679 LINE",
"232 793 LINE",
"52 793 LINE",
"52 679 LINE"
);
}
);
width = 280;
}
);
leftKerningGroup = j;
rightKerningGroup = j;
unicode = 006A;
userData = {
com.fontlab.hintData = {
hhints = (
{
position = -393;
width = 289;
}
);
};
com.typemytype.robofont.layerData = {
b = {
anchors = (
);
components = (
);
contours = (
);
lib = {
};
name = j;
unicodes = (
);
width = 598;
};
};
};
},
{
glyphname = jdotless;
layers = (
{
anchors = (
{
name = bottom;
position = "{153, -190}";
},
{
name = top;
position = "{153, 578}";
}
);
layerId = "3FB85DAF-C7EF-4F81-BE96-1E190958879E";
paths = (
{
closed = 1;
nodes = (
"192 -190 OFFCURVE",
"242 -122 OFFCURVE",
"242 -31 CURVE SMOOTH",
"242 578 LINE",
"63 578 LINE",
"63 -8 LINE SMOOTH",
"63 -42 OFFCURVE",
"45 -51 OFFCURVE",
"23 -51 CURVE SMOOTH",
"14 -51 OFFCURVE",
"4 -49 OFFCURVE",
"-6 -47 CURVE",
"-6 -175 LINE",
"24 -184 OFFCURVE",
"56 -190 OFFCURVE",
"90 -190 CURVE SMOOTH"
);
}
);
width = 290;
}
);
leftKerningGroup = j;
rightKerningGroup = j;
unicode = 0237;
},
{
glyphname = k;
layers = (
{
anchors = (
{
name = bottom;
position = "{273, 0}";
},
{
name = top;
position = "{345, 749}";
}
);
layerId = "3FB85DAF-C7EF-4F81-BE96-1E190958879E";
paths = (
{
closed = 1;
nodes = (
"221 0 LINE",
"221 219 LINE",
"253 269 LINE",
"333 0 LINE",
"529 0 LINE",
"389 338 LINE",
"529 578 LINE",
"328 578 LINE",
"221 370 LINE",
"221 810 LINE",
"50 810 LINE",
"50 0 LINE"
);
}
);
width = 534;
}
);
leftKerningGroup = h;
rightKerningGroup = k;
unicode = 006B;
userData = {
com.typemytype.robofont.layerData = {
b = {
anchors = (
);
components = (
);
contours = (
);
lib = {
};
name = k;
unicodes = (
);
width = 1187;
};
};
};
},
{
glyphname = kgreenlandic;
layers = (
{
layerId = "3FB85DAF-C7EF-4F81-BE96-1E190958879E";
paths = (
{
closed = 1;
nodes = (
"226 0 LINE",
"226 238 LINE",
"244 262 LINE",
"334 0 LINE",
"524 0 LINE",
"407 310 LINE",
"521 578 LINE",
"326 578 LINE",
"226 341 LINE",
"226 578 LINE",
"47 578 LINE",
"47 0 LINE"
);
}
);
width = 531;
}
);
leftKerningGroup = n;
rightKerningGroup = k;
unicode = 0138;
userData = {
com.typemytype.robofont.layerData = {
b = {
anchors = (
);
components = (
);
contours = (
);
lib = {
};
name = kgreenlandic;
unicodes = (
);
width = 1095;
};
};
};
},
{
glyphname = l;
layers = (
{
anchors = (
{
name = bottom;
position = "{145, 0}";
},
{
name = center;
position = "{144, 289}";
},
{
name = top;
position = "{145, 810}";
},
{
name = topright;
position = "{284, 810}";
}
);
layerId = "3FB85DAF-C7EF-4F81-BE96-1E190958879E";
paths = (
{
closed = 1;
nodes = (
"234 0 LINE",
"234 810 LINE",
"56 810 LINE",
"56 0 LINE"
);
}
);
width = 287;
}
);
leftKerningGroup = l;
rightKerningGroup = l;
unicode = 006C;
userData = {
com.fontlab.hintData = {
vhints = (
{
position = 88;
width = 372;
}
);
};
com.typemytype.robofont.layerData = {
b = {
anchors = (
);
components = (
);
contours = (
);
lib = {
};
name = l;
unicodes = (
);
width = 344;
};
};
};
},
{
glyphname = lslash;
layers = (
{
layerId = "3FB85DAF-C7EF-4F81-BE96-1E190958879E";
paths = (
{
closed = 1;
nodes = (
"266 0 LINE",
"266 489 LINE",
"347 522 LINE",
"347 616 LINE",
"266 582 LINE",
"266 810 LINE",
"87 810 LINE",
"87 507 LINE",
"21 479 LINE",
"21 385 LINE",
"87 413 LINE",
"87 0 LINE"
);
}
);
width = 353;
}
);
leftKerningGroup = l;
unicode = 0142;
userData = {
com.fontlab.hintData = {
vhints = (
{
position = 44;
width = 673;
}
);
};
};
},
{
glyphname = m;
layers = (
{
anchors = (
{
name = bottom;
position = "{387, 0}";
},
{
name = top;
position = "{387, 578}";
}
);
layerId = "3FB85DAF-C7EF-4F81-BE96-1E190958879E";
paths = (
{
closed = 1;
nodes = (
"228 0 LINE",
"228 451 LINE",
"244 460 OFFCURVE",
"261 465 OFFCURVE",
"271 465 CURVE SMOOTH",
"292 465 OFFCURVE",
"302 453 OFFCURVE",
"302 428 CURVE SMOOTH",
"302 0 LINE",
"478 0 LINE",
"478 448 LINE SMOOTH",
"478 449 OFFCURVE",
"478 450 OFFCURVE",
"478 452 CURVE",
"493 460 OFFCURVE",
"511 465 OFFCURVE",
"521 465 CURVE SMOOTH",
"542 465 OFFCURVE",
"550 453 OFFCURVE",
"550 428 CURVE SMOOTH",
"550 0 LINE",
"728 0 LINE",
"728 448 LINE SMOOTH",
"728 533 OFFCURVE",
"685 589 OFFCURVE",
"614 589 CURVE SMOOTH",
"563 589 OFFCURVE",
"512 573 OFFCURVE",
"465 522 CURVE",
"447 564 OFFCURVE",
"412 589 OFFCURVE",
"365 589 CURVE SMOOTH",
"317 589 OFFCURVE",
"271 575 OFFCURVE",
"228 534 CURVE",
"228 578 LINE",
"50 578 LINE",
"50 0 LINE"
);
}
);
width = 774;
}
);
leftKerningGroup = n;
rightKerningGroup = n;
unicode = 006D;
userData = {
com.typemytype.robofont.layerData = {
b = {
anchors = (
);
components = (
);
contours = (
);
lib = {
};
name = m;
unicodes = (
);
width = 1593;
};
};
};
},
{
glyphname = n;
layers = (
{
anchors = (
{
name = bottom;
position = "{264, 0}";
},
{
name = top;
position = "{264, 578}";
}
);
layerId = "3FB85DAF-C7EF-4F81-BE96-1E190958879E";
paths = (
{
closed = 1;
nodes = (
"229 0 LINE",
"229 448 LINE",
"247 459 OFFCURVE",
"263 464 OFFCURVE",
"274 464 CURVE SMOOTH",
"295 464 OFFCURVE",
"302 452 OFFCURVE",
"302 428 CURVE SMOOTH",
"302 0 LINE",
"481 0 LINE",
"481 449 LINE SMOOTH",
"481 532 OFFCURVE",
"439 589 OFFCURVE",
"368 589 CURVE SMOOTH",
"318 589 OFFCURVE",
"273 564 OFFCURVE",
"229 520 CURVE",
"229 578 LINE",
"50 578 LINE",
"50 0 LINE"
);
}
);
width = 527;
}
);
leftKerningGroup = n;
rightKerningGroup = n;
unicode = 006E;
userData = {
com.fontlab.hintData = {
};
com.typemytype.robofont.layerData = {
b = {
anchors = (
);
components = (
);
contours = (
);
lib = {
};
name = n;
unicodes = (
);
width = 1087;
};
};
hhints = {
};
position = 585;
vhints = {
};
width = 65;
};
},
{
glyphname = eng;
layers = (
{
layerId = "3FB85DAF-C7EF-4F81-BE96-1E190958879E";
paths = (
{
closed = 1;
nodes = (
"252 -198 LINE SMOOTH",
"426 -198 OFFCURVE",
"473 -147 OFFCURVE",
"473 -6 CURVE SMOOTH",
"473 449 LINE SMOOTH",
"473 532 OFFCURVE",
"431 589 OFFCURVE",
"360 589 CURVE SMOOTH",
"310 589 OFFCURVE",
"265 574 OFFCURVE",
"221 529 CURVE",
"221 578 LINE",
"42 578 LINE",
"42 0 LINE",
"221 0 LINE",
"221 448 LINE",
"238 459 OFFCURVE",
"254 464 OFFCURVE",
"266 464 CURVE SMOOTH",
"287 464 OFFCURVE",
"294 452 OFFCURVE",
"294 428 CURVE SMOOTH",
"294 -5 LINE SMOOTH",
"294 -74 OFFCURVE",
"275 -89 OFFCURVE",
"185 -89 CURVE",
"185 -198 LINE"
);
}
);
width = 502;
}
);
leftKerningGroup = n;
rightKerningGroup = j;
unicode = 014B;
userData = {
com.fontlab.hintData = {
};
hhints = {
};
position = -406;
width = 237;
};
},
{
glyphname = o;
layers = (
{
anchors = (
{
name = bottom;
position = "{250, 0}";
},
{
name = center;
position = "{250, 289}";
},
{
name = ogonek;
position = "{280, 0}";
},
{
name = top;
position = "{249, 578}";
},
{
name = topright;
position = "{285, 578}";
}
);
layerId = "3FB85DAF-C7EF-4F81-BE96-1E190958879E";
paths = (
{
closed = 1;
nodes = (
"371 -11 OFFCURVE",
"462 47 OFFCURVE",
"462 172 CURVE SMOOTH",
"462 406 LINE SMOOTH",
"462 531 OFFCURVE",
"371 589 OFFCURVE",
"249 589 CURVE SMOOTH",
"127 589 OFFCURVE",
"38 531 OFFCURVE",
"38 406 CURVE SMOOTH",
"38 172 LINE SMOOTH",
"38 47 OFFCURVE",
"127 -11 OFFCURVE",
"249 -11 CURVE SMOOTH"
);
},
{
closed = 1;
nodes = (
"227 106 OFFCURVE",
"214 122 OFFCURVE",
"214 159 CURVE SMOOTH",
"214 419 LINE SMOOTH",
"214 456 OFFCURVE",
"227 472 OFFCURVE",
"250 472 CURVE SMOOTH",
"274 472 OFFCURVE",
"286 457 OFFCURVE",
"286 419 CURVE SMOOTH",
"286 159 LINE SMOOTH",
"286 121 OFFCURVE",
"274 106 OFFCURVE",
"250 106 CURVE SMOOTH"
);
}
);
width = 500;
}
);
leftKerningGroup = o;
rightKerningGroup = o;
unicode = 006F;
userData = {
com.fontlab.hintData = {
};
com.typemytype.robofont.layerData = {
b = {
anchors = (
);
components = (
);
contours = (
);
lib = {
};
name = o;
unicodes = (
);
width = 1031;
};
};
hhints = {
};
position = 590;
vhints = {
};
width = 64;
};
},
{
glyphname = oslash;
layers = (
{
anchors = (
{
name = top;
position = "{247, 578}";
}
);
components = (
{
name = o;
}
);
layerId = "3FB85DAF-C7EF-4F81-BE96-1E190958879E";
paths = (
{
closed = 1;
nodes = (
"417 657 LINE",
"378 674 LINE",
"68 -70 LINE",
"106 -87 LINE"
);
}
);
width = 493;
}
);
leftKerningGroup = o;
rightKerningGroup = o;
unicode = 00F8;
userData = {
com.fontlab.hintData = {
hhints = (
{
position = -22;
width = 263;
},
{
position = 943;
width = 263;
}
);
vhints = (
{
position = 72;
width = 366;
}
);
};
com.typemytype.robofont.layerData = {
b = {
anchors = (
);
components = (
);
contours = (
);
lib = {
};
name = oslash;
unicodes = (
);
width = 750;
};
};
};
},
{
glyphname = oe;
layers = (
{
anchors = (
{
name = bottom;
position = "{356, 0}";
},
{
name = top;
position = "{356, 578}";
}
);
layerId = "3FB85DAF-C7EF-4F81-BE96-1E190958879E";
paths = (
{
closed = 1;
nodes = (
"289 -14 OFFCURVE",
"336 17 OFFCURVE",
"360 59 CURVE",
"380 13 OFFCURVE",
"436 -14 OFFCURVE",
"509 -14 CURVE SMOOTH",
"621 -14 OFFCURVE",
"682 50 OFFCURVE",
"682 148 CURVE SMOOTH",
"682 235 LINE",
"516 235 LINE",
"516 147 LINE SMOOTH",
"516 111 OFFCURVE",
"510 91 OFFCURVE",
"491 91 CURVE SMOOTH",
"473 91 OFFCURVE",
"464 115 OFFCURVE",
"464 152 CURVE SMOOTH",
"464 274 LINE",
"682 274 LINE",
"682 417 LINE SMOOTH",
"682 526 OFFCURVE",
"632 606 OFFCURVE",
"504 606 CURVE SMOOTH",
"458 606 OFFCURVE",
"385 583 OFFCURVE",
"365 531 CURVE",
"346 583 OFFCURVE",
"270 606 OFFCURVE",
"220 606 CURVE SMOOTH",
"118 606 OFFCURVE",
"36 557 OFFCURVE",
"36 441 CURVE SMOOTH",
"36 165 LINE SMOOTH",
"36 40 OFFCURVE",
"122 -14 OFFCURVE",
"207 -14 CURVE SMOOTH"
);
},
{
closed = 1;
nodes = (
"224 91 OFFCURVE",
"212 117 OFFCURVE",
"212 160 CURVE SMOOTH",
"212 451 LINE SMOOTH",
"212 494 OFFCURVE",
"229 503 OFFCURVE",
"244 503 CURVE SMOOTH",
"260 503 OFFCURVE",
"276 492 OFFCURVE",
"276 451 CURVE SMOOTH",
"276 159 LINE SMOOTH",
"276 98 OFFCURVE",
"257 91 OFFCURVE",
"241 91 CURVE SMOOTH"
);
},
{
closed = 1;
nodes = (
"464 465 LINE SMOOTH",
"464 494 OFFCURVE",
"481 503 OFFCURVE",
"490 503 CURVE SMOOTH",
"501 503 OFFCURVE",
"518 491 OFFCURVE",
"518 465 CURVE SMOOTH",
"518 370 LINE",
"464 370 LINE"
);
}
);
width = 711;
}
);
leftKerningGroup = o;
rightKerningGroup = e;
unicode = 0153;
userData = {
com.fontlab.hintData = {
hhints = (
{
position = -28;
width = 214;
},
{
position = 1032;
width = 212;
}
);
vhints = (
{
position = 72;
width = 365;
},
{
position = 564;
width = 392;
},
{
position = 1061;
width = 339;
}
);
};
};
},
{
glyphname = p;
layers = (
{
anchors = (
{
name = bottom;
position = "{261, 0}";
},
{
name = top;
position = "{261, 578}";
}
);
layerId = "3FB85DAF-C7EF-4F81-BE96-1E190958879E";
paths = (
{
closed = 1;
nodes = (
"229 -190 LINE",
"229 44 LINE",
"271 9 OFFCURVE",
"317 -11 OFFCURVE",
"359 -11 CURVE SMOOTH",
"432 -11 OFFCURVE",
"480 48 OFFCURVE",
"480 151 CURVE SMOOTH",
"480 432 LINE SMOOTH",
"480 533 OFFCURVE",
"437 588 OFFCURVE",
"359 589 CURVE SMOOTH",
"321 589 OFFCURVE",
"273 574 OFFCURVE",
"229 537 CURVE",
"229 578 LINE",
"50 578 LINE",
"50 -190 LINE"
);
},
{
closed = 1;
nodes = (
"253 101 OFFCURVE",
"241 105 OFFCURVE",
"229 112 CURVE",
"229 470 LINE",
"241 480 OFFCURVE",
"254 487 OFFCURVE",
"267 487 CURVE SMOOTH",
"288 487 OFFCURVE",
"301 470 OFFCURVE",
"301 448 CURVE SMOOTH",
"301 140 LINE SMOOTH",
"301 118 OFFCURVE",
"286 101 OFFCURVE",
"263 101 CURVE SMOOTH"
);
}
);
width = 522;
}
);
leftKerningGroup = p;
rightKerningGroup = o;
unicode = 0070;
userData = {
com.typemytype.robofont.layerData = {
b = {
anchors = (
);
components = (
);
contours = (
);
lib = {
};
name = p;
unicodes = (
);
width = 1075;
};
};
};
},
{
glyphname = thorn;
layers = (
{
layerId = "3FB85DAF-C7EF-4F81-BE96-1E190958879E";
paths = (
{
closed = 1;
nodes = (
"223 -190 LINE",
"223 43 LINE",
"264 9 OFFCURVE",
"309 -11 OFFCURVE",
"351 -11 CURVE SMOOTH",
"423 -11 OFFCURVE",
"472 48 OFFCURVE",
"472 151 CURVE SMOOTH",
"472 432 LINE SMOOTH",
"472 533 OFFCURVE",
"429 589 OFFCURVE",
"352 589 CURVE SMOOTH",
"313 589 OFFCURVE",
"267 574 OFFCURVE",
"223 537 CURVE",
"223 810 LINE",
"43 810 LINE",
"43 -190 LINE"
);
},
{
closed = 1;
nodes = (
"246 101 OFFCURVE",
"234 105 OFFCURVE",
"223 112 CURVE",
"223 470 LINE",
"235 481 OFFCURVE",
"247 487 OFFCURVE",
"259 487 CURVE SMOOTH",
"280 487 OFFCURVE",
"292 470 OFFCURVE",
"292 448 CURVE SMOOTH",
"292 140 LINE SMOOTH",
"292 118 OFFCURVE",
"279 101 OFFCURVE",
"256 101 CURVE SMOOTH"
);
}
);
width = 507;
}
);
leftKerningGroup = h;
rightKerningGroup = o;
unicode = 00FE;
},
{
glyphname = q;
layers = (
{
anchors = (
{
name = bottom;
position = "{261, 0}";
},
{
name = top;
position = "{261, 578}";
}
);
layerId = "3FB85DAF-C7EF-4F81-BE96-1E190958879E";
paths = (
{
closed = 1;
nodes = (
"474 -190 LINE",
"474 578 LINE",
"295 578 LINE",
"295 539 LINE",
"259 570 OFFCURVE",
"218 589 OFFCURVE",
"173 589 CURVE SMOOTH",
"92 589 OFFCURVE",
"41 526 OFFCURVE",
"41 427 CURVE SMOOTH",
"41 151 LINE SMOOTH",
"41 48 OFFCURVE",
"89 -11 OFFCURVE",
"172 -11 CURVE SMOOTH",
"213 -11 OFFCURVE",
"255 12 OFFCURVE",
"295 51 CURVE",
"295 -190 LINE"
);
},
{
closed = 1;
nodes = (
"235 99 OFFCURVE",
"221 118 OFFCURVE",
"221 140 CURVE SMOOTH",
"221 436 LINE SMOOTH",
"221 463 OFFCURVE",
"234 482 OFFCURVE",
"259 482 CURVE SMOOTH",
"270 482 OFFCURVE",
"282 478 OFFCURVE",
"295 471 CURVE",
"295 114 LINE",
"280 105 OFFCURVE",
"267 99 OFFCURVE",
"257 99 CURVE SMOOTH"
);
}
);
width = 522;
}
);
leftKerningGroup = o;
rightKerningGroup = q;
unicode = 0071;
userData = {
com.fontlab.hintData = {
hhints = (
{
position = -22;
width = 226;
},
{
position = 986;
width = 220;
}
);
};
com.typemytype.robofont.layerData = {
b = {
anchors = (
);
components = (
);
contours = (
);
lib = {
};
name = q;
unicodes = (
);
width = 1076;
};
};
};
},
{
glyphname = r;
layers = (
{
anchors = (
{
name = bottom;
position = "{142, 0}";
},
{
name = top;
position = "{202, 578}";
}
);
layerId = "3FB85DAF-C7EF-4F81-BE96-1E190958879E";
paths = (
{
closed = 1;
nodes = (
"231 0 LINE",
"231 362 LINE",
"257 394 OFFCURVE",
"290 418 OFFCURVE",
"330 418 CURVE SMOOTH",
"350 418 OFFCURVE",
"366 413 OFFCURVE",
"381 406 CURVE",
"381 582 LINE",
"374 584 OFFCURVE",
"365 585 OFFCURVE",
"354 585 CURVE SMOOTH",
"297 585 OFFCURVE",
"266 543 OFFCURVE",
"231 478 CURVE",
"231 578 LINE",
"52 578 LINE",
"52 0 LINE"
);
}
);
width = 401;
}
);
leftKerningGroup = n;
rightKerningGroup = r;
unicode = 0072;
userData = {
com.fontlab.hintData = {
hhints = (
{
position = 880;
width = 318;
}
);
vhints = (
{
position = 86;
width = 651;
}
);
};
com.typemytype.robofont.layerData = {
b = {
anchors = (
);
components = (
);
contours = (
);
lib = {
};
name = r;
unicodes = (
);
width = 549;
};
};
};
},
{
glyphname = s;
layers = (
{
anchors = (
{
name = bottom;
position = "{219, 0}";
},
{
name = top;
position = "{219, 578}";
}
);
layerId = "3FB85DAF-C7EF-4F81-BE96-1E190958879E";
paths = (
{
closed = 1;
nodes = (
"332 -11 OFFCURVE",
"423 47 OFFCURVE",
"423 149 CURVE SMOOTH",
"423 223 OFFCURVE",
"365 272 OFFCURVE",
"312 315 CURVE SMOOTH",
"289 334 LINE SMOOTH",
"230 382 OFFCURVE",
"193 413 OFFCURVE",
"193 439 CURVE SMOOTH",
"193 455 OFFCURVE",
"203 465 OFFCURVE",
"222 465 CURVE SMOOTH",
"255 465 OFFCURVE",
"287 417 OFFCURVE",
"300 386 CURVE",
"415 441 LINE",
"383 539 OFFCURVE",
"314 589 OFFCURVE",
"218 589 CURVE SMOOTH",
"121 589 OFFCURVE",
"31 520 OFFCURVE",
"31 424 CURVE SMOOTH",
"31 351 OFFCURVE",
"71 309 OFFCURVE",
"139 252 CURVE SMOOTH",
"164 231 LINE SMOOTH",
"232 174 OFFCURVE",
"253 160 OFFCURVE",
"253 129 CURVE SMOOTH",
"253 116 OFFCURVE",
"243 108 OFFCURVE",
"222 108 CURVE SMOOTH",
"191 108 OFFCURVE",
"160 139 OFFCURVE",
"136 185 CURVE",
"18 129 LINE",
"70 25 OFFCURVE",
"138 -11 OFFCURVE",
"241 -11 CURVE SMOOTH"
);
}
);
width = 438;
}
);
leftKerningGroup = s;
rightKerningGroup = s;
unicode = 0073;
userData = {
com.fontlab.hintData = {
hhints = (
{
position = -22;
width = 249;
}
);
vhints = (
{
position = 496;
width = 353;
}
);
};
com.typemytype.robofont.layerData = {
b = {
anchors = (
);
components = (
);
contours = (
);
lib = {
};
name = s;
unicodes = (
);
width = 716;
};
};
};
},
{
glyphname = germandbls;
layers = (
{
layerId = "3FB85DAF-C7EF-4F81-BE96-1E190958879E";
paths = (
{
closed = 1;
nodes = (
"428 -17 OFFCURVE",
"535 40 OFFCURVE",
"535 204 CURVE SMOOTH",
"535 327 OFFCURVE",
"479 399 OFFCURVE",
"362 431 CURVE",
"453 465 OFFCURVE",
"486 529 OFFCURVE",
"486 602 CURVE SMOOTH",
"486 740 OFFCURVE",
"419 823 OFFCURVE",
"260 823 CURVE SMOOTH",
"95 823 OFFCURVE",
"42 703 OFFCURVE",
"42 594 CURVE SMOOTH",
"42 0 LINE",
"221 0 LINE",
"221 594 LINE SMOOTH",
"221 658 OFFCURVE",
"231 703 OFFCURVE",
"278 703 CURVE SMOOTH",
"319 703 OFFCURVE",
"338 666 OFFCURVE",
"338 598 CURVE SMOOTH",
"338 515 OFFCURVE",
"312 480 OFFCURVE",
"272 480 CURVE",
"272 345 LINE",
"327 345 OFFCURVE",
"356 303 OFFCURVE",
"356 230 CURVE SMOOTH",
"356 142 OFFCURVE",
"321 117 OFFCURVE",
"263 117 CURVE",
"263 -17 LINE"
);
}
);
width = 550;
}
);
unicode = 00DF;
userData = {
com.fontlab.hintData = {
hhints = (
{
position = 1437;
width = 249;
}
);
vhints = (
{
position = 694;
width = 306;
}
);
};
com.typemytype.robofont.layerData = {
b = {
anchors = (
);
components = (
);
contours = (
);
lib = {
};
name = germandbls;
unicodes = (
);
width = 967;
};
};
};
},
{
color = 4;
glyphname = longs;
layers = (
{
layerId = "3FB85DAF-C7EF-4F81-BE96-1E190958879E";
paths = (
{
closed = 1;
nodes = (
"246 0 LINE",
"246 624 LINE SMOOTH",
"246 652 OFFCURVE",
"263 660 OFFCURVE",
"282 660 CURVE SMOOTH",
"294 660 OFFCURVE",
"307 657 OFFCURVE",
"315 655 CURVE",
"315 788 LINE",
"285 792 OFFCURVE",
"259 793 OFFCURVE",
"235 793 CURVE SMOOTH",
"86 793 OFFCURVE",
"67 725 OFFCURVE",
"67 625 CURVE SMOOTH",
"67 578 LINE",
"16 578 LINE",
"16 459 LINE",
"67 459 LINE",
"67 0 LINE"
);
}
);
width = 330;
}
);
leftKerningGroup = f;
rightKerningGroup = f;
unicode = 017F;
},
{
glyphname = t;
layers = (
{
anchors = (
{
name = bottom;
position = "{224, 0}";
},
{
name = center;
position = "{187, 289}";
},
{
name = top;
position = "{157, 756}";
},
{
name = topright;
position = "{293, 934}";
}
);
layerId = "3FB85DAF-C7EF-4F81-BE96-1E190958879E";
paths = (
{
closed = 1;
nodes = (
"282 -6 OFFCURVE",
"329 0 OFFCURVE",
"344 3 CURVE",
"344 146 LINE",
"332 143 OFFCURVE",
"318 141 OFFCURVE",
"299 141 CURVE SMOOTH",
"273 141 OFFCURVE",
"248 154 OFFCURVE",
"248 184 CURVE SMOOTH",
"248 461 LINE",
"327 461 LINE",
"327 578 LINE",
"248 578 LINE",
"248 756 LINE",
"66 756 LINE",
"66 578 LINE",
"12 578 LINE",
"12 461 LINE",
"66 461 LINE",
"66 165 LINE SMOOTH",
"66 55 OFFCURVE",
"97 -6 OFFCURVE",
"239 -6 CURVE SMOOTH"
);
}
);
width = 364;
}
);
leftKerningGroup = t;
rightKerningGroup = t;
unicode = 0074;
userData = {
com.fontlab.hintData = {
hhints = (
{
position = -13;
width = 313;
}
);
};
com.typemytype.robofont.layerData = {
b = {
anchors = (
);
components = (
);
contours = (
);
lib = {
};
name = t;
unicodes = (
);
width = 755;
};
};
};
},
{
glyphname = tbar;
layers = (
{
components = (
{
name = t;
}
);
layerId = "3FB85DAF-C7EF-4F81-BE96-1E190958879E";
paths = (
{
closed = 1;
nodes = (
"322 292 LINE",
"322 367 LINE",
"9 367 LINE",
"9 292 LINE"
);
}
);
width = 364;
}
);
leftKerningGroup = t;
rightKerningGroup = t;
unicode = 0167;
userData = {
com.fontlab.hintData = {
hhints = (
{
position = -13;
width = 313;
}
);
};
com.typemytype.robofont.layerData = {
b = {
anchors = (
);
components = (
);
contours = (
);
lib = {
};
name = tbar;
unicodes = (
);
width = 500;
};
};
};
},
{
glyphname = u;
layers = (
{
anchors = (
{
name = bottom;
position = "{261, 0}";
},
{
name = ogonek;
position = "{383, 0}";
},
{
name = top;
position = "{261, 578}";
},
{
name = topright;
position = "{364, 578}";
}
);
layerId = "3FB85DAF-C7EF-4F81-BE96-1E190958879E";
paths = (
{
closed = 1;
nodes = (
"205 -11 OFFCURVE",
"250 12 OFFCURVE",
"293 52 CURVE",
"293 0 LINE",
"472 0 LINE",
"472 578 LINE",
"293 578 LINE",
"293 120 LINE",
"277 112 OFFCURVE",
"264 107 OFFCURVE",
"253 107 CURVE SMOOTH",
"232 107 OFFCURVE",
"223 120 OFFCURVE",
"223 144 CURVE SMOOTH",
"223 578 LINE",
"44 578 LINE",
"44 129 LINE SMOOTH",
"44 46 OFFCURVE",
"86 -11 OFFCURVE",
"157 -11 CURVE SMOOTH"
);
}
);
width = 522;
}
);
leftKerningGroup = u;
rightKerningGroup = u;
unicode = 0075;
userData = {
com.fontlab.hintData = {
hhints = (
{
position = -22;
width = 258;
}
);
};
com.typemytype.robofont.layerData = {
b = {
anchors = (
);
components = (
);
contours = (
);
lib = {
};
name = u;
unicodes = (
);
width = 1075;
};
};
};
},
{
glyphname = v;
layers = (
{
anchors = (
{
name = bottom;
position = "{216, 0}";
},
{
name = top;
position = "{216, 578}";
}
);
layerId = "3FB85DAF-C7EF-4F81-BE96-1E190958879E";
paths = (
{
closed = 1;
nodes = (
"305 0 LINE",
"427 578 LINE",
"256 578 LINE",
"220 237 LINE",
"179 578 LINE",
"9 578 LINE",
"125 0 LINE"
);
}
);
width = 432;
}
);
rightKerningGroup = v;
unicode = 0076;
userData = {
com.typemytype.robofont.layerData = {
b = {
anchors = (
);
components = (
);
contours = (
);
lib = {
};
name = v;
unicodes = (
);
width = 708;
};
};
};
},
{
glyphname = w;
layers = (
{
anchors = (
{
name = bottom;
position = "{300, 0}";
},
{
name = top;
position = "{300, 578}";
}
);
layerId = "3FB85DAF-C7EF-4F81-BE96-1E190958879E";
paths = (
{
closed = 1;
nodes = (
"252 0 LINE",
"302 301 LINE",
"343 0 LINE",
"497 0 LINE",
"581 578 LINE",
"443 578 LINE",
"398 268 LINE",
"370 578 LINE",
"242 578 LINE",
"206 278 LINE",
"169 578 LINE",
"19 578 LINE",
"102 0 LINE"
);
}
);
width = 600;
}
);
leftKerningGroup = w;
rightKerningGroup = w;
unicode = 0077;
userData = {
com.fontlab.hintData = {
vhints = (
{
position = 495;
width = 266;
}
);
};
com.typemytype.robofont.layerData = {
b = {
anchors = (
);
components = (
);
contours = (
);
lib = {
};
name = w;
unicodes = (
);
width = 1142;
};
};
};
},
{
glyphname = x;
layers = (
{
anchors = (
{
name = bottom;
position = "{229, 0}";
},
{
name = top;
position = "{229, 578}";
}
);
layerId = "3FB85DAF-C7EF-4F81-BE96-1E190958879E";
paths = (
{
closed = 1;
nodes = (
"156 0 LINE",
"208 148 LINE",
"273 0 LINE",
"457 0 LINE",
"327 293 LINE",
"436 578 LINE",
"305 578 LINE",
"256 452 LINE",
"200 578 LINE",
"19 578 LINE",
"132 321 LINE",
"11 0 LINE"
);
}
);
width = 458;
}
);
unicode = 0078;
userData = {
com.typemytype.robofont.layerData = {
b = {
anchors = (
);
components = (
);
contours = (
);
lib = {
};
name = x;
unicodes = (
);
width = 756;
};
};
};
},
{
glyphname = y;
layers = (
{
anchors = (
{
name = bottom;
position = "{428, 0}";
},
{
name = top;
position = "{232, 578}";
}
);
layerId = "3FB85DAF-C7EF-4F81-BE96-1E190958879E";
paths = (
{
closed = 1;
nodes = (
"117 -175 LINE SMOOTH",
"219 -175 OFFCURVE",
"294 -139 OFFCURVE",
"323 -9 CURVE SMOOTH",
"454 578 LINE",
"287 578 LINE",
"238 272 LINE",
"167 578 LINE",
"0 578 LINE",
"142 93 LINE SMOOTH",
"154 53 OFFCURVE",
"163 23 OFFCURVE",
"163 -2 CURVE SMOOTH",
"163 -43 OFFCURVE",
"129 -53 OFFCURVE",
"73 -53 CURVE",
"73 -175 LINE"
);
}
);
width = 464;
}
);
leftKerningGroup = v;
rightKerningGroup = v;
unicode = 0079;
userData = {
com.fontlab.hintData = {
};
hhints = {
};
position = -294;
width = 56;
};
},
{
glyphname = z;
layers = (
{
anchors = (
{
name = bottom;
position = "{203, 0}";
},
{
name = top;
position = "{203, 578}";
}
);
layerId = "3FB85DAF-C7EF-4F81-BE96-1E190958879E";
paths = (
{
closed = 1;
nodes = (
"379 0 LINE",
"379 130 LINE",
"220 130 LINE",
"375 467 LINE",
"375 578 LINE",
"46 578 LINE",
"46 448 LINE",
"190 448 LINE",
"36 115 LINE",
"36 0 LINE"
);
}
);
width = 405;
}
);
leftKerningGroup = z;
rightKerningGroup = z;
unicode = 007A;
userData = {
com.fontlab.hintData = {
vhints = (
{
position = 56;
width = 676;
}
);
};
com.typemytype.robofont.layerData = {
b = {
anchors = (
);
components = (
);
contours = (
);
lib = {
};
name = z;
unicodes = (
);
width = 648;
};
};
};
},
{
glyphname = f_f_i;
layers = (
{
layerId = "3FB85DAF-C7EF-4F81-BE96-1E190958879E";
paths = (
{
closed = 1;
nodes = (
"238 0 LINE",
"238 461 LINE",
"332 461 LINE",
"332 0 LINE",
"511 0 LINE",
"511 461 LINE",
"602 461 LINE",
"602 0 LINE",
"781 0 LINE",
"781 578 LINE",
"511 578 LINE",
"511 624 LINE SMOOTH",
"511 652 OFFCURVE",
"524 659 OFFCURVE",
"540 659 CURVE SMOOTH",
"549 659 OFFCURVE",
"560 657 OFFCURVE",
"569 655 CURVE",
"569 788 LINE",
"539 792 OFFCURVE",
"524 793 OFFCURVE",
"500 793 CURVE SMOOTH",
"351 793 OFFCURVE",
"332 725 OFFCURVE",
"332 625 CURVE SMOOTH",
"332 578 LINE",
"238 578 LINE",
"238 624 LINE SMOOTH",
"238 652 OFFCURVE",
"250 659 OFFCURVE",
"266 659 CURVE SMOOTH",
"274 659 OFFCURVE",
"284 657 OFFCURVE",
"293 655 CURVE",
"293 788 LINE",
"263 792 OFFCURVE",
"251 793 OFFCURVE",
"228 793 CURVE SMOOTH",
"78 793 OFFCURVE",
"59 725 OFFCURVE",
"59 625 CURVE SMOOTH",
"59 578 LINE",
"8 578 LINE",
"8 461 LINE",
"59 461 LINE",
"59 0 LINE"
);
},
{
closed = 1;
nodes = (
"781 679 LINE",
"781 793 LINE",
"620 793 LINE",
"620 679 LINE"
);
}
);
width = 823;
}
);
leftKerningGroup = f;
rightKerningGroup = i;
userData = {
com.fontlab.hintData = {
};
com.typemytype.robofont.layerData = {
b = {
anchors = (
);
components = (
);
contours = (
);
lib = {
};
name = uniFB03;
unicodes = (
);
width = 1351;
};
};
hhints = {
};
position = 1234;
vhints = {
};
width = 237;
};
},
{
glyphname = f_f_l;
layers = (
{
anchors = (
{
name = bottom;
position = "{165, 0}";
},
{
name = top;
position = "{196, 788}";
}
);
layerId = "3FB85DAF-C7EF-4F81-BE96-1E190958879E";
paths = (
{
closed = 1;
nodes = (
"383 809 OFFCURVE",
"366 712 OFFCURVE",
"366 625 CURVE SMOOTH",
"366 578 LINE",
"246 578 LINE",
"246 624 LINE SMOOTH",
"246 652 OFFCURVE",
"263 660 OFFCURVE",
"282 660 CURVE SMOOTH",
"294 660 OFFCURVE",
"307 657 OFFCURVE",
"315 655 CURVE",
"315 788 LINE",
"285 792 OFFCURVE",
"259 793 OFFCURVE",
"235 793 CURVE SMOOTH",
"86 793 OFFCURVE",
"67 725 OFFCURVE",
"67 625 CURVE SMOOTH",
"67 578 LINE",
"16 578 LINE",
"16 459 LINE",
"67 459 LINE",
"67 0 LINE",
"246 0 LINE",
"246 459 LINE",
"366 459 LINE",
"366 0 LINE",
"545 0 LINE",
"545 459 LINE",
"599 459 LINE",
"599 578 LINE",
"545 578 LINE",
"545 623 LINE SMOOTH",
"545 660 OFFCURVE",
"551 691 OFFCURVE",
"622 691 CURVE SMOOTH",
"631 691 OFFCURVE",
"640 691 OFFCURVE",
"650 690 CURVE",
"650 0 LINE",
"829 0 LINE",
"829 788 LINE",
"740 803 OFFCURVE",
"668 809 OFFCURVE",
"610 809 CURVE SMOOTH"
);
}
);
width = 882;
}
);
leftKerningGroup = f;
leftMetricsKey = f;
rightKerningGroup = l;
rightMetricsKey = l;
userData = {
com.fontlab.hintData = {
};
com.typemytype.robofont.layerData = {
b = {
anchors = (
);
components = (
);
contours = (
);
lib = {
};
name = uniFB04;
unicodes = (
);
width = 1589;
};
};
hhints = {
};
position = 1234;
vhints = {
};
width = 237;
};
},
{
glyphname = fi;
layers = (
{
layerId = "3FB85DAF-C7EF-4F81-BE96-1E190958879E";
paths = (
{
closed = 1;
nodes = (
"243 0 LINE",
"243 459 LINE",
"344 459 LINE",
"344 0 LINE",
"521 0 LINE",
"521 578 LINE",
"243 578 LINE",
"243 627 LINE SMOOTH",
"243 661 OFFCURVE",
"259 669 OFFCURVE",
"277 669 CURVE SMOOTH",
"284 669 OFFCURVE",
"290 668 OFFCURVE",
"296 667 CURVE",
"296 788 LINE",
"269 792 OFFCURVE",
"245 794 OFFCURVE",
"223 794 CURVE SMOOTH",
"98 794 OFFCURVE",
"64 724 OFFCURVE",
"64 625 CURVE SMOOTH",
"64 578 LINE",
"13 578 LINE",
"13 459 LINE",
"64 459 LINE",
"64 0 LINE"
);
},
{
closed = 1;
nodes = (
"521 679 LINE",
"521 793 LINE",
"354 793 LINE",
"354 679 LINE"
);
}
);
width = 569;
}
);
leftKerningGroup = f;
rightKerningGroup = i;
unicode = FB01;
userData = {
com.fontlab.hintData = {
hhints = (
{
position = 1303;
width = 277;
}
);
vhints = (
{
position = 80;
width = 32;
}
);
};
com.typemytype.robofont.guides = (
);
com.typemytype.robofont.layerData = {
b = {
anchors = (
);
components = (
);
contours = (
);
lib = {
};
name = uniFB01;
unicodes = (
);
width = 827;
};
};
};
},
{
glyphname = fl;
layers = (
{
layerId = "3FB85DAF-C7EF-4F81-BE96-1E190958879E";
paths = (
{
closed = 1;
nodes = (
"238 0 LINE",
"238 454 LINE",
"292 454 LINE",
"292 578 LINE",
"238 578 LINE",
"238 593 OFFCURVE",
"238 608 OFFCURVE",
"238 623 CURVE SMOOTH",
"238 660 OFFCURVE",
"244 691 OFFCURVE",
"315 691 CURVE SMOOTH",
"324 691 OFFCURVE",
"333 691 OFFCURVE",
"343 690 CURVE",
"343 0 LINE",
"522 0 LINE",
"522 788 LINE",
"433 803 OFFCURVE",
"361 809 OFFCURVE",
"303 809 CURVE SMOOTH",
"76 809 OFFCURVE",
"59 712 OFFCURVE",
"59 625 CURVE SMOOTH",
"59 578 LINE",
"8 578 LINE",
"8 454 LINE",
"59 454 LINE",
"59 0 LINE"
);
}
);
width = 562;
}
);
leftKerningGroup = f;
rightKerningGroup = l;
unicode = FB02;
userData = {
com.fontlab.hintData = {
vhints = (
{
position = 80;
width = 32;
}
);
};
com.typemytype.robofont.layerData = {
b = {
anchors = (
);
components = (
);
contours = (
);
lib = {
};
name = uniFB02;
unicodes = (
);
width = 851;
};
};
};
},
{
glyphname = ordfeminine;
layers = (
{
layerId = "3FB85DAF-C7EF-4F81-BE96-1E190958879E";
paths = (
{
closed = 1;
nodes = (
"219 311 OFFCURVE",
"255 347 OFFCURVE",
"272 388 CURVE",
"283 320 LINE",
"424 320 LINE",
"424 674 LINE SMOOTH",
"424 757 OFFCURVE",
"366 821 OFFCURVE",
"254 821 CURVE SMOOTH",
"130 821 OFFCURVE",
"51 771 OFFCURVE",
"50 644 CURVE",
"206 639 LINE",
"213 693 OFFCURVE",
"217 708 OFFCURVE",
"238 708 CURVE SMOOTH",
"257 708 OFFCURVE",
"263 693 OFFCURVE",
"263 677 CURVE SMOOTH",
"263 623 LINE",
"151 588 OFFCURVE",
"35 551 OFFCURVE",
"35 433 CURVE SMOOTH",
"35 363 OFFCURVE",
"74 311 OFFCURVE",
"154 311 CURVE SMOOTH"
);
},
{
closed = 1;
nodes = (
"205 411 OFFCURVE",
"186 429 OFFCURVE",
"186 459 CURVE SMOOTH",
"186 489 OFFCURVE",
"213 541 OFFCURVE",
"263 563 CURVE",
"263 430 LINE",
"253 417 OFFCURVE",
"239 411 OFFCURVE",
"227 411 CURVE SMOOTH"
);
}
);
width = 459;
}
);
leftKerningGroup = order;
unicode = 00AA;
userData = {
com.fontlab.hintData = {
hhints = (
{
position = 637;
width = 204;
},
{
position = 1447;
width = 235;
}
);
vhints = (
{
position = 101;
width = 313;
}
);
};
};
},
{
glyphname = ordmasculine;
layers = (
{
layerId = "3FB85DAF-C7EF-4F81-BE96-1E190958879E";
paths = (
{
closed = 1;
nodes = (
"317 311 OFFCURVE",
"396 358 OFFCURVE",
"396 460 CURVE SMOOTH",
"396 673 LINE SMOOTH",
"396 774 OFFCURVE",
"317 822 OFFCURVE",
"217 822 CURVE SMOOTH",
"117 822 OFFCURVE",
"40 774 OFFCURVE",
"40 673 CURVE SMOOTH",
"40 460 LINE SMOOTH",
"40 359 OFFCURVE",
"117 311 OFFCURVE",
"217 311 CURVE SMOOTH"
);
},
{
closed = 1;
nodes = (
"199 415 OFFCURVE",
"185 428 OFFCURVE",
"185 458 CURVE SMOOTH",
"185 675 LINE SMOOTH",
"185 706 OFFCURVE",
"199 718 OFFCURVE",
"218 718 CURVE SMOOTH",
"238 718 OFFCURVE",
"252 707 OFFCURVE",
"252 675 CURVE SMOOTH",
"252 458 LINE SMOOTH",
"252 427 OFFCURVE",
"238 415 OFFCURVE",
"218 415 CURVE SMOOTH"
);
}
);
width = 436;
}
);
leftKerningGroup = order;
unicode = 00BA;
userData = {
com.fontlab.hintData = {
hhints = (
{
position = 637;
width = 213;
},
{
position = 1469;
width = 214;
}
);
vhints = (
{
position = 142;
width = 300;
},
{
position = 575;
width = 299;
}
);
};
};
},
{
glyphname = "Be-cy";
layers = (
{
layerId = "3FB85DAF-C7EF-4F81-BE96-1E190958879E";
paths = (
{
closed = 1;
nodes = (
"281 0 LINE SMOOTH",
"414 0 OFFCURVE",
"537 28 OFFCURVE",
"537 233 CURVE SMOOTH",
"537 388 OFFCURVE",
"450 466 OFFCURVE",
"303 466 CURVE SMOOTH",
"261 466 LINE",
"261 658 LINE",
"481 658 LINE",
"481 810 LINE",
"63 810 LINE",
"63 0 LINE"
);
},
{
closed = 1;
nodes = (
"261 330 LINE",
"280 330 LINE SMOOTH",
"340 330 OFFCURVE",
"352 283 OFFCURVE",
"354 238 CURVE SMOOTH",
"356 170 OFFCURVE",
"340 128 OFFCURVE",
"282 128 CURVE SMOOTH",
"261 128 LINE"
);
}
);
width = 571;
}
);
leftKerningGroup = "Be-cy";
unicode = 0411;
userData = {
com.fontlab.hintData = {
vhints = (
{
position = 683;
width = 380;
}
);
};
com.typemytype.robofont.layerData = {
b = {
anchors = (
);
components = (
);
contours = (
);
lib = {
};
name = afii10018;
unicodes = (
);
width = 1175;
};
};
};
},
{
color = 1;
glyphname = "Ge-cy";
layers = (
{
anchors = (
{
name = bottomright;
position = "{465, 0}";
},
{
name = top;
position = "{243, 810}";
}
);
layerId = "3FB85DAF-C7EF-4F81-BE96-1E190958879E";
paths = (
{
closed = 1;
nodes = (
"261 0 LINE",
"261 663 LINE",
"457 663 LINE",
"457 810 LINE",
"63 810 LINE",
"63 0 LINE"
);
}
);
width = 485;
}
);
leftKerningGroup = "Be-cy";
rightKerningGroup = "Ge-cy";
unicode = 0413;
userData = {
com.typemytype.robofont.layerData = {
b = {
anchors = (
);
components = (
);
contours = (
);
lib = {
};
name = afii10020;
unicodes = (
);
width = 1002;
};
};
};
},
{
glyphname = "Gheupturn-cy";
layers = (
{
layerId = "3FB85DAF-C7EF-4F81-BE96-1E190958879E";
paths = (
{
closed = 1;
nodes = (
"261 0 LINE",
"261 663 LINE",
"457 663 LINE",
"457 948 LINE",
"342 948 LINE",
"342 810 LINE",
"63 810 LINE",
"63 0 LINE"
);
}
);
width = 485;
}
);
leftKerningGroup = "Be-cy";
rightKerningGroup = "Ge-cy";
unicode = 0490;
userData = {
com.typemytype.robofont.layerData = {
b = {
anchors = (
);
components = (
);
contours = (
);
lib = {
};
name = uni0490;
unicodes = (
);
width = 1002;
};
};
};
},
{
color = 1;
glyphname = "De-cy";
layers = (
{
layerId = "3FB85DAF-C7EF-4F81-BE96-1E190958879E";
paths = (
{
closed = 1;
nodes = (
"142 -164 LINE",
"164 0 LINE",
"559 0 LINE",
"573 -164 LINE",
"695 -164 LINE",
"695 141 LINE",
"600 141 LINE",
"600 810 LINE",
"213 810 LINE",
"188 514 LINE SMOOTH",
"168 268 OFFCURVE",
"121 159 OFFCURVE",
"39 141 CURVE",
"20 141 LINE",
"20 -164 LINE"
);
},
{
closed = 1;
nodes = (
"275 184 OFFCURVE",
"331 233 OFFCURVE",
"349 499 CURVE SMOOTH",
"359 670 LINE",
"417 670 LINE",
"417 141 LINE",
"226 141 LINE"
);
}
);
width = 712;
}
);
rightKerningGroup = "De-cy";
unicode = 0414;
userData = {
com.fontlab.hintData = {
hhints = (
{
position = -20;
width = 20;
}
);
vhints = (
{
position = 14;
width = 279;
},
{
position = 1314;
width = 303;
}
);
};
com.typemytype.robofont.guides = (
);
com.typemytype.robofont.layerData = {
b = {
anchors = (
);
components = (
);
contours = (
{
points = (
{
segmentType = line;
smooth = 0;
x = 40;
y = -7;
},
{
smooth = 0;
x = 349;
y = 16;
},
{
smooth = 0;
x = 319;
y = 51;
},
{
segmentType = curve;
smooth = 1;
x = 417;
y = 1147;
},
{
segmentType = line;
smooth = 0;
x = 458;
y = 1606;
},
{
segmentType = line;
smooth = 0;
x = 867;
y = 1606;
},
{
segmentType = line;
smooth = 0;
x = 867;
y = 0;
},
{
segmentType = line;
smooth = 0;
x = 931;
y = 0;
},
{
segmentType = line;
smooth = 0;
x = 931;
y = 1658;
},
{
segmentType = line;
smooth = 0;
x = 394;
y = 1658;
},
{
segmentType = line;
smooth = 1;
x = 351;
y = 1149;
},
{
smooth = 0;
x = 260;
y = 69;
},
{
smooth = 0;
x = 287;
y = 68;
},
{
segmentType = curve;
smooth = 0;
x = 40;
y = 48;
}
);
}
);
lib = {
};
name = afii10021;
unicodes = (
);
width = 1104;
};
};
};
},
{
color = 1;
glyphname = "Zhe-cy";
layers = (
{
anchors = (
{
name = bottomright;
position = "{809, 0}";
},
{
name = top;
position = "{415, 810}";
}
);
layerId = "3FB85DAF-C7EF-4F81-BE96-1E190958879E";
paths = (
{
closed = 1;
nodes = (
"181 0 LINE",
"328 390 LINE",
"337 390 LINE",
"337 0 LINE",
"492 0 LINE",
"492 390 LINE",
"501 390 LINE",
"648 0 LINE",
"823 0 LINE",
"658 405 LINE",
"823 810 LINE",
"639 810 LINE",
"501 435 LINE",
"492 435 LINE",
"492 810 LINE",
"337 810 LINE",
"337 435 LINE",
"328 435 LINE",
"190 810 LINE",
"6 810 LINE",
"171 405 LINE",
"6 0 LINE"
);
}
);
width = 829;
}
);
leftKerningGroup = "Zhe-cy";
rightKerningGroup = "Zhe-cy";
unicode = 0416;
userData = {
com.typemytype.robofont.guides = (
{
angle = 90;
isGlobal = 0;
magnetic = 5;
x = 643;
y = 1094;
},
{
angle = 90;
isGlobal = 0;
magnetic = 5;
x = 1019;
y = 615;
}
);
com.typemytype.robofont.layerData = {
b = {
anchors = (
);
components = (
);
contours = (
);
lib = {
};
name = afii10024;
unicodes = (
);
width = 1206;
};
};
};
},
{
color = 1;
glyphname = "Ze-cy";
layers = (
{
anchors = (
{
name = bottom;
position = "{270, 0}";
},
{
name = top;
position = "{270, 810}";
}
);
layerId = "3FB85DAF-C7EF-4F81-BE96-1E190958879E";
paths = (
{
closed = 1;
nodes = (
"441 -17 OFFCURVE",
"502 91 OFFCURVE",
"502 241 CURVE SMOOTH",
"502 358 OFFCURVE",
"459 402 OFFCURVE",
"408 423 CURVE",
"459 436 OFFCURVE",
"502 507 OFFCURVE",
"502 601 CURVE SMOOTH",
"502 750 OFFCURVE",
"414 824 OFFCURVE",
"271 824 CURVE SMOOTH",
"131 824 OFFCURVE",
"37 743 OFFCURVE",
"37 592 CURVE SMOOTH",
"37 537 LINE",
"222 537 LINE",
"222 558 OFFCURVE",
"222 586 OFFCURVE",
"222 587 CURVE SMOOTH",
"222 641 OFFCURVE",
"233 677 OFFCURVE",
"269 677 CURVE SMOOTH",
"306 677 OFFCURVE",
"321 647 OFFCURVE",
"321 587 CURVE SMOOTH",
"321 507 OFFCURVE",
"307 468 OFFCURVE",
"236 468 CURVE SMOOTH",
"221 468 OFFCURVE",
"206 468 OFFCURVE",
"191 468 CURVE",
"191 352 LINE",
"212 352 OFFCURVE",
"239 352 OFFCURVE",
"240 352 CURVE SMOOTH",
"308 351 OFFCURVE",
"321 314 OFFCURVE",
"321 235 CURVE SMOOTH",
"321 167 OFFCURVE",
"313 139 OFFCURVE",
"277 139 CURVE SMOOTH",
"240 139 OFFCURVE",
"229 165 OFFCURVE",
"229 248 CURVE SMOOTH",
"229 261 OFFCURVE",
"229 279 OFFCURVE",
"229 280 CURVE",
"43 280 LINE",
"43 251 LINE SMOOTH",
"43 93 OFFCURVE",
"93 -17 OFFCURVE",
"274 -17 CURVE SMOOTH"
);
}
);
width = 539;
}
);
leftKerningGroup = "Ze-cy";
rightKerningGroup = "Ve-cy";
unicode = 0417;
userData = {
com.fontlab.hintData = {
hhints = (
{
position = -35;
width = 324;
},
{
position = 718;
width = 240;
},
{
position = 1382;
width = 306;
}
);
vhints = (
{
position = 85;
width = 384;
},
{
position = 651;
width = 378;
}
);
};
com.typemytype.robofont.layerData = {
b = {
anchors = (
);
components = (
);
contours = (
);
lib = {
};
name = afii10025;
unicodes = (
);
width = 925;
};
};
};
},
{
glyphname = "Ii-cy";
layers = (
{
anchors = (
{
name = top;
position = "{315, 810}";
}
);
layerId = "3FB85DAF-C7EF-4F81-BE96-1E190958879E";
paths = (
{
closed = 1;
nodes = (
"179 0 LINE",
"383 444 LINE",
"383 0 LINE",
"540 0 LINE",
"540 810 LINE",
"414 810 LINE",
"216 374 LINE",
"216 810 LINE",
"63 810 LINE",
"63 0 LINE"
);
}
);
width = 603;
}
);
leftKerningGroup = "Be-cy";
rightKerningGroup = "Ii-cy";
unicode = 0418;
userData = {
com.typemytype.robofont.layerData = {
b = {
anchors = (
);
components = (
);
contours = (
);
lib = {
};
name = afii10026;
unicodes = (
);
width = 1239;
};
};
};
},
{
glyphname = "Ka-cy";
layers = (
{
anchors = (
{
name = bottomright;
position = "{571, 0}";
},
{
name = top;
position = "{296, 810}";
}
);
layerId = "3FB85DAF-C7EF-4F81-BE96-1E190958879E";
paths = (
{
closed = 1;
nodes = (
"261 0 LINE",
"261 341 LINE",
"272 341 LINE",
"377 0 LINE",
"581 0 LINE",
"436 431 LINE",
"580 810 LINE",
"384 810 LINE",
"272 500 LINE",
"261 500 LINE",
"261 810 LINE",
"63 810 LINE",
"63 0 LINE"
);
}
);
width = 591;
}
);
leftKerningGroup = "Be-cy";
rightKerningGroup = "Zhe-cy";
unicode = 041A;
userData = {
com.typemytype.robofont.guides = (
{
angle = 90;
isGlobal = 0;
magnetic = 5;
x = 225;
y = 649;
}
);
com.typemytype.robofont.layerData = {
b = {
anchors = (
);
components = (
);
contours = (
{
points = (
{
segmentType = line;
smooth = 0;
x = 161;
y = 0;
},
{
segmentType = line;
smooth = 0;
x = 225;
y = 0;
},
{
segmentType = line;
smooth = 0;
x = 225;
y = 570.38898;
},
{
segmentType = line;
smooth = 0;
x = 415;
y = 916;
},
{
segmentType = line;
smooth = 0;
x = 847;
y = 0;
},
{
segmentType = line;
smooth = 0;
x = 913;
y = 0;
},
{
segmentType = line;
smooth = 0;
x = 455;
y = 969;
},
{
segmentType = line;
smooth = 0;
x = 815;
y = 1658;
},
{
segmentType = line;
smooth = 0;
x = 748;
y = 1658;
},
{
segmentType = line;
smooth = 0;
x = 225;
y = 667.69897;
},
{
segmentType = line;
smooth = 0;
x = 225;
y = 1658;
},
{
segmentType = line;
smooth = 0;
x = 161;
y = 1658;
}
);
}
);
lib = {
};
name = afii10028;
unicodes = (
);
width = 927;
};
};
};
},
{
color = 1;
glyphname = "El-cy";
layers = (
{
layerId = "3FB85DAF-C7EF-4F81-BE96-1E190958879E";
paths = (
{
closed = 1;
nodes = (
"310 -15 OFFCURVE",
"305 70 OFFCURVE",
"329 424 CURVE SMOOTH",
"344 658 LINE",
"417 658 LINE",
"417 0 LINE",
"614 0 LINE",
"614 810 LINE",
"164 810 LINE",
"138 468 LINE SMOOTH",
"115 160 OFFCURVE",
"131 138 OFFCURVE",
"9 138 CURVE",
"9 0 LINE"
);
}
);
width = 678;
}
);
leftKerningGroup = "El-cy";
rightKerningGroup = "Ii-cy";
unicode = 041B;
userData = {
com.typemytype.robofont.layerData = {
b = {
anchors = (
);
components = (
);
contours = (
{
points = (
{
segmentType = line;
smooth = 0;
x = 961;
y = 61;
},
{
segmentType = line;
smooth = 0;
x = 961;
y = 895;
},
{
segmentType = line;
smooth = 1;
x = 1201;
y = 895;
},
{
smooth = 0;
x = 1449;
y = 895;
},
{
smooth = 0;
x = 1534;
y = 721;
},
{
segmentType = curve;
smooth = 1;
x = 1534;
y = 466;
},
{
smooth = 0;
x = 1534;
y = 229;
},
{
smooth = 0;
x = 1458;
y = 61;
},
{
segmentType = curve;
smooth = 1;
x = 1201;
y = 61;
}
);
},
{
points = (
{
segmentType = line;
smooth = 0;
x = 70;
y = -7;
},
{
segmentType = line;
smooth = 1;
x = 87;
y = -7;
},
{
smooth = 0;
x = 363;
y = -7;
},
{
smooth = 0;
x = 360;
y = 167;
},
{
segmentType = curve;
smooth = 1;
x = 408;
y = 705;
},
{
segmentType = line;
smooth = 0;
x = 488;
y = 1606;
},
{
segmentType = line;
smooth = 0;
x = 897;
y = 1606;
},
{
segmentType = line;
smooth = 0;
x = 897;
y = 0;
},
{
segmentType = line;
smooth = 1;
x = 1197;
y = 0;
},
{
smooth = 0;
x = 1504;
y = 0;
},
{
smooth = 0;
x = 1604;
y = 215;
},
{
segmentType = curve;
smooth = 1;
x = 1604;
y = 463;
},
{
smooth = 0;
x = 1604;
y = 766;
},
{
smooth = 0;
x = 1480;
y = 956;
},
{
segmentType = curve;
smooth = 1;
x = 1196;
y = 956;
},
{
segmentType = line;
smooth = 0;
x = 961;
y = 956;
},
{
segmentType = line;
smooth = 0;
x = 961;
y = 1658;
},
{
segmentType = line;
smooth = 0;
x = 424;
y = 1658;
},
{
segmentType = line;
smooth = 1;
x = 344;
y = 705;
},
{
smooth = 0;
x = 299;
y = 173;
},
{
smooth = 0;
x = 309;
y = 48;
},
{
segmentType = curve;
smooth = 0;
x = 70;
y = 48;
}
);
}
);
lib = {
};
name = afii10029;
unicodes = (
);
width = 1122;
};
};
};
},
{
glyphname = "Pe-cy";
layers = (
{
layerId = "3FB85DAF-C7EF-4F81-BE96-1E190958879E";
paths = (
{
closed = 1;
nodes = (
"253 0 LINE",
"253 668 LINE",
"361 668 LINE",
"361 0 LINE",
"556 0 LINE",
"556 810 LINE",
"59 810 LINE",
"59 0 LINE"
);
}
);
width = 614;
}
);
leftKerningGroup = "Be-cy";
rightKerningGroup = "Ii-cy";
unicode = 041F;
userData = {
com.typemytype.robofont.layerData = {
b = {
anchors = (
);
components = (
);
contours = (
);
lib = {
};
name = afii10033;
unicodes = (
);
width = 1261;
};
};
};
},
{
glyphname = "U-cy";
layers = (
{
anchors = (
{
name = top;
position = "{292, 810}";
}
);
layerId = "3FB85DAF-C7EF-4F81-BE96-1E190958879E";
paths = (
{
closed = 1;
nodes = (
"79 -171 OFFCURVE",
"102 -172 OFFCURVE",
"124 -172 CURVE SMOOTH",
"291 -172 OFFCURVE",
"360 -113 OFFCURVE",
"397 46 CURVE SMOOTH",
"572 810 LINE",
"386 810 LINE",
"328 482 LINE",
"307 275 LINE",
"276 481 LINE",
"206 810 LINE",
"23 810 LINE",
"211 80 LINE SMOOTH",
"214 67 OFFCURVE",
"216 55 OFFCURVE",
"216 34 CURVE SMOOTH",
"216 -24 OFFCURVE",
"171 -38 OFFCURVE",
"104 -38 CURVE SMOOTH",
"88 -38 OFFCURVE",
"71 -37 OFFCURVE",
"53 -36 CURVE",
"53 -169 LINE"
);
}
);
width = 583;
}
);
leftKerningGroup = "U-cy";
rightKerningGroup = "U-cy";
unicode = 0423;
userData = {
com.typemytype.robofont.layerData = {
b = {
anchors = (
);
components = (
);
contours = (
{
points = (
{
segmentType = line;
smooth = 1;
x = 156;
y = -164;
},
{
smooth = 0;
x = 433;
y = -153;
},
{
smooth = 0;
x = 462;
y = -93;
},
{
segmentType = curve;
smooth = 1;
x = 517;
y = 159;
},
{
segmentType = line;
smooth = 0;
x = 532;
y = 228;
},
{
segmentType = line;
smooth = 0;
x = 875;
y = 1658;
},
{
segmentType = line;
smooth = 0;
x = 808;
y = 1658;
},
{
segmentType = line;
smooth = 0;
x = 625.84399;
y = 874.14148;
},
{
segmentType = line;
smooth = 0;
x = 498;
y = 324;
},
{
segmentType = line;
smooth = 0;
x = 354.47729;
y = 867.91852;
},
{
segmentType = line;
smooth = 0;
x = 146;
y = 1658;
},
{
segmentType = line;
smooth = 0;
x = 79;
y = 1658;
},
{
segmentType = line;
smooth = 0;
x = 467;
y = 239;
},
{
segmentType = line;
smooth = 1;
x = 456;
y = 179;
},
{
smooth = 0;
x = 414;
y = -49;
},
{
smooth = 0;
x = 396;
y = -105;
},
{
segmentType = curve;
smooth = 0;
x = 134;
y = -109;
},
{
segmentType = line;
smooth = 0;
x = 131;
y = -165;
}
);
}
);
lib = {
};
name = afii10037;
unicodes = (
);
width = 927;
};
};
};
},
{
glyphname = "Ef-cy";
layers = (
{
layerId = "3FB85DAF-C7EF-4F81-BE96-1E190958879E";
paths = (
{
closed = 1;
nodes = (
"470 -27 LINE",
"470 89 LINE",
"494 87 OFFCURVE",
"515 86 OFFCURVE",
"539 86 CURVE SMOOTH",
"647 86 OFFCURVE",
"740 162 OFFCURVE",
"740 280 CURVE SMOOTH",
"740 537 LINE SMOOTH",
"740 641 OFFCURVE",
"645 731 OFFCURVE",
"507 731 CURVE SMOOTH",
"492 731 OFFCURVE",
"482 730 OFFCURVE",
"470 729 CURVE",
"470 850 LINE",
"317 850 LINE",
"317 729 LINE",
"304 730 OFFCURVE",
"288 731 OFFCURVE",
"275 731 CURVE SMOOTH",
"142 731 OFFCURVE",
"46 641 OFFCURVE",
"46 537 CURVE SMOOTH",
"46 281 LINE SMOOTH",
"46 163 OFFCURVE",
"139 87 OFFCURVE",
"247 87 CURVE SMOOTH",
"271 87 OFFCURVE",
"293 88 OFFCURVE",
"317 90 CURVE",
"317 -27 LINE"
);
},
{
closed = 1;
nodes = (
"243 210 OFFCURVE",
"220 249 OFFCURVE",
"220 278 CURVE SMOOTH",
"220 540 LINE SMOOTH",
"220 578 OFFCURVE",
"253 613 OFFCURVE",
"299 613 CURVE SMOOTH",
"305 613 OFFCURVE",
"313 612 OFFCURVE",
"317 611 CURVE",
"317 212 LINE",
"313 211 OFFCURVE",
"305 210 OFFCURVE",
"299 210 CURVE SMOOTH"
);
},
{
closed = 1;
nodes = (
"481 211 OFFCURVE",
"475 212 OFFCURVE",
"470 213 CURVE",
"470 611 LINE",
"478 612 OFFCURVE",
"487 613 OFFCURVE",
"497 613 CURVE SMOOTH",
"535 613 OFFCURVE",
"567 584 OFFCURVE",
"567 540 CURVE SMOOTH",
"567 277 LINE SMOOTH",
"567 247 OFFCURVE",
"541 211 OFFCURVE",
"486 211 CURVE SMOOTH"
);
}
);
width = 787;
}
);
leftKerningGroup = "Ef-cy";
rightKerningGroup = "Ef-cy";
unicode = 0424;
userData = {
com.fontlab.hintData = {
hhints = (
{
position = 178;
width = 258;
},
{
position = 1229;
width = 243;
}
);
vhints = (
{
position = 80;
width = 360;
}
);
};
com.typemytype.robofont.layerData = {
b = {
anchors = (
);
components = (
);
contours = (
);
lib = {
};
name = afii10038;
unicodes = (
);
width = 1158;
};
};
};
},
{
color = 9;
glyphname = "Che-cy";
layers = (
{
anchors = (
{
name = bottomright;
position = "{606, 0}";
},
{
name = top;
position = "{313, 810}";
}
);
layerId = "3FB85DAF-C7EF-4F81-BE96-1E190958879E";
paths = (
{
closed = 1;
nodes = (
"564 0 LINE",
"564 810 LINE",
"366 810 LINE",
"366 443 LINE",
"354 439 OFFCURVE",
"336 437 OFFCURVE",
"325 437 CURVE SMOOTH",
"260 437 OFFCURVE",
"241 472 OFFCURVE",
"241 581 CURVE SMOOTH",
"241 810 LINE",
"43 810 LINE",
"43 530 LINE SMOOTH",
"43 387 OFFCURVE",
"140 316 OFFCURVE",
"285 316 CURVE SMOOTH",
"313 316 OFFCURVE",
"333 318 OFFCURVE",
"366 324 CURVE",
"366 0 LINE"
);
}
);
width = 626;
}
);
leftKerningGroup = "Che-cy";
rightKerningGroup = "Ii-cy";
unicode = 0427;
userData = {
com.fontlab.hintData = {
hhints = (
{
position = 684;
width = 250;
}
);
};
com.typemytype.robofont.layerData = {
b = {
anchors = (
);
components = (
);
contours = (
);
lib = {
};
name = afii10041;
unicodes = (
);
width = 1289;
};
};
};
},
{
color = 9;
glyphname = "Tse-cy";
layers = (
{
layerId = "3FB85DAF-C7EF-4F81-BE96-1E190958879E";
paths = (
{
closed = 1;
nodes = (
"653 -164 LINE",
"653 132 LINE",
"570 132 LINE",
"570 810 LINE",
"372 810 LINE",
"372 132 LINE",
"263 132 LINE",
"263 810 LINE",
"65 810 LINE",
"65 0 LINE",
"513 0 LINE",
"532 -164 LINE"
);
}
);
width = 693;
}
);
leftKerningGroup = "Be-cy";
rightKerningGroup = "De-cy";
unicode = 0426;
userData = {
com.fontlab.hintData = {
vhints = (
{
position = 1086;
width = 298;
}
);
};
com.typemytype.robofont.layerData = {
b = {
anchors = (
);
components = (
);
contours = (
);
lib = {
};
name = afii10040;
unicodes = (
);
width = 1082;
};
};
};
},
{
color = 9;
glyphname = "Sha-cy";
layers = (
{
layerId = "3FB85DAF-C7EF-4F81-BE96-1E190958879E";
paths = (
{
closed = 1;
nodes = (
"784 0 LINE",
"784 810 LINE",
"600 810 LINE",
"600 141 LINE",
"517 141 LINE",
"517 810 LINE",
"333 810 LINE",
"333 141 LINE",
"248 141 LINE",
"248 810 LINE",
"63 810 LINE",
"63 0 LINE"
);
}
);
width = 847;
}
);
leftKerningGroup = "Be-cy";
rightKerningGroup = "Ii-cy";
unicode = 0428;
userData = {
com.typemytype.robofont.layerData = {
b = {
anchors = (
);
components = (
);
contours = (
);
lib = {
};
name = afii10042;
unicodes = (
);
width = 1743;
};
};
};
},
{
color = 9;
glyphname = "Shcha-cy";
layers = (
{
layerId = "3FB85DAF-C7EF-4F81-BE96-1E190958879E";
paths = (
{
closed = 1;
nodes = (
"876 -164 LINE",
"876 132 LINE",
"793 132 LINE",
"793 810 LINE",
"608 810 LINE",
"608 132 LINE",
"525 132 LINE",
"525 810 LINE",
"341 810 LINE",
"341 132 LINE",
"256 132 LINE",
"256 810 LINE",
"71 810 LINE",
"71 0 LINE",
"736 0 LINE",
"754 -164 LINE"
);
}
);
width = 916;
}
);
leftKerningGroup = "Be-cy";
rightKerningGroup = "De-cy";
unicode = 0429;
userData = {
com.fontlab.hintData = {
vhints = (
{
position = 1603;
width = 298;
}
);
};
com.typemytype.robofont.layerData = {
b = {
anchors = (
);
components = (
);
contours = (
);
lib = {
};
name = afii10043;
unicodes = (
);
width = 1393;
};
};
};
},
{
color = 9;
glyphname = "Dzhe-cy";
layers = (
{
layerId = "3FB85DAF-C7EF-4F81-BE96-1E190958879E";
paths = (
{
closed = 1;
nodes = (
"370 -164 LINE",
"381 0 LINE",
"555 0 LINE",
"555 810 LINE",
"357 810 LINE",
"357 151 LINE",
"257 151 LINE",
"257 810 LINE",
"59 810 LINE",
"59 0 LINE",
"235 0 LINE",
"248 -164 LINE"
);
}
);
width = 614;
}
);
leftKerningGroup = "Be-cy";
rightKerningGroup = "Ii-cy";
unicode = 040F;
userData = {
com.typemytype.robofont.layerData = {
b = {
anchors = (
);
components = (
);
contours = (
);
lib = {
};
name = afii10145;
unicodes = (
);
width = 1263;
};
};
};
},
{
glyphname = "Softsign-cy";
layers = (
{
layerId = "3FB85DAF-C7EF-4F81-BE96-1E190958879E";
paths = (
{
closed = 1;
nodes = (
"280 0 LINE SMOOTH",
"413 0 OFFCURVE",
"536 28 OFFCURVE",
"536 233 CURVE SMOOTH",
"536 388 OFFCURVE",
"449 466 OFFCURVE",
"303 466 CURVE SMOOTH",
"261 466 LINE",
"261 810 LINE",
"63 810 LINE",
"63 0 LINE"
);
},
{
closed = 1;
nodes = (
"261 330 LINE",
"279 330 LINE SMOOTH",
"340 330 OFFCURVE",
"352 283 OFFCURVE",
"353 238 CURVE SMOOTH",
"356 170 OFFCURVE",
"339 128 OFFCURVE",
"281 128 CURVE SMOOTH",
"261 128 LINE"
);
}
);
width = 574;
}
);
leftKerningGroup = "Be-cy";
rightKerningGroup = "Softsign-cy";
unicode = 042C;
userData = {
com.fontlab.hintData = {
vhints = (
{
position = 691;
width = 380;
}
);
};
com.typemytype.robofont.layerData = {
b = {
anchors = (
);
components = (
);
contours = (
);
lib = {
};
name = afii10046;
unicodes = (
);
width = 1181;
};
};
};
},
{
color = 9;
glyphname = "Hardsign-cy";
layers = (
{
layerId = "3FB85DAF-C7EF-4F81-BE96-1E190958879E";
paths = (
{
closed = 1;
nodes = (
"359 0 LINE SMOOTH",
"492 0 OFFCURVE",
"615 28 OFFCURVE",
"615 233 CURVE SMOOTH",
"615 388 OFFCURVE",
"529 466 OFFCURVE",
"382 466 CURVE SMOOTH",
"332 466 LINE",
"332 810 LINE",
"15 810 LINE",
"15 677 LINE",
"133 677 LINE",
"133 0 LINE"
);
},
{
closed = 1;
nodes = (
"332 330 LINE",
"358 330 LINE SMOOTH",
"419 330 OFFCURVE",
"431 283 OFFCURVE",
"433 238 CURVE SMOOTH",
"435 170 OFFCURVE",
"418 128 OFFCURVE",
"360 128 CURVE SMOOTH",
"332 128 LINE"
);
}
);
width = 651;
}
);
leftKerningGroup = "Te-cy";
rightKerningGroup = "Softsign-cy";
unicode = 042A;
userData = {
com.fontlab.hintData = {
vhints = (
{
position = 878;
width = 380;
}
);
};
com.typemytype.robofont.layerData = {
b = {
anchors = (
);
components = (
);
contours = (
);
lib = {
};
name = afii10044;
unicodes = (
);
width = 1088;
};
};
};
},
{
color = 1;
glyphname = "Yeru-cy";
layers = (
{
anchors = (
{
name = top;
position = "{431, 810}";
}
);
layerId = "3FB85DAF-C7EF-4F81-BE96-1E190958879E";
paths = (
{
closed = 1;
nodes = (
"281 0 LINE SMOOTH",
"415 0 OFFCURVE",
"537 28 OFFCURVE",
"537 233 CURVE SMOOTH",
"537 388 OFFCURVE",
"451 466 OFFCURVE",
"304 466 CURVE SMOOTH",
"261 466 LINE",
"261 810 LINE",
"63 810 LINE",
"63 0 LINE"
);
},
{
closed = 1;
nodes = (
"261 330 LINE",
"281 330 LINE SMOOTH",
"341 330 OFFCURVE",
"353 283 OFFCURVE",
"354 238 CURVE SMOOTH",
"357 170 OFFCURVE",
"340 128 OFFCURVE",
"283 128 CURVE SMOOTH",
"261 128 LINE"
);
},
{
closed = 1;
nodes = (
"798 0 LINE",
"798 810 LINE",
"600 810 LINE",
"600 0 LINE"
);
}
);
width = 861;
}
);
leftKerningGroup = "Be-cy";
rightKerningGroup = "Ii-cy";
unicode = 042B;
userData = {
com.fontlab.hintData = {
vhints = (
{
position = 694;
width = 380;
}
);
};
com.typemytype.robofont.layerData = {
b = {
anchors = (
);
components = (
);
contours = (
);
lib = {
};
name = afii10045;
unicodes = (
);
width = 1323;
};
};
};
},
{
glyphname = "Lje-cy";
layers = (
{
layerId = "3FB85DAF-C7EF-4F81-BE96-1E190958879E";
paths = (
{
closed = 1;
nodes = (
"241 0 OFFCURVE",
"304 48 OFFCURVE",
"318 266 CURVE SMOOTH",
"344 658 LINE",
"417 658 LINE",
"417 0 LINE",
"629 0 LINE SMOOTH",
"763 0 OFFCURVE",
"885 28 OFFCURVE",
"885 233 CURVE SMOOTH",
"885 388 OFFCURVE",
"799 466 OFFCURVE",
"652 466 CURVE SMOOTH",
"614 466 LINE",
"614 810 LINE",
"164 810 LINE",
"125 270 LINE SMOOTH",
"115 148 OFFCURVE",
"93 137 OFFCURVE",
"9 138 CURVE",
"9 0 LINE",
"85 0 LINE SMOOTH"
);
},
{
closed = 1;
nodes = (
"614 330 LINE",
"629 330 LINE SMOOTH",
"689 330 OFFCURVE",
"701 283 OFFCURVE",
"703 238 CURVE SMOOTH",
"706 170 OFFCURVE",
"688 128 OFFCURVE",
"631 128 CURVE SMOOTH",
"614 128 LINE"
);
}
);
width = 903;
}
);
leftKerningGroup = "El-cy";
rightKerningGroup = "Softsign-cy";
unicode = 0409;
userData = {
com.fontlab.hintData = {
};
com.typemytype.robofont.layerData = {
b = {
anchors = (
);
components = (
);
contours = (
);
lib = {
};
name = afii10058;
unicodes = (
);
width = 1636;
};
};
hhints = {
};
position = 1442;
vhints = {
};
width = 386;
};
},
{
glyphname = "Nje-cy";
layers = (
{
layerId = "3FB85DAF-C7EF-4F81-BE96-1E190958879E";
paths = (
{
closed = 1;
nodes = (
"261 1 LINE",
"261 329 LINE",
"353 329 LINE",
"353 1 LINE",
"563 0 LINE",
"695 0 OFFCURVE",
"818 28 OFFCURVE",
"818 233 CURVE SMOOTH",
"818 388 OFFCURVE",
"732 466 OFFCURVE",
"585 466 CURVE SMOOTH",
"551 466 LINE",
"551 811 LINE",
"353 811 LINE",
"353 480 LINE",
"261 480 LINE",
"261 811 LINE",
"63 811 LINE",
"63 1 LINE"
);
},
{
closed = 1;
nodes = (
"551 330 LINE",
"562 330 LINE SMOOTH",
"622 330 OFFCURVE",
"636 292 OFFCURVE",
"636 230 CURVE SMOOTH",
"636 167 OFFCURVE",
"622 128 OFFCURVE",
"563 128 CURVE SMOOTH",
"551 128 LINE"
);
}
);
width = 850;
}
);
leftKerningGroup = "Be-cy";
rightKerningGroup = "Softsign-cy";
unicode = 040A;
userData = {
com.fontlab.hintData = {
vhints = (
{
position = 1269;
width = 380;
}
);
};
com.typemytype.robofont.layerData = {
b = {
anchors = (
);
components = (
);
contours = (
);
lib = {
};
name = afii10059;
unicodes = (
);
width = 1746;
};
};
};
},
{
glyphname = "E-cy";
layers = (
{
layerId = "3FB85DAF-C7EF-4F81-BE96-1E190958879E";
paths = (
{
closed = 1;
nodes = (
"487 -13 OFFCURVE",
"541 91 OFFCURVE",
"541 226 CURVE SMOOTH",
"541 268 LINE",
"346 268 LINE",
"346 206 LINE SMOOTH",
"346 171 OFFCURVE",
"345 125 OFFCURVE",
"299 125 CURVE SMOOTH",
"254 125 OFFCURVE",
"250 170 OFFCURVE",
"250 206 CURVE SMOOTH",
"250 354 LINE",
"359 354 LINE",
"359 456 LINE",
"250 456 LINE",
"250 604 LINE SMOOTH",
"250 639 OFFCURVE",
"253 685 OFFCURVE",
"299 685 CURVE SMOOTH",
"345 685 OFFCURVE",
"346 639 OFFCURVE",
"346 604 CURVE SMOOTH",
"346 534 LINE",
"541 534 LINE",
"541 588 LINE SMOOTH",
"541 723 OFFCURVE",
"487 822 OFFCURVE",
"299 822 CURVE SMOOTH",
"111 822 OFFCURVE",
"49 720 OFFCURVE",
"49 551 CURVE SMOOTH",
"49 258 LINE SMOOTH",
"49 90 OFFCURVE",
"111 -13 OFFCURVE",
"299 -13 CURVE SMOOTH"
);
}
);
width = 568;
}
);
leftKerningGroup = "O-cy";
rightKerningGroup = "Es-cy";
unicode = 0404;
userData = {
com.fontlab.hintData = {
hhints = (
{
position = -26;
width = 284;
},
{
position = 1400;
width = 284;
}
);
vhints = (
{
position = 78;
width = 420;
},
{
position = 686;
width = 406;
}
);
};
com.typemytype.robofont.layerData = {
b = {
anchors = (
);
components = (
);
contours = (
);
lib = {
};
name = afii10053;
unicodes = (
);
width = 1169;
};
};
};
},
{
glyphname = "Ereversed-cy";
layers = (
{
anchors = (
{
name = top;
position = "{296, 810}";
}
);
layerId = "3FB85DAF-C7EF-4F81-BE96-1E190958879E";
paths = (
{
closed = 1;
nodes = (
"480 -13 OFFCURVE",
"542 89 OFFCURVE",
"542 259 CURVE SMOOTH",
"542 551 LINE SMOOTH",
"542 720 OFFCURVE",
"480 822 OFFCURVE",
"292 822 CURVE SMOOTH",
"104 822 OFFCURVE",
"50 718 OFFCURVE",
"50 583 CURVE SMOOTH",
"50 542 LINE",
"245 542 LINE",
"245 604 LINE SMOOTH",
"245 639 OFFCURVE",
"246 685 OFFCURVE",
"292 685 CURVE SMOOTH",
"336 685 OFFCURVE",
"340 640 OFFCURVE",
"340 604 CURVE SMOOTH",
"340 447 LINE",
"208 447 LINE",
"208 353 LINE",
"340 353 LINE",
"340 206 LINE SMOOTH",
"340 170 OFFCURVE",
"337 125 OFFCURVE",
"292 125 CURVE SMOOTH",
"246 125 OFFCURVE",
"245 170 OFFCURVE",
"245 205 CURVE SMOOTH",
"245 265 LINE",
"50 265 LINE",
"50 221 LINE SMOOTH",
"50 86 OFFCURVE",
"104 -13 OFFCURVE",
"292 -13 CURVE SMOOTH"
);
}
);
width = 591;
}
);
leftKerningGroup = "Ze-cy";
rightKerningGroup = "O-cy";
unicode = 042D;
userData = {
com.fontlab.hintData = {
hhints = (
{
position = -27;
width = 284;
},
{
position = 1399;
width = 284;
}
);
vhints = (
{
position = 93;
width = 406;
},
{
position = 687;
width = 420;
}
);
};
com.typemytype.robofont.layerData = {
b = {
anchors = (
);
components = (
);
contours = (
);
lib = {
};
name = afii10047;
unicodes = (
);
width = 1002;
};
};
};
},
{
glyphname = "I-cy";
layers = (
{
anchors = (
{
name = top;
position = "{143, 810}";
}
);
layerId = "3FB85DAF-C7EF-4F81-BE96-1E190958879E";
paths = (
{
closed = 1;
nodes = (
"247 0 LINE",
"247 810 LINE",
"49 810 LINE",
"49 0 LINE"
);
}
);
width = 286;
}
);
leftKerningGroup = "Be-cy";
rightKerningGroup = "Ii-cy";
unicode = 0406;
userData = {
com.fontlab.hintData = {
vhints = (
{
position = 98;
width = 412;
}
);
};
};
},
{
glyphname = "Je-cy";
layers = (
{
layerId = "3FB85DAF-C7EF-4F81-BE96-1E190958879E";
paths = (
{
closed = 1;
nodes = (
"100 -21 LINE SMOOTH",
"249 -21 OFFCURVE",
"290 47 OFFCURVE",
"292 177 CURVE",
"293 810 LINE",
"95 810 LINE",
"95 186 LINE SMOOTH",
"95 126 OFFCURVE",
"69 115 OFFCURVE",
"3 116 CURVE",
"3 -21 LINE"
);
}
);
width = 332;
}
);
leftKerningGroup = "Je-cy";
rightKerningGroup = "Je-cy";
unicode = 0408;
userData = {
com.fontlab.hintData = {
hhints = (
{
position = -44;
width = 286;
}
);
};
};
},
{
color = 9;
glyphname = "Tshe-cy";
layers = (
{
layerId = "3FB85DAF-C7EF-4F81-BE96-1E190958879E";
paths = (
{
closed = 1;
nodes = (
"372 494 OFFCURVE",
"352 492 OFFCURVE",
"319 486 CURVE",
"319 663 LINE",
"437 663 LINE",
"437 810 LINE",
"3 810 LINE",
"3 663 LINE",
"121 663 LINE",
"121 0 LINE",
"319 0 LINE",
"319 367 LINE",
"331 371 OFFCURVE",
"349 373 OFFCURVE",
"360 373 CURVE SMOOTH",
"425 373 OFFCURVE",
"444 338 OFFCURVE",
"444 229 CURVE SMOOTH",
"444 0 LINE",
"642 0 LINE",
"642 280 LINE SMOOTH",
"642 423 OFFCURVE",
"545 494 OFFCURVE",
"400 494 CURVE SMOOTH"
);
}
);
width = 684;
}
);
leftKerningGroup = "Te-cy";
rightKerningGroup = "Tshe-cy";
unicode = 040B;
userData = {
com.typemytype.robofont.layerData = {
b = {
anchors = (
);
components = (
);
contours = (
{
points = (
{
segmentType = line;
smooth = 0;
x = 447;
y = -224;
},
{
segmentType = line;
smooth = 1;
x = 488;
y = -224;
},
{
smooth = 0;
x = 749;
y = -224;
},
{
smooth = 0;
x = 751;
y = -43;
},
{
segmentType = curve;
smooth = 1;
x = 751;
y = 204;
},
{
segmentType = line;
smooth = 1;
x = 751;
y = 984;
},
{
smooth = 0;
x = 751;
y = 1166;
},
{
smooth = 0;
x = 629;
y = 1205;
},
{
segmentType = curve;
smooth = 1;
x = 538;
y = 1205;
},
{
smooth = 0;
x = 430;
y = 1205;
},
{
smooth = 0;
x = 345;
y = 1173;
},
{
segmentType = curve;
smooth = 0;
x = 276;
y = 1116;
},
{
segmentType = line;
smooth = 0;
x = 276;
y = 1432;
},
{
segmentType = line;
smooth = 0;
x = 652;
y = 1432;
},
{
segmentType = line;
smooth = 0;
x = 652;
y = 1473;
},
{
segmentType = line;
smooth = 0;
x = 276;
y = 1473;
},
{
segmentType = line;
smooth = 0;
x = 276;
y = 1658;
},
{
segmentType = line;
smooth = 0;
x = 212;
y = 1658;
},
{
segmentType = line;
smooth = 0;
x = 212;
y = 1473;
},
{
segmentType = line;
smooth = 0;
x = 72;
y = 1473;
},
{
segmentType = line;
smooth = 0;
x = 72;
y = 1432;
},
{
segmentType = line;
smooth = 0;
x = 212;
y = 1432;
},
{
segmentType = line;
smooth = 0;
x = 212;
y = 0;
},
{
segmentType = line;
smooth = 0;
x = 276;
y = 0;
},
{
segmentType = line;
smooth = 0;
x = 276;
y = 1051;
},
{
smooth = 0;
x = 355;
y = 1125;
},
{
smooth = 0;
x = 442;
y = 1162;
},
{
segmentType = curve;
smooth = 1;
x = 537;
y = 1162;
},
{
smooth = 0;
x = 612;
y = 1162;
},
{
smooth = 0;
x = 686;
y = 1132;
},
{
segmentType = curve;
smooth = 1;
x = 686;
y = 992;
},
{
segmentType = line;
smooth = 1;
x = 686;
y = 204;
},
{
smooth = 0;
x = 686;
y = -47;
},
{
smooth = 0;
x = 685;
y = -172;
},
{
segmentType = curve;
smooth = 1;
x = 489;
y = -172;
},
{
segmentType = line;
smooth = 0;
x = 447;
y = -172;
}
);
}
);
lib = {
};
name = afii10060;
unicodes = (
);
width = 847;
};
};
};
},
{
glyphname = "Iu-cy";
layers = (
{
layerId = "3FB85DAF-C7EF-4F81-BE96-1E190958879E";
paths = (
{
closed = 1;
nodes = (
"754 -13 OFFCURVE",
"807 99 OFFCURVE",
"807 268 CURVE SMOOTH",
"807 542 LINE SMOOTH",
"807 711 OFFCURVE",
"754 822 OFFCURVE",
"577 822 CURVE SMOOTH",
"399 822 OFFCURVE",
"347 711 OFFCURVE",
"347 542 CURVE SMOOTH",
"347 481 LINE",
"261 481 LINE",
"261 810 LINE",
"63 810 LINE",
"63 0 LINE",
"261 0 LINE",
"261 336 LINE",
"347 336 LINE",
"347 268 LINE SMOOTH",
"347 99 OFFCURVE",
"399 -13 OFFCURVE",
"577 -13 CURVE SMOOTH"
);
},
{
closed = 1;
nodes = (
"534 125 OFFCURVE",
"533 171 OFFCURVE",
"533 205 CURVE SMOOTH",
"533 605 LINE SMOOTH",
"533 640 OFFCURVE",
"534 685 OFFCURVE",
"577 685 CURVE SMOOTH",
"620 685 OFFCURVE",
"621 640 OFFCURVE",
"621 605 CURVE SMOOTH",
"621 205 LINE SMOOTH",
"621 171 OFFCURVE",
"620 125 OFFCURVE",
"577 125 CURVE SMOOTH"
);
}
);
width = 856;
}
);
leftKerningGroup = "Be-cy";
rightKerningGroup = "O-cy";
unicode = 042E;
userData = {
com.fontlab.hintData = {
hhints = (
{
position = -26;
width = 284;
},
{
position = 1400;
width = 284;
}
);
vhints = (
{
position = 685;
width = 388;
},
{
position = 1243;
width = 389;
}
);
};
com.typemytype.robofont.layerData = {
b = {
anchors = (
);
components = (
);
contours = (
);
lib = {
};
name = afii10048;
unicodes = (
);
width = 1764;
};
};
};
},
{
glyphname = "Ia-cy";
layers = (
{
layerId = "3FB85DAF-C7EF-4F81-BE96-1E190958879E";
paths = (
{
closed = 1;
nodes = (
"222 0 LINE",
"333 315 LINE",
"335 315 OFFCURVE",
"338 315 OFFCURVE",
"340 315 CURVE",
"362 315 LINE",
"362 0 LINE",
"560 0 LINE",
"560 810 LINE",
"338 810 LINE SMOOTH",
"171 810 OFFCURVE",
"58 767 OFFCURVE",
"58 563 CURVE SMOOTH",
"58 472 OFFCURVE",
"99 397 OFFCURVE",
"158 359 CURVE",
"9 0 LINE"
);
},
{
closed = 1;
nodes = (
"264 455 OFFCURVE",
"242 506 OFFCURVE",
"242 561 CURVE SMOOTH",
"242 634 OFFCURVE",
"274 675 OFFCURVE",
"339 675 CURVE SMOOTH",
"362 675 LINE",
"362 455 LINE",
"341 455 LINE"
);
}
);
width = 624;
}
);
rightKerningGroup = "Ii-cy";
unicode = 042F;
userData = {
com.fontlab.hintData = {
hhints = (
{
position = 1378;
width = 280;
}
);
vhints = (
{
position = 43;
width = 381;
}
);
};
com.typemytype.robofont.layerData = {
b = {
anchors = (
);
components = (
);
contours = (
);
lib = {
};
name = afii10049;
unicodes = (
);
width = 1063;
};
};
};
},
{
color = 4;
glyphname = "Dje-cy";
layers = (
{
layerId = "3FB85DAF-C7EF-4F81-BE96-1E190958879E";
paths = (
{
closed = 1;
nodes = (
"584 -9 OFFCURVE",
"642 73 OFFCURVE",
"642 158 CURVE SMOOTH",
"642 292 LINE SMOOTH",
"642 432 OFFCURVE",
"561 490 OFFCURVE",
"454 490 CURVE SMOOTH",
"404 490 OFFCURVE",
"365 477 OFFCURVE",
"321 451 CURVE",
"321 673 LINE",
"439 673 LINE",
"439 810 LINE",
"7 810 LINE",
"7 673 LINE",
"125 673 LINE",
"125 0 LINE",
"321 0 LINE",
"321 353 LINE",
"338 367 OFFCURVE",
"359 376 OFFCURVE",
"384 376 CURVE SMOOTH",
"432 376 OFFCURVE",
"446 349 OFFCURVE",
"446 293 CURVE SMOOTH",
"446 164 LINE SMOOTH",
"446 135 OFFCURVE",
"433 111 OFFCURVE",
"400 104 CURVE SMOOTH",
"395 104 OFFCURVE",
"389 103 OFFCURVE",
"383 103 CURVE",
"383 -6 LINE",
"395 -7 OFFCURVE",
"397 -9 OFFCURVE",
"444 -9 CURVE SMOOTH"
);
}
);
width = 682;
}
);
leftKerningGroup = "Te-cy";
rightKerningGroup = "Softsign-cy";
unicode = 0402;
userData = {
com.fontlab.hintData = {
hhints = (
{
position = -406;
width = 224;
}
);
};
com.typemytype.robofont.layerData = {
b = {
anchors = (
);
components = (
);
contours = (
{
points = (
{
segmentType = line;
smooth = 0;
x = 481;
y = -224;
},
{
segmentType = line;
smooth = 1;
x = 522;
y = -224;
},
{
smooth = 0;
x = 783;
y = -224;
},
{
smooth = 0;
x = 785;
y = -43;
},
{
segmentType = curve;
smooth = 1;
x = 785;
y = 204;
},
{
segmentType = line;
smooth = 1;
x = 785;
y = 765;
},
{
smooth = 0;
x = 785;
y = 947;
},
{
smooth = 0;
x = 663;
y = 986;
},
{
segmentType = curve;
smooth = 1;
x = 572;
y = 986;
},
{
smooth = 0;
x = 464;
y = 986;
},
{
smooth = 0;
x = 379;
y = 951;
},
{
segmentType = curve;
smooth = 0;
x = 310;
y = 894;
},
{
segmentType = line;
smooth = 0;
x = 310;
y = 1432;
},
{
segmentType = line;
smooth = 0;
x = 686;
y = 1432;
},
{
segmentType = line;
smooth = 0;
x = 686;
y = 1473;
},
{
segmentType = line;
smooth = 0;
x = 310;
y = 1473;
},
{
segmentType = line;
smooth = 0;
x = 310;
y = 1658;
},
{
segmentType = line;
smooth = 0;
x = 246;
y = 1658;
},
{
segmentType = line;
smooth = 0;
x = 246;
y = 1473;
},
{
segmentType = line;
smooth = 0;
x = 106;
y = 1473;
},
{
segmentType = line;
smooth = 0;
x = 106;
y = 1432;
},
{
segmentType = line;
smooth = 0;
x = 246;
y = 1432;
},
{
segmentType = line;
smooth = 0;
x = 246;
y = 0;
},
{
segmentType = line;
smooth = 0;
x = 310;
y = 0;
},
{
segmentType = line;
smooth = 0;
x = 310;
y = 838;
},
{
smooth = 0;
x = 389;
y = 913;
},
{
smooth = 0;
x = 476;
y = 943;
},
{
segmentType = curve;
smooth = 1;
x = 571;
y = 943;
},
{
smooth = 0;
x = 646;
y = 943;
},
{
smooth = 0;
x = 720;
y = 913;
},
{
segmentType = curve;
smooth = 1;
x = 720;
y = 773;
},
{
segmentType = line;
smooth = 1;
x = 720;
y = 204;
},
{
smooth = 0;
x = 720;
y = -47;
},
{
smooth = 0;
x = 719;
y = -172;
},
{
segmentType = curve;
smooth = 1;
x = 523;
y = -172;
},
{
segmentType = line;
smooth = 0;
x = 481;
y = -172;
}
);
}
);
lib = {
};
name = afii10051;
unicodes = (
);
width = 940;
};
};
};
},
{
color = 4;
glyphname = "Yat-cy";
layers = (
{
layerId = "3FB85DAF-C7EF-4F81-BE96-1E190958879E";
paths = (
{
closed = 1;
nodes = (
"10 682 LINE",
"10 562 LINE",
"425 562 LINE",
"425 682 LINE"
);
},
{
closed = 1;
nodes = (
"319 0 LINE SMOOTH",
"452 0 OFFCURVE",
"575 28 OFFCURVE",
"575 233 CURVE SMOOTH",
"575 388 OFFCURVE",
"477 466 OFFCURVE",
"342 466 CURVE SMOOTH",
"300 466 LINE",
"300 810 LINE",
"102 810 LINE",
"102 0 LINE"
);
},
{
closed = 1;
nodes = (
"300 330 LINE",
"318 330 LINE SMOOTH",
"379 330 OFFCURVE",
"391 283 OFFCURVE",
"392 238 CURVE SMOOTH",
"395 170 OFFCURVE",
"378 128 OFFCURVE",
"320 128 CURVE SMOOTH",
"300 128 LINE"
);
}
);
width = 613;
}
);
unicode = 0462;
},
{
color = 4;
glyphname = "Yusbig-cy";
layers = (
{
layerId = "3FB85DAF-C7EF-4F81-BE96-1E190958879E";
paths = (
{
closed = 1;
nodes = (
"179 0 LINE",
"310 366 LINE",
"317 366 LINE",
"317 0 LINE",
"472 0 LINE",
"472 366 LINE",
"479 366 LINE",
"610 0 LINE",
"783 0 LINE",
"550 531 LINE",
"393 408 LINE",
"239 531 LINE",
"6 0 LINE"
);
},
{
closed = 1;
nodes = (
"498 401 LINE",
"699 810 LINE",
"83 810 LINE",
"292 401 LINE"
);
},
{
closed = 1;
nodes = (
"418 440 LINE",
"296 717 LINE",
"260 692 LINE",
"523 692 LINE",
"486 718 LINE",
"374 440 LINE"
);
}
);
width = 789;
}
);
unicode = 046A;
},
{
color = 4;
glyphname = "Ghestroke-cy";
layers = (
{
layerId = "3FB85DAF-C7EF-4F81-BE96-1E190958879E";
paths = (
{
closed = 1;
nodes = (
"305 0 LINE",
"305 677 LINE",
"501 677 LINE",
"501 810 LINE",
"107 810 LINE",
"107 0 LINE"
);
},
{
closed = 1;
nodes = (
"434 370 LINE",
"434 492 LINE",
"30 492 LINE",
"30 370 LINE"
);
}
);
width = 529;
}
);
leftKerningGroup = "Ghestroke-cy";
rightKerningGroup = "Ghestroke-cy";
unicode = 0492;
},
{
color = 4;
glyphname = "Zhedescender-cy";
layers = (
{
anchors = (
{
name = bottomright;
position = "{809, 0}";
},
{
name = top;
position = "{415, 810}";
}
);
layerId = "3FB85DAF-C7EF-4F81-BE96-1E190958879E";
paths = (
{
closed = 1;
nodes = (
"181 0 LINE",
"328 390 LINE",
"337 390 LINE",
"337 0 LINE",
"492 0 LINE",
"492 390 LINE",
"501 390 LINE",
"648 0 LINE",
"823 0 LINE",
"658 405 LINE",
"823 810 LINE",
"639 810 LINE",
"501 435 LINE",
"492 435 LINE",
"492 810 LINE",
"337 810 LINE",
"337 435 LINE",
"328 435 LINE",
"190 810 LINE",
"6 810 LINE",
"171 405 LINE",
"6 0 LINE"
);
},
{
closed = 1;
nodes = (
"854 -164 LINE",
"854 132 LINE",
"704 132 LINE",
"732 -164 LINE"
);
},
{
closed = 1;
nodes = (
"659 0 LINE",
"832 0 LINE",
"832 132 LINE",
"659 132 LINE"
);
}
);
width = 884;
}
);
leftKerningGroup = "Zhe-cy";
rightKerningGroup = "Zhe-cy";
unicode = 0496;
},
{
color = 4;
glyphname = "Kadescender-cy";
layers = (
{
layerId = "3FB85DAF-C7EF-4F81-BE96-1E190958879E";
paths = (
{
closed = 1;
nodes = (
"257 0 LINE",
"257 338 LINE",
"267 351 LINE",
"373 0 LINE",
"576 0 LINE",
"427 442 LINE",
"574 810 LINE",
"379 810 LINE",
"257 494 LINE",
"257 810 LINE",
"59 810 LINE",
"59 0 LINE"
);
},
{
closed = 1;
nodes = (
"608 -183 LINE",
"608 132 LINE",
"459 132 LINE",
"487 -183 LINE"
);
},
{
closed = 1;
nodes = (
"403 0 LINE",
"576 0 LINE",
"576 132 LINE",
"403 132 LINE"
);
}
);
width = 622;
}
);
leftKerningGroup = "Be-cy";
rightKerningGroup = "Zhe-cy";
unicode = 049A;
},
{
color = 4;
glyphname = "Endescender-cy";
layers = (
{
layerId = "3FB85DAF-C7EF-4F81-BE96-1E190958879E";
paths = (
{
closed = 1;
nodes = (
"261 0 LINE",
"261 347 LINE",
"362 347 LINE",
"362 0 LINE",
"561 0 LINE",
"561 810 LINE",
"362 810 LINE",
"362 489 LINE",
"261 489 LINE",
"261 810 LINE",
"63 810 LINE",
"63 0 LINE"
);
},
{
closed = 1;
nodes = (
"645 -164 LINE",
"645 132 LINE",
"496 132 LINE",
"524 -164 LINE"
);
},
{
closed = 1;
nodes = (
"418 0 LINE",
"591 0 LINE",
"591 132 LINE",
"418 132 LINE"
);
}
);
width = 673;
}
);
leftKerningGroup = "Be-cy";
rightKerningGroup = "De-cy";
unicode = 04A2;
},
{
color = 9;
glyphname = "Ustraitstroke-cy";
layers = (
{
components = (
{
name = "Ustrait-cy";
transform = "{1, 0, 0, 1, 9, 0}";
}
);
layerId = "3FB85DAF-C7EF-4F81-BE96-1E190958879E";
paths = (
{
closed = 1;
nodes = (
"498 280 LINE",
"498 400 LINE",
"21 400 LINE",
"21 280 LINE"
);
}
);
width = 509;
}
);
leftKerningGroup = "Ustrait-cy";
rightKerningGroup = "Ustrait-cy";
unicode = 04B0;
userData = {
com.typemytype.robofont.layerData = {
b = {
anchors = (
);
components = (
);
contours = (
);
lib = {
};
name = uni04B0;
unicodes = (
);
width = 830;
};
};
};
},
{
color = 4;
glyphname = "Shha-cy";
layers = (
{
layerId = "3FB85DAF-C7EF-4F81-BE96-1E190958879E";
paths = (
{
closed = 1;
nodes = (
"59 810 LINE",
"59 0 LINE",
"257 0 LINE",
"257 367 LINE",
"269 371 OFFCURVE",
"287 373 OFFCURVE",
"298 373 CURVE SMOOTH",
"363 373 OFFCURVE",
"382 338 OFFCURVE",
"382 229 CURVE SMOOTH",
"382 0 LINE",
"580 0 LINE",
"580 280 LINE SMOOTH",
"580 423 OFFCURVE",
"483 494 OFFCURVE",
"338 494 CURVE SMOOTH",
"310 494 OFFCURVE",
"290 492 OFFCURVE",
"257 486 CURVE",
"257 810 LINE"
);
}
);
width = 622;
}
);
leftKerningGroup = "Be-cy";
rightKerningGroup = "Tshe-cy";
unicode = 04BA;
},
{
color = 4;
glyphname = "Entail-cy";
layers = (
{
layerId = "3FB85DAF-C7EF-4F81-BE96-1E190958879E";
paths = (
{
closed = 1;
nodes = (
"261 0 LINE",
"261 347 LINE",
"362 347 LINE",
"362 0 LINE",
"561 0 LINE",
"561 810 LINE",
"362 810 LINE",
"362 489 LINE",
"261 489 LINE",
"261 810 LINE",
"63 810 LINE",
"63 0 LINE"
);
},
{
closed = 1;
nodes = (
"574 -164 LINE",
"646 132 LINE",
"493 132 LINE",
"447 -164 LINE"
);
}
);
width = 655;
}
);
leftKerningGroup = "Be-cy";
rightKerningGroup = "Ii-cy";
unicode = 04C9;
},
{
color = 4;
glyphname = "Obarred-cy";
layers = (
{
anchors = (
{
name = bottom;
position = "{300, 0}";
},
{
name = center;
position = "{300, 405}";
},
{
name = ogonek;
position = "{320, 0}";
},
{
name = top;
position = "{300, 810}";
},
{
name = topleft;
position = "{20, 810}";
},
{
name = topright;
position = "{373, 810}";
}
);
layerId = "3FB85DAF-C7EF-4F81-BE96-1E190958879E";
paths = (
{
closed = 1;
nodes = (
"442 363 LINE",
"442 483 LINE",
"149 483 LINE",
"149 363 LINE"
);
},
{
closed = 1;
nodes = (
"487 -13 OFFCURVE",
"550 86 OFFCURVE",
"550 255 CURVE SMOOTH",
"550 554 LINE SMOOTH",
"550 724 OFFCURVE",
"487 822 OFFCURVE",
"299 822 CURVE SMOOTH",
"111 822 OFFCURVE",
"49 724 OFFCURVE",
"49 554 CURVE SMOOTH",
"49 255 LINE SMOOTH",
"49 86 OFFCURVE",
"111 -13 OFFCURVE",
"299 -13 CURVE SMOOTH"
);
},
{
closed = 1;
nodes = (
"253 125 OFFCURVE",
"252 171 OFFCURVE",
"252 205 CURVE SMOOTH",
"252 605 LINE SMOOTH",
"252 640 OFFCURVE",
"256 685 OFFCURVE",
"299 685 CURVE SMOOTH",
"344 685 OFFCURVE",
"347 640 OFFCURVE",
"347 605 CURVE SMOOTH",
"347 205 LINE SMOOTH",
"347 171 OFFCURVE",
"344 125 OFFCURVE",
"299 125 CURVE SMOOTH"
);
}
);
width = 599;
}
);
leftKerningGroup = "O-cy";
rightKerningGroup = "O-cy";
unicode = 04E8;
userData = {
com.fontlab.hintData = {
hhints = (
{
position = -26;
width = 284;
},
{
position = 1400;
width = 284;
}
);
vhints = (
{
position = 80;
width = 424;
},
{
position = 688;
width = 424;
}
);
};
com.typemytype.robofont.layerData = {
b = {
anchors = (
);
components = (
);
contours = (
);
lib = {
};
name = uni04E8;
unicodes = (
);
width = 1056;
};
};
};
},
{
color = 1;
export = 0;
glyphname = "Iishorttail-cy";
layers = (
{
components = (
{
name = "Ii-cy";
},
{
name = "brevecomb-cy";
transform = "{1, 0, 0, 1, 27, 232}";
}
);
layerId = "3FB85DAF-C7EF-4F81-BE96-1E190958879E";
paths = (
{
closed = 1;
nodes = (
"555 -183 LINE",
"627 132 LINE",
"474 132 LINE",
"428 -183 LINE"
);
}
);
width = 627;
}
);
unicode = 048A;
},
{
color = 4;
export = 0;
glyphname = "Izhitsa-cy";
layers = (
{
layerId = "3FB85DAF-C7EF-4F81-BE96-1E190958879E";
paths = (
{
closed = 1;
nodes = (
"373 0 LINE",
"459 496 LINE SMOOTH",
"489 670 OFFCURVE",
"507 715 OFFCURVE",
"558 715 CURVE",
"568 828 LINE",
"551 830 OFFCURVE",
"535 831 OFFCURVE",
"521 831 CURVE SMOOTH",
"385 831 OFFCURVE",
"325 743 OFFCURVE",
"306 596 CURVE SMOOTH",
"264 274 LINE",
"188 810 LINE",
"22 810 LINE",
"158 0 LINE"
);
}
);
width = 590;
}
);
leftKerningGroup = "Izhitsa-cy";
unicode = 0474;
},
{
color = 4;
export = 0;
glyphname = "Ghemiddlehook-cy";
layers = (
{
layerId = "3FB85DAF-C7EF-4F81-BE96-1E190958879E";
paths = (
{
closed = 1;
nodes = (
"523 -172 OFFCURVE",
"581 -90 OFFCURVE",
"581 -5 CURVE SMOOTH",
"581 292 LINE SMOOTH",
"581 432 OFFCURVE",
"501 490 OFFCURVE",
"391 490 CURVE SMOOTH",
"344 490 OFFCURVE",
"294 477 OFFCURVE",
"259 451 CURVE",
"259 673 LINE",
"455 673 LINE",
"455 810 LINE",
"63 810 LINE",
"63 0 LINE",
"259 0 LINE",
"259 353 LINE",
"279 366 OFFCURVE",
"295 376 OFFCURVE",
"319 376 CURVE SMOOTH",
"368 376 OFFCURVE",
"385 350 OFFCURVE",
"385 293 CURVE SMOOTH",
"385 1 LINE SMOOTH",
"385 -24 OFFCURVE",
"375 -46 OFFCURVE",
"351 -55 CURVE SMOOTH",
"343 -58 OFFCURVE",
"333 -60 OFFCURVE",
"322 -60 CURVE",
"322 -169 LINE",
"334 -170 OFFCURVE",
"336 -172 OFFCURVE",
"383 -172 CURVE SMOOTH"
);
}
);
width = 623;
}
);
leftKerningGroup = "Be-cy";
unicode = 0494;
},
{
color = 4;
export = 0;
glyphname = "Zedescender-cy";
layers = (
{
layerId = "3FB85DAF-C7EF-4F81-BE96-1E190958879E";
paths = (
{
closed = 1;
nodes = (
"441 -17 OFFCURVE",
"502 91 OFFCURVE",
"502 241 CURVE SMOOTH",
"502 358 OFFCURVE",
"459 402 OFFCURVE",
"408 423 CURVE",
"459 436 OFFCURVE",
"502 507 OFFCURVE",
"502 601 CURVE SMOOTH",
"502 750 OFFCURVE",
"414 824 OFFCURVE",
"271 824 CURVE SMOOTH",
"131 824 OFFCURVE",
"37 743 OFFCURVE",
"37 592 CURVE SMOOTH",
"37 537 LINE",
"222 537 LINE",
"222 558 OFFCURVE",
"222 586 OFFCURVE",
"222 587 CURVE SMOOTH",
"222 641 OFFCURVE",
"233 677 OFFCURVE",
"269 677 CURVE SMOOTH",
"306 677 OFFCURVE",
"321 647 OFFCURVE",
"321 587 CURVE SMOOTH",
"321 507 OFFCURVE",
"307 468 OFFCURVE",
"236 468 CURVE SMOOTH",
"221 468 OFFCURVE",
"206 468 OFFCURVE",
"191 468 CURVE",
"191 352 LINE",
"212 352 OFFCURVE",
"239 352 OFFCURVE",
"240 352 CURVE SMOOTH",
"308 351 OFFCURVE",
"321 314 OFFCURVE",
"321 235 CURVE SMOOTH",
"321 167 OFFCURVE",
"313 139 OFFCURVE",
"277 139 CURVE SMOOTH",
"240 139 OFFCURVE",
"229 165 OFFCURVE",
"229 248 CURVE SMOOTH",
"229 261 OFFCURVE",
"229 279 OFFCURVE",
"229 280 CURVE",
"43 280 LINE",
"43 251 LINE SMOOTH",
"43 93 OFFCURVE",
"93 -17 OFFCURVE",
"274 -17 CURVE SMOOTH"
);
},
{
closed = 1;
nodes = (
"335 -164 LINE",
"350 93 LINE",
"199 93 LINE",
"213 -164 LINE"
);
}
);
width = 539;
}
);
leftKerningGroup = "Ze-cy";
rightKerningGroup = "Ve-cy";
unicode = 0498;
},
{
color = 4;
export = 0;
glyphname = "Kaverticalstroke-cy";
layers = (
{
anchors = (
{
name = bottomright;
position = "{571, 0}";
},
{
name = top;
position = "{296, 810}";
}
);
layerId = "3FB85DAF-C7EF-4F81-BE96-1E190958879E";
paths = (
{
closed = 1;
nodes = (
"261 0 LINE",
"261 341 LINE",
"410 341 LINE",
"515 0 LINE",
"719 0 LINE",
"574 431 LINE",
"718 810 LINE",
"522 810 LINE",
"410 500 LINE",
"261 500 LINE",
"261 810 LINE",
"63 810 LINE",
"63 0 LINE"
);
},
{
closed = 1;
nodes = (
"380 609 LINE",
"290 609 LINE",
"290 191 LINE",
"380 191 LINE"
);
}
);
width = 729;
}
);
leftKerningGroup = "Be-cy";
rightKerningGroup = "Zhe-cy";
unicode = 049C;
},
{
color = 4;
export = 0;
glyphname = "Kastroke-cy";
layers = (
{
anchors = (
{
name = bottomright;
position = "{571, 0}";
},
{
name = top;
position = "{296, 810}";
}
);
layerId = "3FB85DAF-C7EF-4F81-BE96-1E190958879E";
paths = (
{
closed = 1;
nodes = (
"316 646 LINE",
"316 752 LINE",
"5 752 LINE",
"5 646 LINE"
);
},
{
closed = 1;
nodes = (
"261 0 LINE",
"261 341 LINE",
"282 341 LINE",
"387 0 LINE",
"591 0 LINE",
"446 431 LINE",
"590 810 LINE",
"394 810 LINE",
"282 500 LINE",
"261 500 LINE",
"261 810 LINE",
"63 810 LINE",
"63 0 LINE"
);
}
);
width = 601;
}
);
leftKerningGroup = "Be-cy";
rightKerningGroup = "Zhe-cy";
unicode = 049E;
},
{
color = 4;
export = 0;
glyphname = "Kabashkir-cy";
layers = (
{
layerId = "3FB85DAF-C7EF-4F81-BE96-1E190958879E";
paths = (
{
closed = 1;
nodes = (
"327 0 LINE",
"327 341 LINE",
"338 341 LINE",
"443 0 LINE",
"647 0 LINE",
"502 431 LINE",
"646 810 LINE",
"450 810 LINE",
"338 500 LINE",
"327 500 LINE",
"327 810 LINE",
"129 810 LINE",
"129 0 LINE"
);
},
{
closed = 1;
nodes = (
"327 663 LINE",
"327 810 LINE",
"10 810 LINE",
"10 663 LINE"
);
}
);
width = 657;
}
);
leftKerningGroup = "Te-cy";
rightKerningGroup = "Zhe-cy";
unicode = 04A0;
},
{
color = 4;
export = 0;
glyphname = "Enghe-cy";
layers = (
{
layerId = "3FB85DAF-C7EF-4F81-BE96-1E190958879E";
paths = (
{
closed = 1;
nodes = (
"261 0 LINE",
"261 347 LINE",
"362 347 LINE",
"362 0 LINE",
"561 0 LINE",
"561 810 LINE",
"362 810 LINE",
"362 489 LINE",
"261 489 LINE",
"261 810 LINE",
"63 810 LINE",
"63 0 LINE"
);
},
{
closed = 1;
nodes = (
"561 0 LINE",
"561 663 LINE",
"757 663 LINE",
"757 810 LINE",
"363 810 LINE",
"363 0 LINE"
);
}
);
width = 785;
}
);
leftKerningGroup = "Be-cy";
rightKerningGroup = "Ge-cy";
unicode = 04A4;
},
{
color = 0;
export = 0;
glyphname = "Pemiddlehook-cy";
layers = (
{
layerId = "3FB85DAF-C7EF-4F81-BE96-1E190958879E";
paths = (
{
closed = 1;
nodes = (
"822 -172 OFFCURVE",
"880 -90 OFFCURVE",
"880 -5 CURVE SMOOTH",
"880 292 LINE SMOOTH",
"880 432 OFFCURVE",
"802 490 OFFCURVE",
"690 490 CURVE SMOOTH",
"644 490 OFFCURVE",
"595 477 OFFCURVE",
"560 452 CURVE",
"560 810 LINE",
"63 810 LINE",
"63 0 LINE",
"257 0 LINE",
"257 668 LINE",
"364 668 LINE",
"364 0 LINE",
"560 0 LINE",
"560 354 LINE",
"579 367 OFFCURVE",
"595 376 OFFCURVE",
"618 376 CURVE SMOOTH",
"667 376 OFFCURVE",
"684 350 OFFCURVE",
"684 293 CURVE SMOOTH",
"684 1 LINE SMOOTH",
"684 -24 OFFCURVE",
"674 -47 OFFCURVE",
"649 -56 CURVE SMOOTH",
"641 -58 OFFCURVE",
"632 -60 OFFCURVE",
"621 -60 CURVE",
"621 -169 LINE",
"633 -170 OFFCURVE",
"635 -172 OFFCURVE",
"682 -172 CURVE SMOOTH"
);
}
);
width = 920;
}
);
leftKerningGroup = "Be-cy";
unicode = 04A6;
},
{
color = 4;
export = 0;
glyphname = "Pedescender-cy";
layers = (
{
layerId = "3FB85DAF-C7EF-4F81-BE96-1E190958879E";
paths = (
{
closed = 1;
nodes = (
"253 0 LINE",
"253 668 LINE",
"361 668 LINE",
"361 0 LINE",
"556 0 LINE",
"556 810 LINE",
"59 810 LINE",
"59 0 LINE"
);
},
{
closed = 1;
nodes = (
"640 -164 LINE",
"640 132 LINE",
"491 132 LINE",
"519 -164 LINE"
);
},
{
closed = 1;
nodes = (
"418 0 LINE",
"591 0 LINE",
"591 132 LINE",
"418 132 LINE"
);
}
);
width = 650;
}
);
leftKerningGroup = "Be-cy";
rightKerningGroup = "De-cy";
unicode = 0524;
},
{
color = 4;
export = 0;
glyphname = "Haabkhasian-cy";
layers = (
{
layerId = "3FB85DAF-C7EF-4F81-BE96-1E190958879E";
paths = (
{
closed = 1;
nodes = (
"834 133 LINE",
"814 129 OFFCURVE",
"785 126 OFFCURVE",
"755 126 CURVE SMOOTH",
"613 126 OFFCURVE",
"529 193 OFFCURVE",
"529 360 CURVE SMOOTH",
"529 604 LINE SMOOTH",
"529 640 OFFCURVE",
"532 685 OFFCURVE",
"578 685 CURVE SMOOTH",
"611 685 OFFCURVE",
"624 663 OFFCURVE",
"624 604 CURVE SMOOTH",
"624 359 LINE SMOOTH",
"624 207 OFFCURVE",
"567 124 OFFCURVE",
"405 124 CURVE SMOOTH",
"301 124 OFFCURVE",
"242 177 OFFCURVE",
"242 307 CURVE SMOOTH",
"242 540 LINE SMOOTH",
"242 635 OFFCURVE",
"261 682 OFFCURVE",
"326 682 CURVE",
"326 822 LINE",
"136 822 OFFCURVE",
"49 715 OFFCURVE",
"49 551 CURVE SMOOTH",
"49 295 LINE SMOOTH",
"49 124 OFFCURVE",
"136 -13 OFFCURVE",
"382 -13 CURVE SMOOTH",
"695 -13 OFFCURVE",
"803 195 OFFCURVE",
"803 363 CURVE SMOOTH",
"803 601 LINE SMOOTH",
"803 735 OFFCURVE",
"715 822 OFFCURVE",
"569 822 CURVE SMOOTH",
"410 822 OFFCURVE",
"348 720 OFFCURVE",
"348 604 CURVE SMOOTH",
"348 363 LINE SMOOTH",
"348 174 OFFCURVE",
"506 -11 OFFCURVE",
"727 -11 CURVE SMOOTH",
"776 -11 OFFCURVE",
"810 -2 OFFCURVE",
"834 7 CURVE"
);
}
);
width = 859;
}
);
leftKerningGroup = "O-cy";
unicode = 04A8;
},
{
color = 4;
export = 0;
glyphname = "Esdescender-cy";
layers = (
{
layerId = "3FB85DAF-C7EF-4F81-BE96-1E190958879E";
paths = (
{
closed = 1;
nodes = (
"487 -13 OFFCURVE",
"541 91 OFFCURVE",
"541 226 CURVE SMOOTH",
"541 298 LINE",
"346 298 LINE",
"346 206 LINE SMOOTH",
"346 171 OFFCURVE",
"345 125 OFFCURVE",
"299 125 CURVE SMOOTH",
"254 125 OFFCURVE",
"250 170 OFFCURVE",
"250 206 CURVE SMOOTH",
"250 604 LINE SMOOTH",
"250 639 OFFCURVE",
"253 685 OFFCURVE",
"299 685 CURVE SMOOTH",
"345 685 OFFCURVE",
"346 639 OFFCURVE",
"346 604 CURVE SMOOTH",
"346 516 LINE",
"541 516 LINE",
"541 588 LINE SMOOTH",
"541 723 OFFCURVE",
"487 822 OFFCURVE",
"299 822 CURVE SMOOTH",
"111 822 OFFCURVE",
"49 720 OFFCURVE",
"49 551 CURVE SMOOTH",
"49 258 LINE SMOOTH",
"49 90 OFFCURVE",
"111 -13 OFFCURVE",
"299 -13 CURVE SMOOTH"
);
},
{
closed = 1;
nodes = (
"353 -164 LINE",
"362 93 LINE",
"224 93 LINE",
"232 -164 LINE"
);
}
);
width = 577;
}
);
leftKerningGroup = "O-cy";
rightKerningGroup = "Es-cy";
unicode = 04AA;
},
{
color = 4;
export = 0;
glyphname = "Tedescender-cy";
layers = (
{
anchors = (
{
name = bottom;
position = "{227, 0}";
},
{
name = center;
position = "{227, 405}";
},
{
name = top;
position = "{227, 810}";
}
);
layerId = "3FB85DAF-C7EF-4F81-BE96-1E190958879E";
paths = (
{
closed = 1;
nodes = (
"327 0 LINE",
"327 663 LINE",
"444 663 LINE",
"444 810 LINE",
"10 810 LINE",
"10 663 LINE",
"128 663 LINE",
"128 0 LINE"
);
},
{
closed = 1;
nodes = (
"411 -164 LINE",
"411 132 LINE",
"262 132 LINE",
"290 -164 LINE"
);
},
{
closed = 1;
nodes = (
"189 0 LINE",
"362 0 LINE",
"362 132 LINE",
"189 132 LINE"
);
}
);
width = 454;
}
);
leftKerningGroup = "Te-cy";
rightKerningGroup = "Ge-cy";
unicode = 04AC;
},
{
color = 4;
export = 0;
glyphname = "Hadescender-cy";
layers = (
{
anchors = (
{
name = bottom;
position = "{262, 0}";
},
{
name = top;
position = "{262, 810}";
}
);
layerId = "3FB85DAF-C7EF-4F81-BE96-1E190958879E";
paths = (
{
closed = 1;
nodes = (
"166 0 LINE",
"245 224 LINE",
"334 0 LINE",
"520 0 LINE",
"369 382 LINE",
"502 810 LINE",
"340 810 LINE",
"280 610 LINE",
"201 810 LINE",
"13 810 LINE",
"159 440 LINE",
"5 0 LINE"
);
},
{
closed = 1;
nodes = (
"542 -164 LINE",
"542 132 LINE",
"393 132 LINE",
"421 -164 LINE"
);
},
{
closed = 1;
nodes = (
"343 0 LINE",
"516 0 LINE",
"516 132 LINE",
"343 132 LINE"
);
}
);
width = 560;
}
);
leftKerningGroup = "Ha-cy";
rightKerningGroup = "Ha-cy";
unicode = 04B2;
},
{
color = 4;
export = 0;
glyphname = "Tetse-cy";
layers = (
{
layerId = "3FB85DAF-C7EF-4F81-BE96-1E190958879E";
paths = (
{
closed = 1;
nodes = (
"664 810 LINE",
"466 810 LINE",
"466 132 LINE",
"327 132 LINE",
"327 663 LINE",
"414 663 LINE",
"414 810 LINE",
"10 810 LINE",
"10 663 LINE",
"128 663 LINE",
"128 0 LINE",
"607 0 LINE",
"626 -164 LINE",
"747 -164 LINE",
"747 132 LINE",
"664 132 LINE"
);
}
);
width = 787;
}
);
leftKerningGroup = "Te-cy";
rightKerningGroup = "De-cy";
unicode = 04B4;
},
{
color = 4;
export = 0;
glyphname = "Chedescender-cy";
layers = (
{
anchors = (
{
name = bottomright;
position = "{606, 0}";
},
{
name = top;
position = "{313, 810}";
}
);
layerId = "3FB85DAF-C7EF-4F81-BE96-1E190958879E";
paths = (
{
closed = 1;
nodes = (
"563 0 LINE",
"563 810 LINE",
"365 810 LINE",
"365 438 LINE",
"353 437 OFFCURVE",
"342 437 OFFCURVE",
"331 437 CURVE SMOOTH",
"242 437 OFFCURVE",
"240 472 OFFCURVE",
"240 515 CURVE SMOOTH",
"240 810 LINE",
"42 810 LINE",
"42 514 LINE SMOOTH",
"42 387 OFFCURVE",
"164 316 OFFCURVE",
"273 316 CURVE SMOOTH",
"306 316 OFFCURVE",
"331 318 OFFCURVE",
"365 321 CURVE",
"365 0 LINE"
);
},
{
closed = 1;
nodes = (
"647 -164 LINE",
"647 132 LINE",
"498 132 LINE",
"526 -164 LINE"
);
},
{
closed = 1;
nodes = (
"403 0 LINE",
"576 0 LINE",
"576 132 LINE",
"403 132 LINE"
);
}
);
width = 658;
}
);
leftKerningGroup = "Che-cy";
rightKerningGroup = "De-cy";
unicode = 04B6;
},
{
color = 4;
export = 0;
glyphname = "Cheverticalstroke-cy";
layers = (
{
anchors = (
{
name = bottomright;
position = "{642, 0}";
},
{
name = top;
position = "{349, 810}";
}
);
layerId = "3FB85DAF-C7EF-4F81-BE96-1E190958879E";
paths = (
{
closed = 1;
nodes = (
"362 578 LINE",
"272 578 LINE",
"272 191 LINE",
"362 191 LINE"
);
},
{
closed = 1;
nodes = (
"599 0 LINE",
"599 810 LINE",
"403 810 LINE",
"403 438 LINE",
"391 437 OFFCURVE",
"378 437 OFFCURVE",
"367 437 CURVE SMOOTH",
"227 437 OFFCURVE",
"225 472 OFFCURVE",
"225 539 CURVE SMOOTH",
"225 810 LINE",
"29 810 LINE",
"29 514 LINE SMOOTH",
"29 370 OFFCURVE",
"151 316 OFFCURVE",
"298 316 CURVE SMOOTH",
"331 316 OFFCURVE",
"369 318 OFFCURVE",
"403 321 CURVE",
"403 0 LINE"
);
}
);
width = 662;
}
);
leftKerningGroup = "Che-cy";
rightKerningGroup = "Ii-cy";
unicode = 04B8;
},
{
color = 4;
export = 0;
glyphname = "Shhadescender-cy";
layers = (
{
layerId = "3FB85DAF-C7EF-4F81-BE96-1E190958879E";
paths = (
{
closed = 1;
nodes = (
"59 810 LINE",
"59 0 LINE",
"257 0 LINE",
"257 372 LINE",
"269 373 OFFCURVE",
"280 373 OFFCURVE",
"291 373 CURVE SMOOTH",
"380 373 OFFCURVE",
"382 338 OFFCURVE",
"382 295 CURVE SMOOTH",
"382 0 LINE",
"580 0 LINE",
"580 296 LINE SMOOTH",
"580 423 OFFCURVE",
"483 494 OFFCURVE",
"338 494 CURVE SMOOTH",
"310 494 OFFCURVE",
"291 492 OFFCURVE",
"257 489 CURVE",
"257 810 LINE"
);
},
{
closed = 1;
nodes = (
"665 -164 LINE",
"664 132 LINE",
"515 132 LINE",
"544 -164 LINE"
);
},
{
closed = 1;
nodes = (
"403 0 LINE",
"576 0 LINE",
"576 132 LINE",
"403 132 LINE"
);
}
);
width = 675;
}
);
leftKerningGroup = "Be-cy";
rightKerningGroup = "Tshe-cy";
unicode = 0526;
},
{
color = 4;
export = 0;
glyphname = "Cheabkhasian-cy";
layers = (
{
anchors = (
{
name = top;
position = "{545, 810}";
}
);
layerId = "3FB85DAF-C7EF-4F81-BE96-1E190958879E";
paths = (
{
closed = 1;
nodes = (
"397 822 OFFCURVE",
"294 730 OFFCURVE",
"294 568 CURVE SMOOTH",
"294 244 LINE SMOOTH",
"294 81 OFFCURVE",
"397 -13 OFFCURVE",
"542 -13 CURVE SMOOTH",
"694 -13 OFFCURVE",
"795 67 OFFCURVE",
"795 231 CURVE SMOOTH",
"795 325 LINE",
"592 325 LINE",
"592 196 LINE SMOOTH",
"592 138 OFFCURVE",
"570 124 OFFCURVE",
"545 124 CURVE SMOOTH",
"519 124 OFFCURVE",
"497 138 OFFCURVE",
"497 196 CURVE SMOOTH",
"497 388 LINE",
"795 388 LINE",
"795 578 LINE SMOOTH",
"795 740 OFFCURVE",
"697 822 OFFCURVE",
"542 822 CURVE SMOOTH"
);
},
{
closed = 1;
nodes = (
"571 685 OFFCURVE",
"592 669 OFFCURVE",
"592 615 CURVE SMOOTH",
"592 501 LINE",
"497 501 LINE",
"497 615 LINE SMOOTH",
"497 669 OFFCURVE",
"517 685 OFFCURVE",
"544 685 CURVE SMOOTH"
);
},
{
closed = 1;
nodes = (
"305 501 LINE SMOOTH",
"221 501 OFFCURVE",
"202 551 OFFCURVE",
"210 629 CURVE",
"28 629 LINE",
"20 489 OFFCURVE",
"60 388 OFFCURVE",
"306 388 CURVE SMOOTH",
"340 388 LINE",
"340 501 LINE"
);
}
);
width = 840;
}
);
leftKerningGroup = "Cheabkhasian-cy";
rightKerningGroup = "Cheabkhasian-cy";
unicode = 04BC;
},
{
color = 0;
export = 0;
glyphname = "Chedescenderabkhasian-cy";
layers = (
{
components = (
{
name = "Cheabkhasian-cy";
},
{
name = dieresiscomb;
transform = "{1, 0, 0, 1, 546, 232}";
}
);
layerId = "3FB85DAF-C7EF-4F81-BE96-1E190958879E";
paths = (
{
closed = 1;
nodes = (
"604 -164 LINE",
"613 93 LINE",
"475 93 LINE",
"483 -164 LINE"
);
}
);
width = 840;
}
);
leftKerningGroup = "Cheabkhasian-cy";
rightKerningGroup = "Cheabkhasian-cy";
unicode = 04BE;
},
{
color = 4;
export = 0;
glyphname = "Kahook-cy";
layers = (
{
anchors = (
{
name = bottomright;
position = "{571, 0}";
},
{
name = top;
position = "{296, 810}";
}
);
layerId = "3FB85DAF-C7EF-4F81-BE96-1E190958879E";
paths = (
{
closed = 1;
nodes = (
"501 -172 OFFCURVE",
"558 -90 OFFCURVE",
"558 -5 CURVE SMOOTH",
"558 209 LINE SMOOTH",
"558 363 OFFCURVE",
"491 406 OFFCURVE",
"436 431 CURVE",
"580 810 LINE",
"384 810 LINE",
"272 500 LINE",
"261 500 LINE",
"261 810 LINE",
"63 810 LINE",
"63 0 LINE",
"261 0 LINE",
"261 345 LINE",
"272 345 LINE SMOOTH",
"316 345 OFFCURVE",
"362 330 OFFCURVE",
"362 246 CURVE SMOOTH",
"362 1 LINE SMOOTH",
"362 -24 OFFCURVE",
"353 -47 OFFCURVE",
"328 -56 CURVE SMOOTH",
"320 -59 OFFCURVE",
"311 -60 OFFCURVE",
"300 -60 CURVE",
"300 -169 LINE",
"312 -170 OFFCURVE",
"314 -172 OFFCURVE",
"361 -172 CURVE SMOOTH"
);
}
);
width = 622;
}
);
leftKerningGroup = "Be-cy";
unicode = 04C3;
},
{
color = 4;
export = 0;
glyphname = "Eltail-cy";
layers = (
{
layerId = "3FB85DAF-C7EF-4F81-BE96-1E190958879E";
paths = (
{
closed = 1;
nodes = (
"310 -15 OFFCURVE",
"305 70 OFFCURVE",
"329 424 CURVE SMOOTH",
"344 658 LINE",
"417 658 LINE",
"417 0 LINE",
"614 0 LINE",
"614 810 LINE",
"164 810 LINE",
"138 468 LINE SMOOTH",
"115 160 OFFCURVE",
"131 138 OFFCURVE",
"9 138 CURVE",
"9 0 LINE"
);
},
{
closed = 1;
nodes = (
"626 -164 LINE",
"698 132 LINE",
"545 132 LINE",
"499 -164 LINE"
);
}
);
width = 707;
}
);
leftKerningGroup = "El-cy";
rightKerningGroup = "Ii-cy";
unicode = 04C5;
},
{
color = 4;
export = 0;
glyphname = "Enhook-cy";
layers = (
{
anchors = (
{
name = bottom;
position = "{312, 0}";
},
{
name = center;
position = "{312, 405}";
},
{
name = top;
position = "{312, 810}";
},
{
name = topleft;
position = "{20, 810}";
}
);
layerId = "3FB85DAF-C7EF-4F81-BE96-1E190958879E";
paths = (
{
closed = 1;
nodes = (
"503 -172 OFFCURVE",
"561 -90 OFFCURVE",
"561 -5 CURVE SMOOTH",
"561 810 LINE",
"362 810 LINE",
"362 489 LINE",
"261 489 LINE",
"261 810 LINE",
"63 810 LINE",
"63 0 LINE",
"261 0 LINE",
"261 347 LINE",
"362 347 LINE",
"362 1 LINE SMOOTH",
"362 -26 OFFCURVE",
"353 -50 OFFCURVE",
"324 -57 CURVE SMOOTH",
"318 -59 OFFCURVE",
"310 -60 OFFCURVE",
"302 -60 CURVE",
"302 -169 LINE",
"314 -170 OFFCURVE",
"316 -172 OFFCURVE",
"363 -172 CURVE SMOOTH"
);
}
);
width = 624;
}
);
leftKerningGroup = "Be-cy";
rightKerningGroup = "Enhook-cy";
unicode = 04C7;
},
{
color = 4;
export = 0;
glyphname = "Chekhakassian-cy";
layers = (
{
anchors = (
{
name = bottomright;
position = "{606, 0}";
},
{
name = top;
position = "{313, 810}";
}
);
layerId = "3FB85DAF-C7EF-4F81-BE96-1E190958879E";
paths = (
{
closed = 1;
nodes = (
"563 0 LINE",
"563 810 LINE",
"365 810 LINE",
"365 438 LINE",
"353 437 OFFCURVE",
"342 437 OFFCURVE",
"331 437 CURVE SMOOTH",
"242 437 OFFCURVE",
"240 472 OFFCURVE",
"240 515 CURVE SMOOTH",
"240 810 LINE",
"42 810 LINE",
"42 514 LINE SMOOTH",
"42 387 OFFCURVE",
"164 316 OFFCURVE",
"273 316 CURVE SMOOTH",
"306 316 OFFCURVE",
"331 318 OFFCURVE",
"365 321 CURVE",
"365 0 LINE"
);
},
{
closed = 1;
nodes = (
"402 -164 LINE",
"430 132 LINE",
"281 132 LINE",
"281 -164 LINE"
);
},
{
closed = 1;
nodes = (
"542 0 LINE",
"542 132 LINE",
"369 132 LINE",
"369 0 LINE"
);
}
);
width = 626;
}
);
leftKerningGroup = "Che-cy";
rightKerningGroup = "Ii-cy";
unicode = 04CB;
},
{
color = 4;
export = 0;
glyphname = "Emtail-cy";
layers = (
{
anchors = (
{
name = bottom;
position = "{359, 0}";
},
{
name = top;
position = "{359, 810}";
}
);
layerId = "3FB85DAF-C7EF-4F81-BE96-1E190958879E";
paths = (
{
closed = 1;
nodes = (
"196 0 LINE",
"209 530 LINE",
"298 0 LINE",
"425 0 LINE",
"507 525 LINE",
"523 0 LINE",
"661 0 LINE",
"647 810 LINE",
"440 810 LINE",
"358 393 LINE",
"285 810 LINE",
"69 810 LINE",
"56 0 LINE"
);
},
{
closed = 1;
nodes = (
"667 -164 LINE",
"739 132 LINE",
"586 132 LINE",
"540 -164 LINE"
);
}
);
width = 751;
}
);
leftKerningGroup = "Be-cy";
rightKerningGroup = "Ii-cy";
unicode = 04CD;
},
{
color = 4;
export = 0;
glyphname = "Gedescender-cy";
layers = (
{
layerId = "3FB85DAF-C7EF-4F81-BE96-1E190958879E";
paths = (
{
closed = 1;
nodes = (
"261 0 LINE",
"261 663 LINE",
"457 663 LINE",
"457 810 LINE",
"63 810 LINE",
"63 0 LINE"
);
},
{
closed = 1;
nodes = (
"345 -164 LINE",
"345 132 LINE",
"196 132 LINE",
"224 -164 LINE"
);
},
{
closed = 1;
nodes = (
"137 0 LINE",
"310 0 LINE",
"310 132 LINE",
"137 132 LINE"
);
}
);
width = 485;
}
);
unicode = 04F6;
},
{
color = 4;
export = 0;
glyphname = "Gestrokehook-cy";
layers = (
{
layerId = "3FB85DAF-C7EF-4F81-BE96-1E190958879E";
paths = (
{
closed = 1;
nodes = (
"305 0 LINE",
"305 677 LINE",
"502 677 LINE",
"502 810 LINE",
"107 810 LINE",
"107 0 LINE"
);
},
{
closed = 1;
nodes = (
"339 -171 OFFCURVE",
"401 -101 OFFCURVE",
"401 0 CURVE SMOOTH",
"401 111 LINE",
"213 111 LINE",
"213 0 LINE SMOOTH",
"213 -36 OFFCURVE",
"197 -59 OFFCURVE",
"134 -59 CURVE",
"134 -168 LINE",
"146 -169 OFFCURVE",
"164 -171 OFFCURVE",
"202 -171 CURVE SMOOTH"
);
},
{
closed = 1;
nodes = (
"434 371 LINE",
"434 492 LINE",
"30 492 LINE",
"30 371 LINE"
);
}
);
width = 530;
}
);
unicode = 04FA;
},
{
color = 4;
export = 0;
glyphname = "Hahook-cy";
layers = (
{
layerId = "3FB85DAF-C7EF-4F81-BE96-1E190958879E";
paths = (
{
closed = 1;
nodes = (
"464 -172 OFFCURVE",
"518 -90 OFFCURVE",
"518 4 CURVE SMOOTH",
"518 101 OFFCURVE",
"424 261 OFFCURVE",
"369 382 CURVE",
"502 810 LINE",
"340 810 LINE",
"280 610 LINE",
"201 810 LINE",
"13 810 LINE",
"159 440 LINE",
"5 0 LINE",
"166 0 LINE",
"248 228 LINE",
"280 162 OFFCURVE",
"330 54 OFFCURVE",
"330 12 CURVE SMOOTH",
"330 -17 OFFCURVE",
"330 -62 OFFCURVE",
"270 -62 CURVE SMOOTH",
"263 -62 OFFCURVE",
"255 -61 OFFCURVE",
"247 -60 CURVE",
"247 -169 LINE",
"259 -170 OFFCURVE",
"277 -172 OFFCURVE",
"324 -172 CURVE SMOOTH"
);
}
);
width = 540;
}
);
leftKerningGroup = "Ha-cy";
rightKerningGroup = "Ha-cy";
unicode = 04FC;
},
{
color = 4;
export = 0;
glyphname = "Hastroke-cy";
layers = (
{
components = (
{
name = X;
}
);
layerId = "3FB85DAF-C7EF-4F81-BE96-1E190958879E";
paths = (
{
closed = 1;
nodes = (
"500 368 LINE",
"500 487 LINE",
"30 487 LINE",
"30 368 LINE"
);
}
);
width = 524;
}
);
unicode = 04FE;
},
{
color = 4;
export = 0;
glyphname = "Elhook-cy";
layers = (
{
layerId = "3FB85DAF-C7EF-4F81-BE96-1E190958879E";
paths = (
{
closed = 1;
nodes = (
"555 -172 OFFCURVE",
"614 -90 OFFCURVE",
"614 -5 CURVE SMOOTH",
"614 810 LINE",
"164 810 LINE",
"138 468 LINE SMOOTH",
"115 160 OFFCURVE",
"117 138 OFFCURVE",
"9 138 CURVE",
"9 0 LINE",
"35 -2 OFFCURVE",
"59 -3 OFFCURVE",
"81 -3 CURVE SMOOTH",
"293 -3 OFFCURVE",
"307 103 OFFCURVE",
"329 424 CURVE SMOOTH",
"344 658 LINE",
"417 658 LINE",
"417 1 LINE SMOOTH",
"417 -23 OFFCURVE",
"408 -44 OFFCURVE",
"386 -54 CURVE SMOOTH",
"377 -58 OFFCURVE",
"367 -60 OFFCURVE",
"354 -60 CURVE",
"354 -169 LINE",
"366 -170 OFFCURVE",
"388 -172 OFFCURVE",
"415 -172 CURVE SMOOTH"
);
}
);
width = 678;
}
);
leftKerningGroup = "El-cy";
rightKerningGroup = "Enhook-cy";
unicode = 0512;
},
{
color = 4;
export = 0;
glyphname = "Semisoftsign-cy";
layers = (
{
layerId = "3FB85DAF-C7EF-4F81-BE96-1E190958879E";
paths = (
{
closed = 1;
nodes = (
"319 0 LINE SMOOTH",
"452 0 OFFCURVE",
"575 28 OFFCURVE",
"575 233 CURVE SMOOTH",
"575 388 OFFCURVE",
"488 466 OFFCURVE",
"342 466 CURVE SMOOTH",
"300 466 LINE",
"300 810 LINE",
"102 810 LINE",
"102 0 LINE"
);
},
{
closed = 1;
nodes = (
"300 330 LINE",
"318 330 LINE SMOOTH",
"379 330 OFFCURVE",
"391 283 OFFCURVE",
"392 238 CURVE SMOOTH",
"395 170 OFFCURVE",
"378 128 OFFCURVE",
"320 128 CURVE SMOOTH",
"300 128 LINE"
);
},
{
closed = 1;
nodes = (
"425 563 LINE",
"425 683 LINE",
"10 683 LINE",
"10 563 LINE"
);
}
);
width = 613;
}
);
unicode = 048C;
},
{
color = 4;
export = 0;
glyphname = "Ertick-cy";
layers = (
{
anchors = (
{
name = bottom;
position = "{299, 0}";
},
{
name = top;
position = "{299, 810}";
}
);
layerId = "3FB85DAF-C7EF-4F81-BE96-1E190958879E";
paths = (
{
closed = 1;
nodes = (
"257 0 LINE",
"257 324 LINE",
"324 324 LINE SMOOTH",
"451 324 OFFCURVE",
"569 358 OFFCURVE",
"569 566 CURVE SMOOTH",
"569 728 OFFCURVE",
"497 810 OFFCURVE",
"352 810 CURVE SMOOTH",
"59 810 LINE",
"59 0 LINE"
);
},
{
closed = 1;
nodes = (
"589 324 LINE",
"336 569 LINE",
"279 513 LINE",
"532 268 LINE"
);
},
{
closed = 1;
nodes = (
"257 671 LINE",
"318 671 LINE SMOOTH",
"379 671 OFFCURVE",
"383 621 OFFCURVE",
"383 569 CURVE SMOOTH",
"383 500 OFFCURVE",
"376 462 OFFCURVE",
"320 462 CURVE SMOOTH",
"257 462 LINE"
);
}
);
width = 597;
}
);
leftKerningGroup = "Be-cy";
rightKerningGroup = "Er-cy";
unicode = 048E;
},
{
color = 4;
export = 0;
glyphname = "EnLeftHook-cy";
layers = (
{
anchors = (
{
name = bottom;
position = "{342, 0}";
},
{
name = center;
position = "{342, 405}";
},
{
name = top;
position = "{342, 810}";
},
{
name = topleft;
position = "{50, 810}";
}
);
layerId = "3FB85DAF-C7EF-4F81-BE96-1E190958879E";
paths = (
{
closed = 1;
nodes = (
"236 -172 OFFCURVE",
"291 -90 OFFCURVE",
"291 -5 CURVE SMOOTH",
"291 347 LINE",
"392 347 LINE",
"392 0 LINE",
"591 0 LINE",
"591 810 LINE",
"392 810 LINE",
"392 489 LINE",
"291 489 LINE",
"291 810 LINE",
"93 810 LINE",
"93 1 LINE SMOOTH",
"93 -26 OFFCURVE",
"86 -52 OFFCURVE",
"57 -57 CURVE SMOOTH",
"51 -58 OFFCURVE",
"43 -60 OFFCURVE",
"35 -60 CURVE",
"35 -169 LINE",
"47 -170 OFFCURVE",
"49 -172 OFFCURVE",
"96 -172 CURVE SMOOTH"
);
}
);
width = 654;
}
);
unicode = 0528;
},
{
color = 4;
export = 0;
glyphname = "Eldescender-cy";
layers = (
{
layerId = "3FB85DAF-C7EF-4F81-BE96-1E190958879E";
paths = (
{
closed = 1;
nodes = (
"310 -15 OFFCURVE",
"305 70 OFFCURVE",
"329 424 CURVE SMOOTH",
"344 658 LINE",
"417 658 LINE",
"417 0 LINE",
"614 0 LINE",
"614 810 LINE",
"164 810 LINE",
"138 468 LINE SMOOTH",
"115 160 OFFCURVE",
"131 138 OFFCURVE",
"9 138 CURVE",
"9 0 LINE"
);
},
{
closed = 1;
nodes = (
"693 -164 LINE",
"693 132 LINE",
"544 132 LINE",
"572 -164 LINE"
);
},
{
closed = 1;
nodes = (
"462 0 LINE",
"635 0 LINE",
"635 132 LINE",
"462 132 LINE"
);
}
);
width = 713;
}
);
unicode = 052E;
},
{
color = 1;
glyphname = "be-cy";
layers = (
{
layerId = "3FB85DAF-C7EF-4F81-BE96-1E190958879E";
paths = (
{
closed = 1;
nodes = (
"372 -12 OFFCURVE",
"456 28 OFFCURVE",
"456 206 CURVE SMOOTH",
"456 356 LINE SMOOTH",
"456 514 OFFCURVE",
"417 569 OFFCURVE",
"301 569 CURVE SMOOTH",
"229 569 OFFCURVE",
"185 556 OFFCURVE",
"160 526 CURVE",
"160 555 LINE SMOOTH",
"160 619 OFFCURVE",
"171 654 OFFCURVE",
"204 666 CURVE SMOOTH",
"261 688 OFFCURVE",
"343 686 OFFCURVE",
"412 719 CURVE",
"411 862 LINE",
"348 820 OFFCURVE",
"255 815 OFFCURVE",
"179 789 CURVE SMOOTH",
"100 762 OFFCURVE",
"43 708 OFFCURVE",
"43 548 CURVE SMOOTH",
"43 229 LINE SMOOTH",
"43 81 OFFCURVE",
"69 -7 OFFCURVE",
"247 -10 CURVE SMOOTH"
);
},
{
closed = 1;
nodes = (
"217 102 OFFCURVE",
"215 123 OFFCURVE",
"215 236 CURVE SMOOTH",
"215 389 LINE SMOOTH",
"215 450 OFFCURVE",
"227 469 OFFCURVE",
"252 469 CURVE SMOOTH",
"284 469 OFFCURVE",
"289 448 OFFCURVE",
"289 385 CURVE SMOOTH",
"289 237 LINE SMOOTH",
"289 121 OFFCURVE",
"288 102 OFFCURVE",
"253 102 CURVE SMOOTH"
);
}
);
width = 496;
}
);
rightKerningGroup = "be-cy";
unicode = 0431;
userData = {
com.fontlab.hintData = {
hhints = (
{
position = -20;
width = 50;
},
{
position = 1122;
width = 50;
}
);
vhints = (
{
position = 148;
width = 64;
},
{
position = 642;
width = 64;
}
);
};
com.typemytype.robofont.layerData = {
b = {
anchors = (
);
components = (
);
contours = (
);
lib = {
};
name = afii10066;
unicodes = (
);
width = 900;
};
};
};
},
{
glyphname = "ve-cy";
layers = (
{
layerId = "3FB85DAF-C7EF-4F81-BE96-1E190958879E";
paths = (
{
closed = 1;
nodes = (
"255 0 LINE SMOOTH",
"439 0 OFFCURVE",
"501 50 OFFCURVE",
"501 167 CURVE SMOOTH",
"501 245 OFFCURVE",
"481 290 OFFCURVE",
"394 313 CURVE",
"445 326 OFFCURVE",
"487 351 OFFCURVE",
"487 432 CURVE SMOOTH",
"487 521 OFFCURVE",
"458 578 OFFCURVE",
"267 578 CURVE SMOOTH",
"50 578 LINE",
"50 0 LINE"
);
},
{
closed = 1;
nodes = (
"229 260 LINE",
"252 260 LINE SMOOTH",
"297 260 OFFCURVE",
"327 260 OFFCURVE",
"327 172 CURVE SMOOTH",
"327 93 OFFCURVE",
"295 93 OFFCURVE",
"252 93 CURVE SMOOTH",
"229 93 LINE"
);
},
{
closed = 1;
nodes = (
"229 492 LINE",
"254 492 LINE SMOOTH",
"309 492 OFFCURVE",
"313 458 OFFCURVE",
"313 418 CURVE SMOOTH",
"313 379 OFFCURVE",
"304 352 OFFCURVE",
"266 352 CURVE SMOOTH",
"229 352 LINE"
);
}
);
width = 531;
}
);
leftKerningGroup = "ve-cy";
rightKerningGroup = "ve-cy";
unicode = 0432;
userData = {
com.fontlab.hintData = {
hhints = (
{
position = 0;
width = 191;
},
{
position = 533;
width = 187;
},
{
position = 1007;
width = 177;
}
);
vhints = (
{
position = 658;
width = 363;
},
{
position = 688;
width = 362;
}
);
};
com.typemytype.robofont.layerData = {
b = {
anchors = (
);
components = (
);
contours = (
);
lib = {
};
name = afii10067;
unicodes = (
);
width = 1096;
};
};
};
},
{
color = 1;
glyphname = "ge-cy";
layers = (
{
anchors = (
{
name = bottomright;
position = "{350, 0}";
},
{
name = top;
position = "{215, 578}";
}
);
layerId = "3FB85DAF-C7EF-4F81-BE96-1E190958879E";
paths = (
{
closed = 1;
nodes = (
"229 0 LINE",
"229 459 LINE",
"354 459 LINE",
"354 578 LINE",
"50 578 LINE",
"50 0 LINE"
);
}
);
width = 370;
}
);
leftKerningGroup = "ve-cy";
rightKerningGroup = "ge-cy";
unicode = 0433;
userData = {
com.fontlab.hintData = {
vhints = (
{
position = 85;
width = 628;
}
);
};
com.typemytype.robofont.layerData = {
b = {
anchors = (
);
components = (
);
contours = (
);
lib = {
};
name = afii10068;
unicodes = (
);
width = 764;
};
};
};
},
{
glyphname = "gheupturn-cy";
layers = (
{
layerId = "3FB85DAF-C7EF-4F81-BE96-1E190958879E";
paths = (
{
closed = 1;
nodes = (
"229 0 LINE",
"229 459 LINE",
"360 459 LINE",
"360 708 LINE",
"270 708 LINE",
"270 578 LINE",
"50 578 LINE",
"50 0 LINE"
);
}
);
width = 370;
}
);
leftKerningGroup = "ve-cy";
rightKerningGroup = "ge-cy";
unicode = 0491;
userData = {
com.fontlab.hintData = {
vhints = (
{
position = 85;
width = 628;
}
);
};
com.typemytype.robofont.layerData = {
b = {
anchors = (
);
components = (
);
contours = (
);
lib = {
};
name = afii10098;
unicodes = (
);
width = 584;
};
};
};
},
{
color = 1;
glyphname = "de-cy";
layers = (
{
layerId = "3FB85DAF-C7EF-4F81-BE96-1E190958879E";
paths = (
{
closed = 1;
nodes = (
"161 -164 LINE",
"171 0 LINE",
"481 0 LINE",
"493 -164 LINE",
"613 -164 LINE",
"613 107 LINE",
"535 107 LINE",
"535 578 LINE",
"200 578 LINE",
"179 357 LINE SMOOTH",
"167 225 OFFCURVE",
"130 143 OFFCURVE",
"41 107 CURVE",
"41 -164 LINE"
);
},
{
closed = 1;
nodes = (
"279 145 OFFCURVE",
"308 207 OFFCURVE",
"317 314 CURVE SMOOTH",
"332 475 LINE",
"373 475 LINE",
"373 107 LINE",
"238 107 LINE"
);
}
);
width = 639;
}
);
leftKerningGroup = "de-cy";
rightKerningGroup = "de-cy";
unicode = 0434;
userData = {
com.fontlab.hintData = {
hhints = (
{
position = -20;
width = 20;
}
);
vhints = (
{
position = 45;
width = 269;
},
{
position = 1037;
width = 257;
}
);
};
com.typemytype.robofont.layerData = {
b = {
anchors = (
);
components = (
);
contours = (
{
points = (
{
segmentType = line;
smooth = 0;
x = -30;
y = -10;
},
{
segmentType = line;
smooth = 1;
x = -13;
y = -10;
},
{
smooth = 0;
x = 179;
y = -10;
},
{
smooth = 0;
x = 238;
y = 121;
},
{
segmentType = curve;
smooth = 1;
x = 286;
y = 635;
},
{
segmentType = line;
smooth = 0;
x = 332;
y = 1132;
},
{
segmentType = line;
smooth = 0;
x = 652;
y = 1132;
},
{
segmentType = line;
smooth = 0;
x = 652;
y = 0;
},
{
segmentType = line;
smooth = 0;
x = 716;
y = 0;
},
{
segmentType = line;
smooth = 0;
x = 716;
y = 1184;
},
{
segmentType = line;
smooth = 0;
x = 275;
y = 1184;
},
{
segmentType = line;
smooth = 1;
x = 226;
y = 635;
},
{
smooth = 0;
x = 180;
y = 116;
},
{
smooth = 0;
x = 118;
y = 45;
},
{
segmentType = curve;
smooth = 0;
x = -30;
y = 40;
}
);
}
);
lib = {
};
name = afii10069;
unicodes = (
);
width = 898;
};
};
};
},
{
color = 1;
glyphname = "zhe-cy";
layers = (
{
anchors = (
{
name = bottomright;
position = "{664, 0}";
},
{
name = top;
position = "{342, 578}";
}
);
layerId = "3FB85DAF-C7EF-4F81-BE96-1E190958879E";
paths = (
{
closed = 1;
nodes = (
"153 0 LINE",
"250 278 LINE",
"263 278 LINE",
"263 0 LINE",
"413 0 LINE",
"413 278 LINE",
"424 278 LINE",
"530 0 LINE",
"676 0 LINE",
"562 290 LINE",
"670 578 LINE",
"516 578 LINE",
"424 305 LINE",
"413 305 LINE",
"413 578 LINE",
"263 578 LINE",
"263 305 LINE",
"250 305 LINE",
"167 578 LINE",
"14 578 LINE",
"114 290 LINE",
"8 0 LINE"
);
}
);
width = 684;
}
);
leftKerningGroup = "zhe-cy";
rightKerningGroup = "zhe-cy";
unicode = 0436;
userData = {
com.typemytype.robofont.layerData = {
b = {
anchors = (
);
components = (
);
contours = (
);
lib = {
};
name = afii10072;
unicodes = (
);
width = 1408;
};
};
};
},
{
color = 1;
glyphname = "ze-cy";
layers = (
{
anchors = (
{
name = bottom;
position = "{236, 0}";
},
{
name = top;
position = "{236, 578}";
}
);
layerId = "3FB85DAF-C7EF-4F81-BE96-1E190958879E";
paths = (
{
closed = 1;
nodes = (
"384 -11 OFFCURVE",
"446 65 OFFCURVE",
"446 159 CURVE SMOOTH",
"446 245 OFFCURVE",
"412 279 OFFCURVE",
"361 300 CURVE",
"407 316 OFFCURVE",
"442 354 OFFCURVE",
"442 424 CURVE SMOOTH",
"442 519 OFFCURVE",
"383 589 OFFCURVE",
"239 589 CURVE SMOOTH",
"69 589 OFFCURVE",
"38 489 OFFCURVE",
"38 393 CURVE",
"177 393 LINE",
"177 446 OFFCURVE",
"189 467 OFFCURVE",
"230 467 CURVE SMOOTH",
"269 467 OFFCURVE",
"279 443 OFFCURVE",
"279 409 CURVE SMOOTH",
"279 360 OFFCURVE",
"264 343 OFFCURVE",
"187 343 CURVE",
"187 256 LINE",
"265 256 OFFCURVE",
"293 232 OFFCURVE",
"293 181 CURVE SMOOTH",
"293 141 OFFCURVE",
"280 111 OFFCURVE",
"237 111 CURVE SMOOTH",
"196 111 OFFCURVE",
"179 139 OFFCURVE",
"179 196 CURVE",
"38 196 LINE",
"38 96 OFFCURVE",
"57 -11 OFFCURVE",
"232 -11 CURVE SMOOTH"
);
}
);
width = 472;
}
);
leftKerningGroup = "ze-cy";
rightKerningGroup = "ve-cy";
unicode = 0437;
userData = {
com.fontlab.hintData = {
hhints = (
{
position = -22;
width = 252;
},
{
position = 525;
width = 178;
},
{
position = 953;
width = 253;
}
);
vhints = (
{
position = 72;
width = 293;
},
{
position = 608;
width = 318;
},
{
position = 638;
width = 296;
}
);
};
com.typemytype.robofont.layerData = {
b = {
anchors = (
);
components = (
);
contours = (
);
lib = {
};
name = afii10073;
unicodes = (
);
width = 975;
};
};
};
},
{
glyphname = "ii-cy";
layers = (
{
anchors = (
{
name = top;
position = "{263, 578}";
}
);
layerId = "3FB85DAF-C7EF-4F81-BE96-1E190958879E";
paths = (
{
closed = 1;
nodes = (
"190 0 LINE",
"330 281 LINE",
"330 0 LINE",
"474 0 LINE",
"474 578 LINE",
"335 578 LINE",
"190 292 LINE",
"190 578 LINE",
"50 578 LINE",
"50 0 LINE"
);
}
);
width = 523;
}
);
leftKerningGroup = "ve-cy";
rightKerningGroup = "ii-cy";
unicode = 0438;
userData = {
com.typemytype.robofont.layerData = {
b = {
anchors = (
);
components = (
);
contours = (
);
lib = {
};
name = afii10074;
unicodes = (
);
width = 1077.0708;
};
};
};
},
{
glyphname = "ka-cy";
layers = (
{
anchors = (
{
name = bottomright;
position = "{522, 0}";
},
{
name = top;
position = "{291, 578}";
}
);
layerId = "3FB85DAF-C7EF-4F81-BE96-1E190958879E";
paths = (
{
closed = 1;
nodes = (
"229 0 LINE",
"229 252 LINE",
"251 252 LINE",
"341 0 LINE",
"531 0 LINE",
"415 307 LINE",
"528 578 LINE",
"333 578 LINE",
"251 355 LINE",
"229 355 LINE",
"229 578 LINE",
"50 578 LINE",
"50 0 LINE"
);
}
);
width = 542;
}
);
leftKerningGroup = "ve-cy";
rightKerningGroup = "zhe-cy";
unicode = 043A;
userData = {
com.typemytype.robofont.guides = (
{
angle = 90;
isGlobal = 0;
magnetic = 5;
x = 182;
y = 388;
},
{
angle = 90;
isGlobal = 0;
magnetic = 5;
x = 351;
y = 403;
}
);
com.typemytype.robofont.layerData = {
b = {
anchors = (
);
components = (
);
contours = (
);
lib = {
};
name = afii10076;
unicodes = (
);
width = 727;
};
};
};
},
{
color = 1;
glyphname = "el-cy";
layers = (
{
layerId = "3FB85DAF-C7EF-4F81-BE96-1E190958879E";
paths = (
{
closed = 1;
nodes = (
"45 -6 LINE",
"227 -6 OFFCURVE",
"271 55 OFFCURVE",
"291 288 CURVE SMOOTH",
"306 459 LINE",
"362 459 LINE",
"362 0 LINE",
"541 0 LINE",
"541 578 LINE",
"155 578 LINE",
"134 329 LINE SMOOTH",
"120 160 OFFCURVE",
"100 119 OFFCURVE",
"12 119 CURVE",
"12 -6 LINE"
);
}
);
width = 591;
}
);
leftKerningGroup = "el-cy";
rightKerningGroup = "ii-cy";
unicode = 043B;
userData = {
com.fontlab.hintData = {
};
com.typemytype.robofont.layerData = {
b = {
anchors = (
);
components = (
);
contours = (
);
lib = {
};
name = afii10077;
unicodes = (
);
width = 871;
};
};
hhints = {
};
position = 0;
width = 246;
};
},
{
glyphname = "em-cy";
layers = (
{
layerId = "3FB85DAF-C7EF-4F81-BE96-1E190958879E";
paths = (
{
closed = 1;
nodes = (
"188 0 LINE",
"188 294 LINE",
"272 100 LINE",
"325 100 LINE",
"409 292 LINE",
"409 0 LINE",
"547 0 LINE",
"546 578 LINE",
"414 578 LINE",
"298 324 LINE",
"183 578 LINE",
"50 578 LINE",
"50 0 LINE"
);
}
);
width = 597;
}
);
leftKerningGroup = "ve-cy";
rightKerningGroup = "ii-cy";
unicode = 043C;
userData = {
com.typemytype.robofont.layerData = {
b = {
anchors = (
);
components = (
);
contours = (
);
lib = {
};
name = afii10078;
unicodes = (
);
width = 929;
};
};
};
},
{
color = 9;
glyphname = "en-cy";
layers = (
{
layerId = "3FB85DAF-C7EF-4F81-BE96-1E190958879E";
paths = (
{
closed = 1;
nodes = (
"229 0 LINE",
"229 238 LINE",
"315 238 LINE",
"315 0 LINE",
"494 0 LINE",
"494 578 LINE",
"315 578 LINE",
"315 360 LINE",
"229 360 LINE",
"229 578 LINE",
"50 578 LINE",
"50 0 LINE"
);
}
);
width = 544;
}
);
leftKerningGroup = "ve-cy";
rightKerningGroup = "ii-cy";
unicode = 043D;
userData = {
com.typemytype.robofont.layerData = {
b = {
anchors = (
);
components = (
);
contours = (
);
lib = {
};
name = afii10079;
unicodes = (
);
width = 1122;
};
};
};
},
{
glyphname = "pe-cy";
layers = (
{
layerId = "3FB85DAF-C7EF-4F81-BE96-1E190958879E";
paths = (
{
closed = 1;
nodes = (
"229 0 LINE",
"229 458 LINE",
"302 458 LINE",
"302 0 LINE",
"481 0 LINE",
"481 578 LINE",
"50 578 LINE",
"50 0 LINE"
);
}
);
width = 531;
}
);
leftKerningGroup = "ve-cy";
rightKerningGroup = "ii-cy";
unicode = 043F;
userData = {
com.typemytype.robofont.layerData = {
b = {
anchors = (
);
components = (
);
contours = (
);
lib = {
};
name = afii10081;
unicodes = (
);
width = 1095;
};
};
};
},
{
glyphname = "te-cy";
layers = (
{
layerId = "3FB85DAF-C7EF-4F81-BE96-1E190958879E";
paths = (
{
closed = 1;
nodes = (
"300 0 LINE",
"300 459 LINE",
"404 459 LINE",
"404 578 LINE",
"18 578 LINE",
"18 459 LINE",
"121 459 LINE",
"121 0 LINE"
);
}
);
width = 422;
}
);
leftKerningGroup = "te-cy";
rightKerningGroup = "ge-cy";
unicode = 0442;
userData = {
com.typemytype.robofont.layerData = {
b = {
anchors = (
);
components = (
);
contours = (
);
lib = {
};
name = afii10084;
unicodes = (
);
width = 870;
};
};
};
},
{
glyphname = "ef-cy";
layers = (
{
layerId = "3FB85DAF-C7EF-4F81-BE96-1E190958879E";
paths = (
{
closed = 1;
nodes = (
"437 -167 LINE",
"437 1 LINE",
"459 1 LINE SMOOTH",
"540 1 OFFCURVE",
"682 50 OFFCURVE",
"682 202 CURVE SMOOTH",
"682 382 LINE SMOOTH",
"682 520 OFFCURVE",
"561 578 OFFCURVE",
"458 578 CURVE SMOOTH",
"437 578 LINE",
"437 809 LINE",
"284 809 LINE",
"284 578 LINE",
"266 578 LINE SMOOTH",
"165 578 OFFCURVE",
"41 520 OFFCURVE",
"41 382 CURVE SMOOTH",
"41 202 LINE SMOOTH",
"41 50 OFFCURVE",
"180 1 OFFCURVE",
"265 1 CURVE SMOOTH",
"284 1 LINE",
"284 -167 LINE"
);
},
{
closed = 1;
nodes = (
"234 104 OFFCURVE",
"209 139 OFFCURVE",
"209 187 CURVE SMOOTH",
"209 395 LINE SMOOTH",
"209 447 OFFCURVE",
"236 481 OFFCURVE",
"269 481 CURVE SMOOTH",
"284 481 LINE",
"284 104 LINE",
"269 104 LINE"
);
},
{
closed = 1;
nodes = (
"437 481 LINE",
"450 481 LINE SMOOTH",
"483 481 OFFCURVE",
"514 447 OFFCURVE",
"514 395 CURVE SMOOTH",
"514 187 LINE SMOOTH",
"514 139 OFFCURVE",
"480 104 OFFCURVE",
"450 104 CURVE SMOOTH",
"437 104 LINE"
);
}
);
width = 723;
}
);
leftKerningGroup = "ie-cy";
rightKerningGroup = "be-cy";
unicode = 0444;
userData = {
com.fontlab.hintData = {
hhints = (
{
position = -2;
width = 211;
},
{
position = 985;
width = 204;
},
{
position = 990;
width = 200;
}
);
};
com.typemytype.robofont.guides = (
{
angle = 0;
isGlobal = 0;
magnetic = 5;
x = 835;
y = 212;
},
{
angle = 0;
isGlobal = 0;
magnetic = 5;
x = 612;
y = 985;
}
);
com.typemytype.robofont.layerData = {
b = {
anchors = (
);
components = (
);
contours = (
);
lib = {
};
name = afii10086;
unicodes = (
);
width = 1032;
};
};
};
},
{
glyphname = "che-cy";
layers = (
{
anchors = (
{
name = bottomright;
position = "{494, 0}";
},
{
name = top;
position = "{257, 578}";
}
);
layerId = "3FB85DAF-C7EF-4F81-BE96-1E190958879E";
paths = (
{
closed = 1;
nodes = (
"464 0 LINE",
"464 578 LINE",
"285 578 LINE",
"285 329 LINE",
"281 329 OFFCURVE",
"278 329 OFFCURVE",
"274 329 CURVE SMOOTH",
"228 331 OFFCURVE",
"218 348 OFFCURVE",
"218 390 CURVE SMOOTH",
"218 578 LINE",
"40 578 LINE",
"40 377 LINE SMOOTH",
"40 295 OFFCURVE",
"72 232 OFFCURVE",
"239 232 CURVE SMOOTH",
"254 232 OFFCURVE",
"269 233 OFFCURVE",
"285 234 CURVE",
"285 0 LINE"
);
}
);
width = 514;
}
);
leftKerningGroup = "che-cy";
rightKerningGroup = "ii-cy";
unicode = 0447;
userData = {
com.fontlab.hintData = {
hhints = (
{
position = 477;
width = 199;
}
);
};
com.typemytype.robofont.layerData = {
b = {
anchors = (
);
components = (
);
contours = (
);
lib = {
};
name = afii10089;
unicodes = (
);
width = 724;
};
};
};
},
{
glyphname = "tse-cy";
layers = (
{
layerId = "3FB85DAF-C7EF-4F81-BE96-1E190958879E";
paths = (
{
closed = 1;
nodes = (
"568 -164 LINE",
"568 107 LINE",
"480 107 LINE",
"480 578 LINE",
"301 578 LINE",
"301 107 LINE",
"229 107 LINE",
"229 578 LINE",
"49 578 LINE",
"49 0 LINE",
"437 0 LINE",
"448 -164 LINE"
);
}
);
width = 567;
}
);
leftKerningGroup = "ve-cy";
rightKerningGroup = "de-cy";
unicode = 0446;
userData = {
com.fontlab.hintData = {
vhints = (
{
position = 922;
width = 260;
}
);
};
com.typemytype.robofont.layerData = {
b = {
anchors = (
);
components = (
);
contours = (
);
lib = {
};
name = afii10088;
unicodes = (
);
width = 777;
};
};
};
},
{
color = 9;
glyphname = "sha-cy";
layers = (
{
layerId = "3FB85DAF-C7EF-4F81-BE96-1E190958879E";
paths = (
{
closed = 1;
nodes = (
"687 0 LINE",
"687 578 LINE",
"521 578 LINE",
"521 120 LINE",
"451 120 LINE",
"451 578 LINE",
"285 578 LINE",
"285 120 LINE",
"215 120 LINE",
"215 578 LINE",
"49 578 LINE",
"49 0 LINE"
);
}
);
width = 737;
}
);
leftKerningGroup = "ve-cy";
rightKerningGroup = "ii-cy";
unicode = 0448;
userData = {
com.typemytype.robofont.layerData = {
b = {
anchors = (
);
components = (
);
contours = (
);
lib = {
};
name = afii10090;
unicodes = (
);
width = 1517.85205;
};
};
};
},
{
color = 9;
glyphname = "shcha-cy";
layers = (
{
layerId = "3FB85DAF-C7EF-4F81-BE96-1E190958879E";
paths = (
{
closed = 1;
nodes = (
"771 -164 LINE",
"771 107 LINE",
"684 107 LINE",
"684 578 LINE",
"518 578 LINE",
"518 107 LINE",
"448 107 LINE",
"448 578 LINE",
"282 578 LINE",
"282 107 LINE",
"212 107 LINE",
"212 578 LINE",
"46 578 LINE",
"46 0 LINE",
"640 0 LINE",
"651 -164 LINE"
);
}
);
width = 771;
}
);
leftKerningGroup = "ve-cy";
rightKerningGroup = "de-cy";
unicode = 0449;
userData = {
com.fontlab.hintData = {
vhints = (
{
position = 1350;
width = 280;
}
);
};
com.typemytype.robofont.layerData = {
b = {
anchors = (
);
components = (
);
contours = (
{
points = (
{
segmentType = line;
smooth = 0;
x = 999;
y = -264;
},
{
segmentType = line;
smooth = 0;
x = 1050;
y = -264;
},
{
segmentType = line;
smooth = 0;
x = 1050;
y = 44;
},
{
segmentType = line;
smooth = 0;
x = 963;
y = 44;
},
{
segmentType = line;
smooth = 0;
x = 963;
y = 1184;
},
{
segmentType = line;
smooth = 0;
x = 899;
y = 1184;
},
{
segmentType = line;
smooth = 0;
x = 899;
y = 44;
},
{
segmentType = line;
smooth = 0;
x = 488;
y = 44;
},
{
segmentType = line;
smooth = 0;
x = 488;
y = 1184;
},
{
segmentType = line;
smooth = 0;
x = 424;
y = 1184;
},
{
segmentType = line;
smooth = 0;
x = 424;
y = 0;
},
{
segmentType = line;
smooth = 0;
x = 992;
y = 0;
}
);
}
);
lib = {
};
name = afii10091;
unicodes = (
);
width = 1096;
};
};
};
},
{
color = 9;
glyphname = "dzhe-cy";
layers = (
{
layerId = "3FB85DAF-C7EF-4F81-BE96-1E190958879E";
paths = (
{
closed = 1;
nodes = (
"335 -164 LINE",
"346 0 LINE",
"488 0 LINE",
"488 578 LINE",
"310 578 LINE",
"310 106 LINE",
"229 106 LINE",
"229 578 LINE",
"50 578 LINE",
"50 0 LINE",
"204 0 LINE",
"215 -164 LINE"
);
}
);
width = 539;
}
);
leftKerningGroup = "ve-cy";
rightKerningGroup = "ii-cy";
unicode = 045F;
userData = {
com.fontlab.hintData = {
};
com.typemytype.robofont.layerData = {
b = {
anchors = (
);
components = (
);
contours = (
{
points = (
{
segmentType = line;
smooth = 0;
x = 435;
y = -328;
},
{
segmentType = line;
smooth = 0;
x = 704;
y = -328;
},
{
segmentType = line;
smooth = 0;
x = 724;
y = 0;
},
{
segmentType = line;
smooth = 0;
x = 1345;
y = 0;
},
{
segmentType = line;
smooth = 0;
x = 1368;
y = -328;
},
{
segmentType = line;
smooth = 0;
x = 1634;
y = -328;
},
{
segmentType = line;
smooth = 0;
x = 1634;
y = 222;
},
{
segmentType = line;
smooth = 0;
x = 1453;
y = 222;
},
{
segmentType = line;
smooth = 0;
x = 1453;
y = 1184;
},
{
segmentType = line;
smooth = 0;
x = 762;
y = 1184;
},
{
segmentType = line;
smooth = 1;
x = 717;
y = 717;
},
{
smooth = 0;
x = 692;
y = 460;
},
{
smooth = 0;
x = 617;
y = 292;
},
{
segmentType = curve;
smooth = 0;
x = 435;
y = 222;
}
);
},
{
points = (
{
segmentType = line;
smooth = 0;
x = 846;
y = 222;
},
{
smooth = 0;
x = 928;
y = 298;
},
{
smooth = 0;
x = 984;
y = 424;
},
{
segmentType = curve;
smooth = 1;
x = 1003;
y = 629;
},
{
segmentType = line;
smooth = 0;
x = 1034;
y = 970;
},
{
segmentType = line;
smooth = 0;
x = 1117;
y = 970;
},
{
segmentType = line;
smooth = 0;
x = 1117;
y = 222;
}
);
}
);
lib = {
};
name = afii10193;
unicodes = (
);
width = 1110;
};
};
hhints = {
};
position = 593;
vhints = {
};
width = 153;
};
},
{
glyphname = "softsign-cy";
layers = (
{
layerId = "3FB85DAF-C7EF-4F81-BE96-1E190958879E";
paths = (
{
closed = 1;
nodes = (
"235 0 LINE SMOOTH",
"411 0 OFFCURVE",
"484 52 OFFCURVE",
"484 178 CURVE SMOOTH",
"484 309 OFFCURVE",
"392 348 OFFCURVE",
"231 348 CURVE SMOOTH",
"230 348 OFFCURVE",
"230 348 OFFCURVE",
"229 348 CURVE",
"229 578 LINE",
"50 578 LINE",
"50 0 LINE"
);
},
{
closed = 1;
nodes = (
"229 242 LINE",
"230 242 OFFCURVE",
"232 242 OFFCURVE",
"233 242 CURVE SMOOTH",
"293 241 OFFCURVE",
"321 228 OFFCURVE",
"321 172 CURVE SMOOTH",
"321 121 OFFCURVE",
"296 102 OFFCURVE",
"232 102 CURVE SMOOTH",
"229 102 LINE"
);
}
);
width = 514;
}
);
leftKerningGroup = "ve-cy";
rightKerningGroup = "softsign-cy";
unicode = 044C;
userData = {
com.fontlab.hintData = {
hhints = (
{
position = 0;
width = 211;
},
{
position = 493;
width = 220;
}
);
vhints = (
{
position = 634;
width = 338;
}
);
};
com.typemytype.robofont.layerData = {
b = {
anchors = (
);
components = (
);
contours = (
);
lib = {
};
name = afii10094;
unicodes = (
);
width = 729;
};
};
};
},
{
glyphname = "hardsign-cy";
layers = (
{
layerId = "3FB85DAF-C7EF-4F81-BE96-1E190958879E";
paths = (
{
closed = 1;
nodes = (
"301 0 LINE SMOOTH",
"477 0 OFFCURVE",
"550 49 OFFCURVE",
"550 169 CURVE SMOOTH",
"550 307 OFFCURVE",
"457 348 OFFCURVE",
"297 348 CURVE SMOOTH",
"294 348 LINE",
"294 578 LINE",
"9 578 LINE",
"9 459 LINE",
"116 459 LINE",
"116 0 LINE"
);
},
{
closed = 1;
nodes = (
"294 242 LINE",
"299 242 LINE SMOOTH",
"358 241 OFFCURVE",
"387 227 OFFCURVE",
"387 167 CURVE SMOOTH",
"387 120 OFFCURVE",
"362 103 OFFCURVE",
"298 102 CURVE SMOOTH",
"294 102 LINE"
);
}
);
width = 580;
}
);
leftKerningGroup = "te-cy";
rightKerningGroup = "softsign-cy";
unicode = 044A;
userData = {
com.fontlab.hintData = {
hhints = (
{
position = 0;
width = 211;
},
{
position = 493;
width = 220;
}
);
vhints = (
{
position = 798;
width = 338;
}
);
};
com.typemytype.robofont.layerData = {
b = {
anchors = (
);
components = (
);
contours = (
);
lib = {
};
name = afii10092;
unicodes = (
);
width = 872;
};
};
};
},
{
color = 1;
glyphname = "yeru-cy";
layers = (
{
anchors = (
{
name = top;
position = "{387, 578}";
}
);
layerId = "3FB85DAF-C7EF-4F81-BE96-1E190958879E";
paths = (
{
closed = 1;
nodes = (
"235 0 LINE SMOOTH",
"411 0 OFFCURVE",
"484 51 OFFCURVE",
"484 175 CURVE SMOOTH",
"484 308 OFFCURVE",
"392 348 OFFCURVE",
"231 348 CURVE SMOOTH",
"230 348 OFFCURVE",
"230 348 OFFCURVE",
"229 348 CURVE",
"229 578 LINE",
"50 578 LINE",
"50 0 LINE"
);
},
{
closed = 1;
nodes = (
"229 242 LINE",
"230 242 OFFCURVE",
"232 242 OFFCURVE",
"233 242 CURVE SMOOTH",
"293 241 OFFCURVE",
"321 228 OFFCURVE",
"321 172 CURVE SMOOTH",
"321 121 OFFCURVE",
"296 102 OFFCURVE",
"232 102 CURVE SMOOTH",
"229 102 LINE"
);
},
{
closed = 1;
nodes = (
"724 0 LINE",
"724 578 LINE",
"545 578 LINE",
"545 0 LINE"
);
}
);
width = 774;
}
);
leftKerningGroup = "ve-cy";
rightKerningGroup = "ii-cy";
unicode = 044B;
userData = {
com.fontlab.hintData = {
hhints = (
{
position = 0;
width = 211;
},
{
position = 493;
width = 220;
}
);
vhints = (
{
position = 643;
width = 338;
}
);
};
com.typemytype.robofont.layerData = {
b = {
anchors = (
);
components = (
);
contours = (
);
lib = {
};
name = afii10093;
unicodes = (
);
width = 999;
};
};
};
},
{
glyphname = "lje-cy";
layers = (
{
layerId = "3FB85DAF-C7EF-4F81-BE96-1E190958879E";
paths = (
{
closed = 1;
nodes = (
"76 -6 LINE",
"258 -6 OFFCURVE",
"302 55 OFFCURVE",
"322 288 CURVE SMOOTH",
"337 459 LINE",
"393 459 LINE",
"393 0 LINE",
"580 0 LINE SMOOTH",
"749 0 OFFCURVE",
"828 52 OFFCURVE",
"828 178 CURVE SMOOTH",
"828 308 OFFCURVE",
"735 348 OFFCURVE",
"576 348 CURVE SMOOTH",
"572 348 LINE",
"572 578 LINE",
"186 578 LINE",
"165 329 LINE SMOOTH",
"151 160 OFFCURVE",
"131 119 OFFCURVE",
"43 119 CURVE",
"43 -6 LINE"
);
},
{
closed = 1;
nodes = (
"572 242 LINE",
"575 242 LINE SMOOTH",
"635 242 OFFCURVE",
"665 228 OFFCURVE",
"665 171 CURVE SMOOTH",
"665 121 OFFCURVE",
"640 102 OFFCURVE",
"576 102 CURVE SMOOTH",
"572 102 LINE"
);
}
);
width = 854;
}
);
leftKerningGroup = "el-cy";
rightKerningGroup = "softsign-cy";
unicode = 0459;
userData = {
com.fontlab.hintData = {
};
com.typemytype.robofont.layerData = {
b = {
anchors = (
);
components = (
);
contours = (
{
points = (
{
segmentType = line;
smooth = 0;
x = 7;
y = -10;
},
{
segmentType = line;
smooth = 1;
x = 24;
y = -10;
},
{
smooth = 0;
x = 216;
y = -10;
},
{
smooth = 0;
x = 275;
y = 121;
},
{
segmentType = curve;
smooth = 1;
x = 323;
y = 635;
},
{
segmentType = line;
smooth = 0;
x = 369;
y = 1132;
},
{
segmentType = line;
smooth = 0;
x = 689;
y = 1132;
},
{
segmentType = line;
smooth = 0;
x = 689;
y = 0;
},
{
segmentType = line;
smooth = 0;
x = 753;
y = 0;
},
{
segmentType = line;
smooth = 0;
x = 753;
y = 1184;
},
{
segmentType = line;
smooth = 0;
x = 312;
y = 1184;
},
{
segmentType = line;
smooth = 1;
x = 263;
y = 635;
},
{
smooth = 0;
x = 217;
y = 116;
},
{
smooth = 0;
x = 155;
y = 45;
},
{
segmentType = curve;
smooth = 0;
x = 7;
y = 40;
}
);
}
);
lib = {
};
name = afii10106;
unicodes = (
);
width = 1198;
};
};
hhints = {
};
position = 602;
vhints = {
};
width = 137;
};
},
{
glyphname = "nje-cy";
layers = (
{
layerId = "3FB85DAF-C7EF-4F81-BE96-1E190958879E";
paths = (
{
closed = 1;
nodes = (
"229 0 LINE",
"229 198 LINE",
"302 198 LINE",
"302 1 LINE",
"481 1 LINE SMOOTH",
"654 1 OFFCURVE",
"727 51 OFFCURVE",
"727 170 CURVE SMOOTH",
"727 302 OFFCURVE",
"641 346 OFFCURVE",
"491 349 CURVE SMOOTH",
"488 349 OFFCURVE",
"484 349 OFFCURVE",
"481 349 CURVE",
"481 579 LINE",
"302 579 LINE",
"302 349 LINE",
"229 349 LINE",
"229 578 LINE",
"50 578 LINE",
"50 0 LINE"
);
},
{
closed = 1;
nodes = (
"481 243 LINE",
"482 243 OFFCURVE",
"483 243 OFFCURVE",
"485 243 CURVE SMOOTH",
"539 240 OFFCURVE",
"564 225 OFFCURVE",
"564 168 CURVE SMOOTH",
"564 123 OFFCURVE",
"542 105 OFFCURVE",
"485 103 CURVE SMOOTH",
"484 103 OFFCURVE",
"482 103 OFFCURVE",
"481 103 CURVE"
);
}
);
width = 753;
}
);
leftKerningGroup = "ve-cy";
rightKerningGroup = "softsign-cy";
unicode = 045A;
userData = {
com.fontlab.hintData = {
};
com.typemytype.robofont.layerData = {
b = {
anchors = (
);
components = (
);
contours = (
);
lib = {
};
name = afii10107;
unicodes = (
);
width = 1552;
};
};
hhints = {
};
position = 602;
vhints = {
};
width = 137;
};
},
{
glyphname = "e-cy";
layers = (
{
layerId = "3FB85DAF-C7EF-4F81-BE96-1E190958879E";
paths = (
{
closed = 1;
nodes = (
"369 -11 OFFCURVE",
"453 46 OFFCURVE",
"453 162 CURVE SMOOTH",
"453 220 LINE",
"278 220 LINE",
"278 161 LINE SMOOTH",
"278 123 OFFCURVE",
"264 116 OFFCURVE",
"248 116 CURVE SMOOTH",
"231 116 OFFCURVE",
"218 127 OFFCURVE",
"218 166 CURVE SMOOTH",
"218 258 LINE",
"349 258 LINE",
"349 330 LINE",
"218 330 LINE",
"218 413 LINE SMOOTH",
"218 452 OFFCURVE",
"231 463 OFFCURVE",
"247 463 CURVE SMOOTH",
"264 463 OFFCURVE",
"278 457 OFFCURVE",
"278 418 CURVE SMOOTH",
"278 370 LINE",
"453 370 LINE",
"453 417 LINE SMOOTH",
"453 533 OFFCURVE",
"369 589 OFFCURVE",
"247 589 CURVE SMOOTH",
"125 589 OFFCURVE",
"38 523 OFFCURVE",
"38 407 CURVE SMOOTH",
"38 172 LINE SMOOTH",
"38 56 OFFCURVE",
"125 -11 OFFCURVE",
"247 -11 CURVE SMOOTH"
);
}
);
width = 479;
}
);
leftKerningGroup = "ie-cy";
rightKerningGroup = "es-cy";
unicode = 0454;
userData = {
com.fontlab.hintData = {
hhints = (
{
position = -22;
width = 263;
},
{
position = 945;
width = 261;
}
);
vhints = (
{
position = 78;
width = 374;
}
);
};
com.typemytype.robofont.layerData = {
b = {
anchors = (
);
components = (
);
contours = (
);
lib = {
};
name = afii10101;
unicodes = (
);
width = 989;
};
};
};
},
{
glyphname = "ereversed-cy";
layers = (
{
anchors = (
{
name = top;
position = "{248, 578}";
}
);
layerId = "3FB85DAF-C7EF-4F81-BE96-1E190958879E";
paths = (
{
closed = 1;
nodes = (
"370 -11 OFFCURVE",
"457 55 OFFCURVE",
"457 171 CURVE SMOOTH",
"457 406 LINE SMOOTH",
"457 522 OFFCURVE",
"370 589 OFFCURVE",
"248 589 CURVE SMOOTH",
"127 589 OFFCURVE",
"42 532 OFFCURVE",
"42 416 CURVE SMOOTH",
"42 372 LINE",
"217 372 LINE",
"217 417 LINE SMOOTH",
"217 455 OFFCURVE",
"231 462 OFFCURVE",
"248 462 CURVE SMOOTH",
"264 462 OFFCURVE",
"277 451 OFFCURVE",
"277 413 CURVE SMOOTH",
"277 320 LINE",
"146 320 LINE",
"146 249 LINE",
"277 249 LINE",
"277 165 LINE SMOOTH",
"277 126 OFFCURVE",
"264 115 OFFCURVE",
"248 115 CURVE SMOOTH",
"231 115 OFFCURVE",
"217 121 OFFCURVE",
"217 160 CURVE SMOOTH",
"217 195 LINE",
"42 195 LINE",
"42 161 LINE SMOOTH",
"42 45 OFFCURVE",
"127 -11 OFFCURVE",
"248 -11 CURVE SMOOTH"
);
}
);
width = 495;
}
);
leftKerningGroup = "ze-cy";
rightKerningGroup = "be-cy";
unicode = 044D;
userData = {
com.fontlab.hintData = {
hhints = (
{
position = -22;
width = 261;
},
{
position = 943;
width = 263;
}
);
vhints = (
{
position = 569;
width = 374;
}
);
};
com.typemytype.robofont.layerData = {
b = {
anchors = (
);
components = (
);
contours = (
);
lib = {
};
name = afii10095;
unicodes = (
);
width = 1021;
};
};
};
},
{
glyphname = "tshe-cy";
layers = (
{
layerId = "3FB85DAF-C7EF-4F81-BE96-1E190958879E";
paths = (
{
closed = 1;
nodes = (
"233 0 LINE SMOOTH",
"233 347 LINE",
"249 354 OFFCURVE",
"264 358 OFFCURVE",
"275 358 CURVE SMOOTH",
"302 358 OFFCURVE",
"311 334 OFFCURVE",
"311 294 CURVE SMOOTH",
"311 0 LINE",
"490 0 LINE",
"490 278 LINE SMOOTH",
"490 381 OFFCURVE",
"467 479 OFFCURVE",
"354 479 CURVE SMOOTH",
"320 479 OFFCURVE",
"279 470 OFFCURVE",
"233 452 CURVE",
"233 810 LINE",
"54 810 LINE",
"54 0 LINE"
);
},
{
closed = 1;
nodes = (
"355 556 LINE",
"355 671 LINE",
"-7 671 LINE",
"-7 556 LINE"
);
}
);
width = 536;
}
);
leftKerningGroup = "tshe-cy";
rightKerningGroup = "tshe-cy";
unicode = 045B;
userData = {
com.fontlab.hintData = {
};
com.typemytype.robofont.layerData = {
b = {
anchors = (
);
components = (
);
contours = (
);
lib = {
};
name = afii10108;
unicodes = (
);
width = 790;
};
};
hhints = {
};
position = 602;
vhints = {
};
width = 137;
};
},
{
glyphname = "iu-cy";
layers = (
{
layerId = "3FB85DAF-C7EF-4F81-BE96-1E190958879E";
paths = (
{
closed = 1;
nodes = (
"613 -11 OFFCURVE",
"700 47 OFFCURVE",
"700 172 CURVE SMOOTH",
"700 406 LINE SMOOTH",
"700 531 OFFCURVE",
"613 589 OFFCURVE",
"497 589 CURVE SMOOTH",
"380 589 OFFCURVE",
"295 531 OFFCURVE",
"295 406 CURVE SMOOTH",
"295 354 LINE",
"229 354 LINE",
"229 578 LINE",
"50 578 LINE",
"50 0 LINE",
"229 0 LINE",
"229 227 LINE",
"295 227 LINE",
"295 172 LINE SMOOTH",
"295 47 OFFCURVE",
"380 -11 OFFCURVE",
"497 -11 CURVE SMOOTH"
);
},
{
closed = 1;
nodes = (
"475 116 OFFCURVE",
"464 132 OFFCURVE",
"464 168 CURVE SMOOTH",
"464 410 LINE SMOOTH",
"464 446 OFFCURVE",
"475 462 OFFCURVE",
"497 462 CURVE SMOOTH",
"521 462 OFFCURVE",
"531 448 OFFCURVE",
"531 410 CURVE SMOOTH",
"531 168 LINE SMOOTH",
"531 130 OFFCURVE",
"521 116 OFFCURVE",
"497 116 CURVE SMOOTH"
);
}
);
width = 738;
}
);
leftKerningGroup = "ve-cy";
rightKerningGroup = "be-cy";
unicode = 044E;
userData = {
com.fontlab.hintData = {
hhints = (
{
position = -22;
width = 263;
},
{
position = 943;
width = 263;
}
);
vhints = (
{
position = 593;
width = 352;
},
{
position = 1079;
width = 352;
}
);
};
com.typemytype.robofont.layerData = {
b = {
anchors = (
);
components = (
);
contours = (
);
lib = {
};
name = afii10096;
unicodes = (
);
width = 1525.84998;
};
};
};
},
{
glyphname = "ia-cy";
layers = (
{
layerId = "3FB85DAF-C7EF-4F81-BE96-1E190958879E";
paths = (
{
closed = 1;
nodes = (
"208 0 LINE",
"264 201 LINE",
"275 200 OFFCURVE",
"311 200 OFFCURVE",
"312 200 CURVE",
"312 0 LINE",
"491 0 LINE",
"491 578 LINE",
"246 578 LINE SMOOTH",
"94 578 OFFCURVE",
"35 496 OFFCURVE",
"35 395 CURVE SMOOTH",
"35 325 OFFCURVE",
"59 265 OFFCURVE",
"103 238 CURVE",
"19 0 LINE"
);
},
{
closed = 1;
nodes = (
"243 306 OFFCURVE",
"198 335 OFFCURVE",
"198 396 CURVE SMOOTH",
"198 446 OFFCURVE",
"238 477 OFFCURVE",
"307 477 CURVE SMOOTH",
"309 477 OFFCURVE",
"310 477 OFFCURVE",
"312 477 CURVE",
"312 306 LINE",
"310 306 OFFCURVE",
"309 306 OFFCURVE",
"307 306 CURVE"
);
}
);
width = 541;
}
);
rightKerningGroup = "ii-cy";
unicode = 044F;
userData = {
com.fontlab.hintData = {
hhints = (
{
position = 973;
width = 211;
}
);
vhints = (
{
position = 53;
width = 338;
}
);
};
com.typemytype.robofont.layerData = {
b = {
anchors = (
);
components = (
);
contours = (
);
lib = {
};
name = afii10097;
unicodes = (
);
width = 750;
};
};
};
},
{
color = 4;
glyphname = "dje-cy";
layers = (
{
layerId = "3FB85DAF-C7EF-4F81-BE96-1E190958879E";
paths = (
{
closed = 1;
nodes = (
"440 -175 OFFCURVE",
"490 -115 OFFCURVE",
"490 -2 CURVE SMOOTH",
"490 278 LINE SMOOTH",
"490 381 OFFCURVE",
"467 479 OFFCURVE",
"354 479 CURVE SMOOTH",
"320 479 OFFCURVE",
"279 470 OFFCURVE",
"233 452 CURVE",
"233 810 LINE",
"54 810 LINE",
"54 0 LINE",
"233 0 LINE SMOOTH",
"233 347 LINE",
"249 354 OFFCURVE",
"263 358 OFFCURVE",
"275 358 CURVE SMOOTH",
"302 358 OFFCURVE",
"311 334 OFFCURVE",
"311 294 CURVE SMOOTH",
"311 13 LINE SMOOTH",
"311 -28 OFFCURVE",
"302 -68 OFFCURVE",
"251 -68 CURVE SMOOTH",
"237 -68 LINE",
"237 -172 LINE",
"260 -174 OFFCURVE",
"280 -175 OFFCURVE",
"299 -175 CURVE SMOOTH"
);
},
{
closed = 1;
nodes = (
"355 578 LINE",
"355 690 LINE",
"-7 690 LINE",
"-7 578 LINE"
);
}
);
width = 526;
}
);
leftKerningGroup = "tshe-cy";
rightKerningGroup = "tshe-cy";
unicode = 0452;
userData = {
com.fontlab.hintData = {
};
com.typemytype.robofont.layerData = {
b = {
anchors = (
);
components = (
);
contours = (
{
points = (
{
segmentType = line;
smooth = 0;
x = 140;
y = 0;
},
{
segmentType = line;
smooth = 0;
x = 204;
y = 0;
},
{
segmentType = line;
smooth = 0;
x = 204;
y = 837;
},
{
smooth = 0;
x = 280;
y = 908;
},
{
smooth = 0;
x = 354;
y = 945;
},
{
segmentType = curve;
smooth = 1;
x = 444;
y = 945;
},
{
smooth = 0;
x = 519;
y = 945;
},
{
smooth = 0;
x = 599;
y = 915;
},
{
segmentType = curve;
smooth = 1;
x = 599;
y = 776;
},
{
segmentType = line;
smooth = 0;
x = 599;
y = 0;
},
{
segmentType = line;
smooth = 0;
x = 664;
y = 0;
},
{
segmentType = line;
smooth = 1;
x = 664;
y = 769;
},
{
smooth = 0;
x = 664;
y = 948;
},
{
smooth = 0;
x = 539;
y = 986;
},
{
segmentType = curve;
smooth = 1;
x = 448;
y = 986;
},
{
smooth = 0;
x = 347;
y = 986;
},
{
smooth = 0;
x = 262;
y = 944;
},
{
segmentType = curve;
smooth = 0;
x = 204;
y = 891;
},
{
segmentType = line;
smooth = 0;
x = 204;
y = 1602;
},
{
segmentType = line;
smooth = 0;
x = 569;
y = 1602;
},
{
segmentType = line;
smooth = 0;
x = 569;
y = 1658;
},
{
segmentType = line;
smooth = 0;
x = -230;
y = 1658;
},
{
segmentType = line;
smooth = 0;
x = -230;
y = 1602;
},
{
segmentType = line;
smooth = 0;
x = 140;
y = 1602;
}
);
}
);
lib = {
};
name = afii10099;
unicodes = (
);
width = 790;
};
};
hhints = {
};
position = 595;
vhints = {
};
width = 372;
};
},
{
color = 4;
glyphname = "yat-cy";
layers = (
{
layerId = "3FB85DAF-C7EF-4F81-BE96-1E190958879E";
paths = (
{
closed = 1;
nodes = (
"282 0 LINE SMOOTH",
"458 0 OFFCURVE",
"531 49 OFFCURVE",
"531 169 CURVE SMOOTH",
"531 307 OFFCURVE",
"438 348 OFFCURVE",
"278 348 CURVE SMOOTH",
"277 348 OFFCURVE",
"276 348 OFFCURVE",
"275 348 CURVE",
"275 810 LINE",
"97 810 LINE",
"97 0 LINE"
);
},
{
closed = 1;
nodes = (
"275 242 LINE",
"277 242 OFFCURVE",
"278 242 OFFCURVE",
"280 242 CURVE SMOOTH",
"339 241 OFFCURVE",
"368 227 OFFCURVE",
"368 167 CURVE SMOOTH",
"368 120 OFFCURVE",
"343 103 OFFCURVE",
"279 102 CURVE SMOOTH",
"275 102 LINE"
);
},
{
closed = 1;
nodes = (
"415 466 LINE",
"415 578 LINE",
"10 578 LINE",
"10 466 LINE"
);
}
);
width = 561;
}
);
rightKerningGroup = "softsign-cy";
unicode = 0463;
},
{
color = 4;
glyphname = "yusbig-cy";
layers = (
{
layerId = "3FB85DAF-C7EF-4F81-BE96-1E190958879E";
paths = (
{
closed = 1;
nodes = (
"153 0 LINE",
"242 235 LINE",
"249 235 LINE",
"249 0 LINE",
"387 0 LINE",
"387 235 LINE",
"394 235 LINE",
"483 0 LINE",
"627 0 LINE",
"465 370 LINE",
"317 260 LINE",
"173 370 LINE",
"8 0 LINE"
);
},
{
closed = 1;
nodes = (
"237 500 LINE",
"236 479 LINE",
"396 479 LINE",
"396 501 LINE",
"311 292 LINE",
"327 292 LINE"
);
},
{
closed = 1;
nodes = (
"412 247 LINE",
"566 578 LINE",
"65 578 LINE",
"224 247 LINE"
);
}
);
width = 635;
}
);
unicode = 046B;
},
{
color = 4;
glyphname = "ghestroke-cy";
layers = (
{
layerId = "3FB85DAF-C7EF-4F81-BE96-1E190958879E";
paths = (
{
closed = 1;
nodes = (
"5 230 LINE",
"344 230 LINE",
"344 342 LINE",
"5 342 LINE"
);
},
{
closed = 1;
nodes = (
"248 445 LINE",
"374 445 LINE",
"374 578 LINE",
"70 578 LINE",
"70 0 LINE",
"248 0 LINE"
);
}
);
width = 396;
}
);
leftKerningGroup = "ve-cy";
rightKerningGroup = "ge-cy";
unicode = 0493;
},
{
color = 4;
glyphname = "zhedescender-cy";
layers = (
{
components = (
{
name = "zhe-cy";
}
);
layerId = "3FB85DAF-C7EF-4F81-BE96-1E190958879E";
paths = (
{
closed = 1;
nodes = (
"722 -164 LINE",
"722 107 LINE",
"583 107 LINE",
"602 -164 LINE"
);
}
);
width = 725;
}
);
leftKerningGroup = "zhe-cy";
rightKerningGroup = "zhe-cy";
unicode = 0497;
},
{
color = 4;
glyphname = "kadescender-cy";
layers = (
{
layerId = "3FB85DAF-C7EF-4F81-BE96-1E190958879E";
paths = (
{
closed = 1;
nodes = (
"582 -164 LINE",
"582 107 LINE",
"443 107 LINE",
"462 -164 LINE"
);
},
{
closed = 1;
nodes = (
"229 0 LINE",
"229 252 LINE",
"251 252 LINE",
"341 0 LINE",
"531 0 LINE",
"415 307 LINE",
"528 578 LINE",
"333 578 LINE",
"251 355 LINE",
"229 355 LINE",
"229 578 LINE",
"50 578 LINE",
"50 0 LINE"
);
}
);
width = 582;
}
);
leftKerningGroup = "ve-cy";
rightKerningGroup = "zhe-cy";
unicode = 049B;
},
{
color = 4;
glyphname = "endescender-cy";
layers = (
{
layerId = "3FB85DAF-C7EF-4F81-BE96-1E190958879E";
paths = (
{
closed = 1;
nodes = (
"574 -164 LINE",
"574 107 LINE",
"435 107 LINE",
"454 -164 LINE"
);
},
{
closed = 1;
nodes = (
"229 0 LINE",
"229 238 LINE",
"315 238 LINE",
"315 0 LINE",
"494 0 LINE",
"494 578 LINE",
"315 578 LINE",
"315 360 LINE",
"229 360 LINE",
"229 578 LINE",
"50 578 LINE",
"50 0 LINE"
);
}
);
width = 574;
}
);
leftKerningGroup = "ve-cy";
rightKerningGroup = "de-cy";
unicode = 04A3;
},
{
glyphname = "ustrait-cy";
layers = (
{
layerId = "3FB85DAF-C7EF-4F81-BE96-1E190958879E";
paths = (
{
closed = 1;
nodes = (
"315 -176 LINE",
"315 94 LINE",
"454 578 LINE",
"297 578 LINE",
"235 303 LINE",
"157 578 LINE",
"0 578 LINE",
"160 93 LINE SMOOTH",
"160 -176 LINE"
);
}
);
width = 464;
}
);
leftKerningGroup = "u-cy";
rightKerningGroup = "u-cy";
unicode = 04AF;
userData = {
com.fontlab.hintData = {
};
com.typemytype.robofont.layerData = {
b = {
anchors = (
);
components = (
);
contours = (
);
lib = {
};
name = uni04AF;
unicodes = (
);
width = 957;
};
};
position = 637;
vhints = {
};
width = 62;
};
},
{
glyphname = "ustraitstroke-cy";
layers = (
{
components = (
{
name = "ustrait-cy";
}
);
layerId = "3FB85DAF-C7EF-4F81-BE96-1E190958879E";
paths = (
{
closed = 1;
nodes = (
"429 -13 LINE",
"429 99 LINE",
"42 99 LINE",
"42 -13 LINE"
);
}
);
width = 464;
}
);
unicode = 04B1;
userData = {
com.fontlab.hintData = {
};
com.typemytype.robofont.guides = (
);
com.typemytype.robofont.layerData = {
b = {
anchors = (
);
components = (
);
contours = (
);
lib = {
};
name = uni04B1;
unicodes = (
);
width = 753;
};
};
position = 637;
vhints = {
};
width = 62;
};
},
{
color = 4;
glyphname = "entail-cy";
layers = (
{
layerId = "3FB85DAF-C7EF-4F81-BE96-1E190958879E";
paths = (
{
closed = 1;
nodes = (
"509 -164 LINE",
"575 107 LINE",
"436 107 LINE",
"389 -164 LINE"
);
},
{
closed = 1;
nodes = (
"229 0 LINE",
"229 238 LINE",
"315 238 LINE",
"315 0 LINE",
"495 0 LINE",
"495 578 LINE",
"315 578 LINE",
"315 360 LINE",
"229 360 LINE",
"229 578 LINE",
"50 578 LINE",
"50 0 LINE"
);
}
);
width = 575;
}
);
leftKerningGroup = "ve-cy";
rightKerningGroup = "de-cy";
unicode = 04CA;
},
{
color = 4;
glyphname = "obarred-cy";
layers = (
{
anchors = (
{
name = bottom;
position = "{250, 0}";
},
{
name = center;
position = "{250, 289}";
},
{
name = ogonek;
position = "{280, 0}";
},
{
name = top;
position = "{249, 578}";
},
{
name = topright;
position = "{285, 578}";
}
);
layerId = "3FB85DAF-C7EF-4F81-BE96-1E190958879E";
paths = (
{
closed = 1;
nodes = (
"377 250 LINE",
"377 331 LINE",
"130 331 LINE",
"130 250 LINE"
);
},
{
closed = 1;
nodes = (
"371 -11 OFFCURVE",
"462 47 OFFCURVE",
"462 172 CURVE SMOOTH",
"462 406 LINE SMOOTH",
"462 531 OFFCURVE",
"371 589 OFFCURVE",
"249 589 CURVE SMOOTH",
"127 589 OFFCURVE",
"38 531 OFFCURVE",
"38 406 CURVE SMOOTH",
"38 172 LINE SMOOTH",
"38 47 OFFCURVE",
"127 -11 OFFCURVE",
"249 -11 CURVE SMOOTH"
);
},
{
closed = 1;
nodes = (
"227 106 OFFCURVE",
"214 122 OFFCURVE",
"214 159 CURVE SMOOTH",
"214 419 LINE SMOOTH",
"214 456 OFFCURVE",
"227 472 OFFCURVE",
"250 472 CURVE SMOOTH",
"274 472 OFFCURVE",
"286 457 OFFCURVE",
"286 419 CURVE SMOOTH",
"286 159 LINE SMOOTH",
"286 121 OFFCURVE",
"274 106 OFFCURVE",
"250 106 CURVE SMOOTH"
);
}
);
width = 500;
}
);
leftKerningGroup = "ie-cy";
rightKerningGroup = "be-cy";
unicode = 04E9;
userData = {
com.fontlab.hintData = {
hhints = (
{
position = -22;
width = 263;
},
{
position = 943;
width = 263;
}
);
vhints = (
{
position = 72;
width = 366;
},
{
position = 577;
width = 366;
}
);
};
com.typemytype.robofont.layerData = {
b = {
anchors = (
);
components = (
);
contours = (
);
lib = {
};
name = uni04E9;
unicodes = (
);
width = 1031;
};
};
};
},
{
color = 9;
export = 0;
glyphname = "iishorttail-cy";
layers = (
{
components = (
{
name = "ii-cy";
},
{
name = "brevecomb-cy";
transform = "{1, 0, 0, 1, -25, 0}";
}
);
layerId = "3FB85DAF-C7EF-4F81-BE96-1E190958879E";
paths = (
{
closed = 1;
nodes = (
"489 -164 LINE",
"555 107 LINE",
"418 107 LINE",
"371 -164 LINE"
);
}
);
width = 575;
}
);
unicode = 048B;
},
{
color = 4;
export = 0;
glyphname = "izhitsa-cy";
layers = (
{
layerId = "3FB85DAF-C7EF-4F81-BE96-1E190958879E";
paths = (
{
closed = 1;
nodes = (
"305 0 LINE",
"365 290 LINE SMOOTH",
"395 437 OFFCURVE",
"413 498 OFFCURVE",
"468 498 CURVE",
"476 602 LINE",
"460 605 OFFCURVE",
"437 606 OFFCURVE",
"422 606 CURVE SMOOTH",
"318 606 OFFCURVE",
"255 538 OFFCURVE",
"236 372 CURVE SMOOTH",
"220 237 LINE",
"179 578 LINE",
"9 578 LINE",
"125 0 LINE"
);
}
);
width = 486;
}
);
leftKerningGroup = "u-cy";
unicode = 0475;
},
{
color = 4;
export = 0;
glyphname = "ghemiddlehook-cy";
layers = (
{
layerId = "3FB85DAF-C7EF-4F81-BE96-1E190958879E";
paths = (
{
closed = 1;
nodes = (
"440 -175 OFFCURVE",
"490 -115 OFFCURVE",
"490 -2 CURVE SMOOTH",
"490 190 LINE SMOOTH",
"490 290 OFFCURVE",
"456 364 OFFCURVE",
"338 364 CURVE SMOOTH",
"296 364 OFFCURVE",
"267 352 OFFCURVE",
"233 337 CURVE",
"233 445 LINE",
"378 445 LINE",
"378 578 LINE",
"54 578 LINE",
"54 0 LINE",
"233 0 LINE",
"233 232 LINE",
"249 239 OFFCURVE",
"263 243 OFFCURVE",
"275 243 CURVE SMOOTH",
"302 243 OFFCURVE",
"311 219 OFFCURVE",
"311 179 CURVE SMOOTH",
"311 14 LINE SMOOTH",
"311 -27 OFFCURVE",
"302 -68 OFFCURVE",
"251 -68 CURVE SMOOTH",
"237 -68 LINE",
"237 -172 LINE",
"260 -174 OFFCURVE",
"280 -175 OFFCURVE",
"299 -175 CURVE SMOOTH"
);
}
);
width = 526;
}
);
leftKerningGroup = "ve-cy";
unicode = 0495;
},
